<?xml version="1.0" standalone="no"?>
<!DOCTYPE svg PUBLIC "-//W3C//DTD SVG 1.1//EN" "http://www.w3.org/Graphics/SVG/1.1/DTD/svg11.dtd" >
<svg>
<metadata>
Created by FontForge 20090914 at Fri Mar 20 11:42:16 2015
 By www-data
Typeface &#194;&#169; (your company). 2012. All Rights Reserved
</metadata>
<defs>
<font id="Lund" horiz-adv-x="1040" >
  <font-face 
    font-family="Lund"
    font-weight="400"
    font-stretch="normal"
    units-per-em="2048"
    panose-1="2 0 5 0 0 0 0 0 0 0"
    ascent="1638"
    descent="-410"
    x-height="1021"
    cap-height="1436"
    bbox="-0.00390625 -422.001 2148 1716"
    underline-thickness="150"
    underline-position="-142"
    unicode-range="U+0020-U+F002"
  />
<missing-glyph horiz-adv-x="1024" 
d="M100 0v1434h824v-1434h-824zM150 50h724v1334h-724v-1334zM325 1148c20.667 18.667 40.002 32.998 58.002 42.998c35.333 20 72.666 30 111.999 30c61.333 0 110.666 -15.833 147.999 -47.5s56 -74.167 56 -127.5c0 -32.667 -7.66699 -65.5 -23 -98.5
s-44.333 -76.167 -87 -129.5c-42 -53.333 -75 -97.333 -99 -132s-36 -67.667 -36 -99c0 -25.333 8 -69.666 24 -132.999h-32c-23.333 64.667 -35 114 -35 148c0 50.667 27.167 123.334 81.5 218.001s81.5 167 81.5 217c0 38 -11 68 -33 90s-52.333 33 -91 33
c-25.333 0 -48.333 -5.66699 -69 -17c-17.333 -10 -36 -23.333 -56 -40v45zM389.002 333.998l57 57.999c7.33301 6.66699 14 10 20 10c6.66699 0 14 -3.66699 22 -11l56 -60c6 -7.33301 9 -14 9 -20c0 -7.33301 -3.33301 -14.666 -10 -21.999l-56 -62
c-9.33301 -9.33301 -16.333 -14 -21 -14c-7.33301 0 -14 3.33301 -20 10l-61 71c-4.66699 6 -7 12 -7 18c0 6.66699 3.66699 14 11 22z" />
    <glyph glyph-name=".notdef" horiz-adv-x="1024" 
d="M100 0v1434h824v-1434h-824zM150 50h724v1334h-724v-1334zM325 1148c20.667 18.667 40.002 32.998 58.002 42.998c35.333 20 72.666 30 111.999 30c61.333 0 110.666 -15.833 147.999 -47.5s56 -74.167 56 -127.5c0 -32.667 -7.66699 -65.5 -23 -98.5
s-44.333 -76.167 -87 -129.5c-42 -53.333 -75 -97.333 -99 -132s-36 -67.667 -36 -99c0 -25.333 8 -69.666 24 -132.999h-32c-23.333 64.667 -35 114 -35 148c0 50.667 27.167 123.334 81.5 218.001s81.5 167 81.5 217c0 38 -11 68 -33 90s-52.333 33 -91 33
c-25.333 0 -48.333 -5.66699 -69 -17c-17.333 -10 -36 -23.333 -56 -40v45zM389.002 333.998l57 57.999c7.33301 6.66699 14 10 20 10c6.66699 0 14 -3.66699 22 -11l56 -60c6 -7.33301 9 -14 9 -20c0 -7.33301 -3.33301 -14.666 -10 -21.999l-56 -62
c-9.33301 -9.33301 -16.333 -14 -21 -14c-7.33301 0 -14 3.33301 -20 10l-61 71c-4.66699 6 -7 12 -7 18c0 6.66699 3.66699 14 11 22z" />
    <glyph glyph-name="space" unicode=" " horiz-adv-x="508" 
 />
    <glyph glyph-name="space" unicode="&#xa0;" horiz-adv-x="508" 
 />
    <glyph glyph-name="exclam" unicode="!" horiz-adv-x="450" 
d="M206 328l-49 1036c0 30.667 7 53.667 21 69s34.667 23 62 23c28 0 48.833 -7.66699 62.5 -23s20.5 -38.333 20.5 -69l-80 -1036h-37zM116 167l82.001 84c10 9.33301 19.667 14 29 14c8.66699 0 19 -5.33301 31 -16l80 -86c8 -10.667 12 -20.334 12 -29.001
c0 -10 -4.66699 -20.333 -14 -31l-80 -88c-13.333 -13.333 -23 -20 -29 -20c-10.667 0 -20.334 4.66699 -29.001 14l-88 101c-6.66699 8.66699 -10 17.334 -10 26.001c0 10 5.33301 20.333 16 31z" />
    <glyph glyph-name="quotedbl" unicode="&#x22;" horiz-adv-x="674" 
d="M196 1108l-30 -0.000976562l-62 359c-2.66699 15.333 -4 26.333 -4 33c0 24.667 6.83301 43.667 20.5 57s33.5 20 59.5 20s46.167 -6.5 60.5 -19.5s21.5 -31.833 21.5 -56.5c0 -5.33301 -1.33301 -16.666 -4 -33.999zM508 1108l-30 -0.000976562l-62 359
c-2.66699 15.333 -4 26.333 -4 33c0 24.667 6.83301 43.667 20.5 57s33.5 20 59.5 20s46.167 -6.5 60.5 -19.5s21.5 -31.833 21.5 -56.5c0 -5.33301 -1.33301 -16.666 -4 -33.999z" />
    <glyph glyph-name="numbersign" unicode="#" horiz-adv-x="1302" 
d="M579 859l-85 -290h242l86 290h-243zM656 1434h93l-141 -477h242l142 477h92l-141 -477h259l-29 -97h-259l-83 -290h279l-30 -98h-280l-140 -472h-92l139 472h-240l-142 -472h-92l140 472h-273l30 98h271l86 290h-295l29 97h295z" />
    <glyph glyph-name="dollar" unicode="$" horiz-adv-x="1068" 
d="M564 1552l0.00195312 -102c45.333 -5.33301 92.333 -17 141 -35c6.66699 -4 13 -6 19 -6c16.667 0 30.334 15 41.001 45h50l103 -282h-49c-40 89.333 -96 149 -168 179c-49.333 20 -95 33 -137 39v-540c160.667 -62 268.167 -123 322.5 -183s81.5 -148 81.5 -264
c0 -131.333 -39.833 -231.333 -119.5 -300s-174.5 -108.667 -284.5 -120v-239h-73v237c-125.333 2 -214 14.667 -266 38c-6.66699 4 -13 6 -19 6c-16.667 0 -30.334 -15 -41.001 -45h-50v331h49c33.333 -122 84.166 -197.333 152.499 -226s126.5 -43 174.5 -43v635
c-142.667 44.667 -242.334 95.667 -299.001 153c-61.333 60.667 -92 143.667 -92 249c0 110.667 41.667 201 125 271c70 58.667 158.667 92.667 266 102v100h73zM564.002 655l-0.000976562 -609.999c83.333 11.333 153.833 43.333 211.5 96s86.5 125.667 86.5 219
c0 77.333 -23 138.333 -69 183c-41.333 39.333 -117.666 76.666 -228.999 111.999zM491.001 873.001l-0.00195312 520.001c-79.333 -3.33301 -145.666 -27.333 -198.999 -72c-57.333 -48.667 -86 -109.334 -86 -182.001c0 -65.333 18.333 -116.333 55 -153
c34.667 -36 111.334 -73.667 230.001 -113z" />
    <glyph glyph-name="percent" unicode="%" horiz-adv-x="1686" 
d="M487 1459c65.333 0 128.833 -16.333 190.5 -49s109.834 -79.167 144.501 -139.5s52 -123.833 52 -190.5c0 -66 -16.833 -128.833 -50.5 -188.5s-81.334 -106.334 -143.001 -140.001s-126.167 -50.5 -193.5 -50.5c-66.667 0 -130.834 16.833 -192.501 50.5
s-109.5 80.334 -143.5 140.001s-51 122.5 -51 188.5c0 66.667 17.333 130.167 52 190.5s82.834 106.833 144.501 139.5s125.167 49 190.5 49zM244 1066c8.66699 -61.333 27.168 -119.165 55.501 -173.498s63.833 -95.833 106.5 -124.5c38 -26.667 76 -40 114 -40
c4.66699 0 9 0.333008 13 1c42 2 80.333 19.667 115 53s59 78.666 73 135.999c8.66699 36 13 73 13 111c0 21.333 -1.33301 43 -4 65c-8 62 -26.667 120.5 -56 175.5s-65 96.5 -107 124.5c-38.667 25.333 -77 38 -115 38h-11c-40.667 -2 -78.334 -19.333 -113.001 -52
s-59 -77.667 -73 -135c-10 -38.667 -15 -77.667 -15 -117c0 -20.667 1.33301 -41.334 4 -62.001zM335.001 -28.999l940 1461h84l-938 -1461h-86zM1199 738.001c64.667 0 127.999 -16.5 189.999 -49.5s110.333 -79.667 145 -140s52 -123.5 52 -189.5
c0 -66.667 -16.833 -129.834 -50.5 -189.501s-81.334 -106.167 -143.001 -139.5s-126.167 -50 -193.5 -50s-131.666 16.667 -192.999 50s-109 79.833 -143 139.5s-51 122.834 -51 189.501c0 66 17.333 129.167 52 189.5s82.834 107 144.501 140s125.167 49.5 190.5 49.5z
M956 344.001c8.66699 -61.333 27.168 -119.165 55.501 -173.498s63.833 -95.833 106.5 -124.5c39.333 -26 78 -39 116 -39h11c42 2 80.333 19.667 115 53s59 78.666 73 135.999c8.66699 36 13 73 13 111c0 21.333 -1.33301 43 -4 65c-8 62 -26.667 120.5 -56 175.5
s-65 96.5 -107 124.5c-38.667 25.333 -77 38 -115 38h-11c-40.667 -2 -78.334 -19.333 -113.001 -52s-59 -77.667 -73 -135c-10 -38.667 -15 -77.667 -15 -117c0 -20.667 1.33301 -41.334 4 -62.001z" />
    <glyph glyph-name="ampersand" unicode="&#x26;" horiz-adv-x="1705" 
d="M999 196l-554 682.998c-78.667 0 -138.5 -28.667 -179.5 -86s-61.5 -125.333 -61.5 -204c0 -60.667 11.833 -121.167 35.5 -181.5s57.5 -115.166 101.5 -164.499c48 -55.333 103 -97.666 165 -126.999s126.667 -44 194 -44c58.667 0 115 11.167 169 33.5
s97.333 52.5 130 90.5zM1342 -0.00195312c-37.333 0 -83.666 8.33398 -138.999 25.001s-111 60.667 -167 132c-44.667 -49.333 -103 -90.5 -175 -123.5s-152.333 -49.5 -241 -49.5c-152.667 0 -277.5 50.167 -374.5 150.5s-145.5 228.833 -145.5 385.5
c0 107.333 25.333 196.166 76 266.499s125.667 120.833 225 151.5c-28 40.667 -48.833 79.334 -62.5 116.001s-20.5 73.667 -20.5 111c0 70 25.667 135.667 77 197s112 92 182 92c45.333 0 92.666 -13 141.999 -39c6 -4 12 -6 18 -6c15.333 0 28 15 38 45h46l96 -281h-46
c-36.667 88.667 -88.334 148 -155.001 178c-56.667 24.667 -103.667 37 -141 37c-43.333 0 -78.666 -15.167 -105.999 -45.5s-41 -69.5 -41 -117.5c0 -87.333 34 -176.333 102 -267l531 -670c65.333 97.333 105.666 178.666 120.999 243.999c11.333 52 17 95.333 17 130
c0 64.667 -20.667 97 -62 97h-90v50h443v-50h-90c-63.333 0 -111.666 -75.667 -144.999 -227c-20.667 -88 -72.334 -185.333 -155.001 -292c72.667 -90.667 155.334 -136 248.001 -136h16c95.333 11.333 159.333 54 192 128l49 -1l-103 -231h-160z" />
    <glyph glyph-name="quotesingle" unicode="'" horiz-adv-x="362" 
d="M196 1108l-30 -0.000976562l-62 359c-2.66699 15.333 -4 26.333 -4 33c0 24.667 6.83301 43.667 20.5 57s33.5 20 59.5 20s46.167 -6.5 60.5 -19.5s21.5 -31.833 21.5 -56.5c0 -5.33301 -1.33301 -16.666 -4 -33.999z" />
    <glyph glyph-name="parenleft" unicode="(" horiz-adv-x="648" 
d="M100 601c1.33301 184.667 34.5 361.333 99.5 530s154.5 316 268.5 442h80c-114.667 -161.333 -191.334 -307.333 -230.001 -438c-38 -128.667 -57 -303 -57 -523v-22c0 -220 19 -394 57 -522c38.667 -130.667 115.334 -276.667 230.001 -438h-80
c-114 126 -203.5 273.167 -268.5 441.5s-98.167 344.833 -99.5 529.5z" />
    <glyph glyph-name="parenright" unicode=")" horiz-adv-x="648" 
d="M180 -370l-80 0.000976562c114.667 161.333 191.334 307.333 230.001 438c38 128 57 302 57 522v22c0 220 -19 394.333 -57 523c-38.667 130.667 -115.334 276.667 -230.001 438h80c114 -126 203.5 -273.333 268.5 -442s98.167 -345.334 99.5 -530.001
c-1.33301 -184.667 -34.5 -361.167 -99.5 -529.5s-154.5 -315.5 -268.5 -441.5z" />
    <glyph glyph-name="asterisk" unicode="*" horiz-adv-x="787" 
d="M380 1294c-2.66699 47.333 -14.9971 90.667 -36.9971 130c-24.667 44 -37 72 -37 84c0 21.333 7.83301 38.5 23.5 51.5s36.5 19.5 62.5 19.5c24.667 0 45.167 -6 61.5 -18s24.5 -27.667 24.5 -47c0 -14 -12 -43.667 -36 -89c-22 -40.667 -34.333 -84 -37 -130
c44 16.667 81.667 41.667 113 75c34 36.667 57 57 69 61c7.33301 2 14.333 3 21 3c12 0 23.667 -3.33301 35 -10c17.333 -11.333 30 -29 38 -53c4 -12.667 6 -24.667 6 -36c0 -10 -1.33301 -19.333 -4 -28c-6.66699 -20 -19.334 -32.667 -38.001 -38
c-4 -1.33301 -10.333 -2 -19 -2c-16.667 0 -42 3 -76 9c-18.667 3.33301 -37 5 -55 5c-27.333 0 -54.333 -3.66699 -81 -11c29.333 -36.667 64.333 -64.334 105 -83.001c45.333 -21.333 71.666 -37 78.999 -47c8.66699 -12 13 -24.667 13 -38c0 -6 -0.666992 -11.667 -2 -17
c-5.33301 -20 -18.333 -37.667 -39 -53c-19.333 -14.667 -39 -22 -59 -22c-0.666992 0 -1 0.333008 -1 1c-20.667 0 -36.667 7.66699 -48 23c-8 11.333 -15.333 42.666 -22 93.999c-6.66699 44.667 -22.334 86.334 -47.001 125.001
c-25.333 -38.667 -40.666 -80 -45.999 -124c-6 -50 -12.667 -80 -20 -90c-12.667 -16.667 -29 -25.667 -49 -27h-5c-18.667 0 -37.667 7 -57 21c-20 14 -33 31 -39 51c-2.66699 6.66699 -4 13.334 -4 20.001c0 11.333 3.66699 22 11 32
c8.66699 11.333 36.334 28.333 83.001 51c40.667 19.333 75.667 46.666 105 81.999c-27.333 7.33301 -54 11 -80 11c-18 0 -35.667 -1.66699 -53 -5c-36 -7.33301 -62 -11 -78 -11c-6 0 -10.667 0.666992 -14 2c-20 6 -33.667 18.667 -41 38c-4 8.66699 -6 18.334 -6 29.001
c0 11.333 2 23.333 6 36c7.33301 23.333 19.333 41 36 53c11.333 8 22.666 12 33.999 12c6 0 12 -1 18 -3c13.333 -4 38 -24.667 74 -62c31.333 -32.667 68.666 -57.667 111.999 -75z" />
    <glyph glyph-name="plus" unicode="+" 
d="M450 647h-350v140h350v369l1 1h139v-370h349l1 -1v-139h-350v-370h-140v370z" />
    <glyph glyph-name="comma" unicode="," horiz-adv-x="452" 
d="M219 258c29.333 0 58.832 -21.833 88.499 -65.5s44.5 -94.167 44.5 -151.5c0 -72.667 -23.667 -148.167 -71 -226.5s-93.666 -117.5 -138.999 -117.5v43c48.667 28.667 77.667 92 87 190c0 79.333 -43 133 -129 161v42z" />
    <glyph glyph-name="hyphen" unicode="-" horiz-adv-x="638" 
d="M140 409c-26.667 0 -40 9.33301 -40 28v83c0 19.333 13.667 29 41 29h356c27.333 0 41 -9.66699 41 -29v-83c0 -18.667 -13.333 -28 -40 -28h-358z" />
    <glyph glyph-name="hyphen" unicode="&#xad;" horiz-adv-x="638" 
d="M140 409c-26.667 0 -40 9.33301 -40 28v83c0 19.333 13.667 29 41 29h356c27.333 0 41 -9.66699 41 -29v-83c0 -18.667 -13.333 -28 -40 -28h-358z" />
    <glyph glyph-name="period" unicode="." horiz-adv-x="450" 
d="M116 167l82.001 84c10 9.33301 19.667 14 29 14c8.66699 0 19 -5.33301 31 -16l80 -86c8 -10.667 12 -20.334 12 -29.001c0 -10 -4.66699 -20.333 -14 -31l-80 -88c-13.333 -13.333 -23 -20 -29 -20c-10.667 0 -20.334 4.66699 -29.001 14l-88 101
c-6.66699 8.66699 -10 17.334 -10 26.001c0 10 5.33301 20.333 16 31z" />
    <glyph glyph-name="slash" unicode="/" horiz-adv-x="821" 
d="M180 -50h-80l541 1484h80z" />
    <glyph glyph-name="zero" unicode="0" horiz-adv-x="1060" 
d="M530 1459c72 0 142.331 -32 210.998 -96s122.334 -155.333 161.001 -274s58 -242.667 58 -372s-18.833 -252.666 -56.5 -369.999s-90.667 -208.666 -159 -273.999s-139.833 -98 -214.5 -98s-146.167 32.667 -214.5 98s-121.333 156.666 -159 273.999
s-56.5 240.666 -56.5 369.999s19.167 253.333 57.5 372s91.833 210 160.5 274s139.334 96 212.001 96zM259.998 689c9.33301 -120 29.8311 -233.33 61.498 -339.997s71.167 -188 118.5 -244c43.333 -52 86.333 -78 129 -78c4 0 8 0.333008 12 1
c46.667 4.66699 89.167 39.5 127.5 104.5s65.5 153.5 81.5 265.5c10 71.333 15 144.666 15 219.999c0 41.333 -1.66699 83.333 -5 126c-9.33301 120.667 -30.166 235 -62.499 343s-72.166 189.333 -119.499 244c-43.333 50.667 -86 76 -128 76
c-4 0 -7.66699 -0.333008 -11 -1c-45.333 -4.66699 -87.333 -38.834 -126 -102.501s-66 -151.834 -82 -264.501c-10.667 -73.333 -16 -148.333 -16 -225c0 -41.333 1.66699 -83 5 -125z" />
    <glyph glyph-name="one" unicode="1" horiz-adv-x="776" 
d="M116 0v50h96c68.667 0 103 78.333 103 235v794c0 86 -39 129 -117 129h-98v50c194.667 42 303.667 100.667 327 176h50v-1149c0 -156.667 34.333 -235 103 -235h96v-50h-560z" />
    <glyph glyph-name="two" unicode="2" horiz-adv-x="1022" 
d="M708 1036c0 98.667 -28.6689 180.333 -86.002 245s-119.333 97 -186 97c-113.333 0 -205 -43.667 -275 -131h-22v49c26 33.333 64.333 68 115 104s112.334 54 185.001 54c122 0 224.167 -40.333 306.5 -121s123.5 -179.667 123.5 -297c0 -174.667 -209 -480 -627 -916
h422c86.667 0 156.334 37.333 209.001 112h49l-103 -232h-719l1 50c404.667 450 607 778.667 607 986z" />
    <glyph glyph-name="three" unicode="3" horiz-adv-x="1012" 
d="M452 22c100.667 0 173.334 38.8311 218.001 116.498s67 171.167 67 280.5c0 69.333 -14.833 137.833 -44.5 205.5s-88.5 117.167 -176.5 148.5v19c54 30 102 70.167 144 120.5s63 120.166 63 209.499c0 73.333 -18.333 136.5 -55 189.5s-92 83.833 -166 92.5
c-45.333 0 -86.5 -15 -123.5 -45s-55.5 -67 -55.5 -111h-42v159c0 13.333 24.5 24.5 73.5 33.5s100.833 13.5 155.5 13.5c103.333 0 189 -28 257 -84s102 -139 102 -249c0 -58 -20.333 -113.333 -61 -166s-105 -99 -193 -139c62 -9.33301 127 -54.166 195 -134.499
s102 -173.166 102 -278.499c0 -108.667 -48 -206.667 -144 -294s-204.333 -131 -325 -131c-101.333 0 -183.833 13 -247.5 39s-95.5 55.333 -95.5 88v100h49c0 -55.333 28.667 -99.666 86 -132.999s129.666 -50 216.999 -50z" />
    <glyph glyph-name="four" unicode="4" horiz-adv-x="1155" 
d="M657 438v686l-424 -686h424zM794 338v-171c0 -78 24 -117 72 -117h76v-50h-442v50h76c54 0 81 40 81 120v168h-557v35l660 1061h34v-996h19c88.667 0 153 44 193 132h49l-103 -232h-158z" />
    <glyph glyph-name="five" unicode="5" horiz-adv-x="1054" 
d="M252 852l144.003 582.001h396c68.667 0 106 17.333 112 52h50l-63 -172h-429l-104 -415c150.667 0 280 -41.5 388 -124.5s162 -183.167 162 -300.5c0 -156 -47.833 -277.667 -143.5 -365s-203.834 -131 -324.501 -131c-101.333 0 -184 13 -248 39
c-61.333 24.667 -92 52 -92 82v106h46c0 -58.667 28.667 -103.834 86 -135.501s129.666 -47.5 216.999 -47.5c100.667 0 173.167 38.833 217.5 116.5s66.5 193.5 66.5 347.5c0 106 -36.667 194.333 -110 265s-168.333 106 -285 106c-26.667 0 -55.334 -1.66699 -86.001 -5z
" />
    <glyph glyph-name="six" unicode="6" horiz-adv-x="1060" 
d="M581 11c67.333 0 121.667 32.833 163 98.5s62 148.167 62 247.5c0 135.333 -33.333 246.5 -100 333.5s-138.667 130.5 -216 130.5c-60.667 0 -115 -33.833 -163 -101.5s-72 -151.167 -72 -250.5c0 -102 31.833 -203.833 95.5 -305.5s140.5 -152.5 230.5 -152.5z
M824.001 1459l-0.000976562 -48c-118 -8 -226.833 -67.833 -326.5 -179.5s-177.5 -267.5 -233.5 -467.5c64 62 152.667 93 266 93c72 0 142.333 -19 211 -57s122.334 -92.167 161.001 -162.5s58 -144.166 58 -221.499s-18.833 -150.833 -56.5 -220.5
s-85.667 -123.834 -144 -162.501s-114.833 -58 -169.5 -58c-162 0 -284.167 54.167 -366.5 162.5s-123.5 232.5 -123.5 372.5c0 213.333 69.667 424.833 209 634.5s311 314.5 515 314.5z" />
    <glyph glyph-name="seven" unicode="7" horiz-adv-x="1022" 
d="M741 1314h-399.001c-88.667 0 -152.667 -37.333 -192 -112h-50l103 232h719l-1 -50c-246.667 -577.333 -370 -979 -370 -1205c0 -86 22.333 -129 67 -129h117v-50h-411v50h67c48 0 72 43.667 72 131c12.667 197.333 105.334 575 278.001 1133z" />
    <glyph glyph-name="eight" unicode="8" horiz-adv-x="1060" 
d="M575 830c80.667 16.667 132.667 58 156 124c18 50 27 96.667 27 140c0 13.333 -1 26.333 -3 39c-8 54 -25.5 105.333 -52.5 154s-60.167 85.334 -99.5 110.001c-36.667 22 -72 33 -106 33h-9c-38 -2 -73.167 -17.333 -105.5 -46s-55.166 -68.334 -68.499 -119.001
c-8.66699 -32.667 -13 -66 -13 -100c0 -18.667 1.33301 -37.667 4 -57c8 -53.333 25.167 -104 51.5 -152s99.166 -90 218.499 -126zM495 785c-76 -14 -136.333 -66.3311 -181 -156.998c-37.333 -76.667 -56 -145.334 -56 -206.001c0 -12 0.666992 -23.667 2 -35
c9.33301 -69.333 29.833 -134.833 61.5 -196.5s71.167 -108.5 118.5 -140.5c42.667 -29.333 85.334 -44 128.001 -44h13c46.667 2.66699 89.167 22.667 127.5 60s65.5 88.333 81.5 153c10 41.333 15 83.666 15 126.999c0 24 -1.66699 48.333 -5 73
c-7.33301 74.667 -31.833 145.5 -73.5 212.5s-118.834 118.167 -231.501 153.5zM659 811.002c28 -9.33301 55.333 -21 82 -35c68.667 -37.333 122.334 -90.166 161.001 -158.499s58 -139.833 58 -214.5s-18.833 -145.834 -56.5 -213.501s-90.667 -120.334 -159 -158.001
s-139.833 -56.5 -214.5 -56.5s-146.167 18.833 -214.5 56.5s-121.333 90.334 -159 158.001s-56.5 138.834 -56.5 213.501s19.167 146.167 57.5 214.5s91.833 121.166 160.5 158.499c27.333 14 54.666 25.667 81.999 35c-16 6 -32 13 -48 21
c-57.333 29.333 -101.666 70.333 -132.999 123s-47 108 -47 166s16 113.667 48 167s76.5 94.333 133.5 123s115.833 43 176.5 43c60 0 118.667 -14.333 176 -43s102 -69.667 134 -123s48 -109 48 -167s-15.667 -113.333 -47 -166s-75.333 -93.667 -132 -123
c-16.667 -8.66699 -33.334 -15.667 -50.001 -21z" />
    <glyph glyph-name="nine" unicode="9" horiz-adv-x="1060" 
d="M479 1423c-67.333 0 -121.501 -32.833 -162.501 -98.5s-61.5 -148.167 -61.5 -247.5c0 -135.333 33.333 -246.5 100 -333.5s138.334 -130.5 215.001 -130.5c60.667 0 115.167 33.833 163.5 101.5s72.5 151.167 72.5 250.5c0 102 -32 203.833 -96 305.5
s-141 152.5 -231 152.5zM235.999 -25l0.000976562 48c118 8 226.833 67.833 326.5 179.5s177.5 267.5 233.5 467.5c-63.333 -62 -152 -93 -266 -93c-72 0 -142.333 19 -211 57s-122.334 92.167 -161.001 162.5s-58 144.166 -58 221.499s18.833 150.833 56.5 220.5
s85.667 123.834 144 162.501s114.833 58 169.5 58c162 0 284.167 -54.167 366.5 -162.5s123.5 -232.5 123.5 -372.5c0 -213.333 -69.667 -424.833 -209 -634.5s-311 -314.5 -515 -314.5z" />
    <glyph glyph-name="colon" unicode=":" horiz-adv-x="450" 
d="M116 167l82.001 84c10 9.33301 19.667 14 29 14c8.66699 0 19 -5.33301 31 -16l80 -86c8 -10.667 12 -20.334 12 -29.001c0 -10 -4.66699 -20.333 -14 -31l-80 -88c-13.333 -13.333 -23 -20 -29 -20c-10.667 0 -20.334 4.66699 -29.001 14l-88 101
c-6.66699 8.66699 -10 17.334 -10 26.001c0 10 5.33301 20.333 16 31zM116.001 860l82.001 84c10 9.33301 19.667 14 29 14c8.66699 0 19 -5.33301 31 -16l80 -86c8 -10.667 12 -20.334 12 -29.001c0 -10 -4.66699 -20.333 -14 -31l-80 -88c-13.333 -13.333 -23 -20 -29 -20
c-10.667 0 -20.334 4.66699 -29.001 14l-88 101c-6.66699 8.66699 -10 17.334 -10 26.001c0 10 5.33301 20.333 16 31z" />
    <glyph glyph-name="semicolon" unicode=";" horiz-adv-x="460" 
d="M126 859l82.001 84c10 9.33301 19.667 14 29 14c8.66699 0 19 -5.33301 31 -16l80 -86c8 -10.667 12 -20.334 12 -29.001c0 -10 -4.66699 -20.333 -14 -31l-80 -88c-13.333 -13.333 -23 -20 -29 -20c-10.667 0 -20.334 4.66699 -29.001 14l-88 101
c-6.66699 8.66699 -10 17.334 -10 26.001c0 10 5.33301 20.333 16 31zM219.001 258c29.333 0 58.832 -21.833 88.499 -65.5s44.5 -94.167 44.5 -151.5c0 -72.667 -23.667 -148.167 -71 -226.5s-93.666 -117.5 -138.999 -117.5v43c48.667 28.667 77.667 92 87 190
c0 79.333 -43 133 -129 161v42z" />
    <glyph glyph-name="semicolon" unicode="&#x37e;" horiz-adv-x="460" 
d="M126 859l82.001 84c10 9.33301 19.667 14 29 14c8.66699 0 19 -5.33301 31 -16l80 -86c8 -10.667 12 -20.334 12 -29.001c0 -10 -4.66699 -20.333 -14 -31l-80 -88c-13.333 -13.333 -23 -20 -29 -20c-10.667 0 -20.334 4.66699 -29.001 14l-88 101
c-6.66699 8.66699 -10 17.334 -10 26.001c0 10 5.33301 20.333 16 31zM219.001 258c29.333 0 58.832 -21.833 88.499 -65.5s44.5 -94.167 44.5 -151.5c0 -72.667 -23.667 -148.167 -71 -226.5s-93.666 -117.5 -138.999 -117.5v43c48.667 28.667 77.667 92 87 190
c0 79.333 -43 133 -129 161v42z" />
    <glyph glyph-name="less" unicode="&#x3c;" 
d="M940 1074l-625 -359l625 -355v-167l-840 481v83l840 484v-167z" />
    <glyph glyph-name="equal" unicode="=" 
d="M100 631h840v-140h-840v140zM100 943h840v-140h-840v140z" />
    <glyph glyph-name="greater" unicode="&#x3e;" 
d="M100 1241l840 -484v-83l-840 -481v167l625 355l-625 359v167z" />
    <glyph glyph-name="question" unicode="?" horiz-adv-x="734" 
d="M100 1330c85.333 69.333 165.999 104 241.999 104c88 0 158.667 -22.667 212 -68s80 -106 80 -182c0 -46 -10.833 -92.667 -32.5 -140s-63.167 -109.333 -124.5 -186c-60 -75.333 -107.167 -137.833 -141.5 -187.5s-51.5 -97.167 -51.5 -142.5c0 -42 11.667 -105 35 -189
h-47c-33.333 92 -50 162.333 -50 211c0 72.667 38.833 176.667 116.5 312s116.5 238.333 116.5 309c0 54.667 -15.667 97.667 -47 129s-74.666 47 -129.999 47c-56 0 -115.333 -27 -178 -81v64zM190.999 167l82.001 84c10 9.33301 19.667 14 29 14
c8.66699 0 19 -5.33301 31 -16l80 -86c8 -10.667 12 -20.334 12 -29.001c0 -10 -4.66699 -20.333 -14 -31l-80 -88c-13.333 -13.333 -23 -20 -29 -20c-10.667 0 -20.334 4.66699 -29.001 14l-88 101c-6.66699 8.66699 -10 17.334 -10 26.001c0 10 5.33301 20.333 16 31z" />
    <glyph glyph-name="at" unicode="@" horiz-adv-x="1982" 
d="M972 622c-55.333 -6.66699 -105.667 -33.333 -151 -80s-68 -113 -68 -199c0 -71.333 21.333 -136 64 -194s103.667 -87 183 -87c64.667 3.33301 106.667 59 126 167v476c-36 -42 -87.333 -69.667 -154 -83zM1360 29.001c-42 0.666992 -75.5107 6.66895 -100.511 18.002
s-45.5 29.333 -61.5 54c-19.333 -24.667 -46.666 -46.167 -81.999 -64.5s-79.666 -27.5 -132.999 -27.5c-96 0 -181.5 33.5 -256.5 100.5s-112.5 144.833 -112.5 233.5c0.666992 58 18.334 113.5 53.001 166.5s78.834 91.333 132.501 115s111.5 40.167 173.5 49.5
c44.667 10.667 81.334 24.834 110.001 42.501s43 42.5 43 74.5c-1.33301 46 -15 87.667 -41 125s-69 56 -129 56c-48 0 -88.5 -19.667 -121.5 -59s-49.833 -81 -50.5 -125h-45v159c0 13.333 24 26.666 72 39.999c48.667 13.333 108 20 178 20
c72.667 -1.33301 137.167 -22.833 193.5 -64.5s84.5 -94.167 84.5 -157.5v-589c0 -78 31.333 -117 94 -117c123.333 23.333 212.333 87.166 267 191.499s82 231.833 82 382.5c-13.333 223.333 -90.666 403.333 -231.999 540c-131.333 125.333 -291.333 188 -480 188
c-136.667 0 -267.5 -45.833 -392.5 -137.5s-214.833 -210.167 -269.5 -355.5c-44.667 -118.667 -67 -239 -67 -361c0 -208.667 43.167 -379.167 129.5 -511.5s188 -229.166 305 -290.499s223.167 -92 318.5 -92c182.667 0 374.334 69.333 575.001 208v-75
c-175.333 -122.667 -365.666 -184 -570.999 -184c-160 0 -313.667 40.833 -461 122.5s-261.666 195.667 -342.999 342s-122 300.166 -122 461.499s41.333 316.166 124 464.499s197.834 262.333 345.501 342s299.834 119.5 456.501 119.5c241.333 0 444.333 -76.667 609 -230
s247 -342 247 -566c0 -180 -58.667 -326.333 -176 -439c-116.667 -112 -232 -168.667 -346 -170z" />
    <glyph glyph-name="A" unicode="A" horiz-adv-x="1452" 
d="M880 1435c98.667 -74 178.332 -146.001 238.999 -216.001c155.333 -186.667 233 -353.334 233 -500.001v-43c0 -193.333 -74.667 -340.666 -224 -441.999c-70 -40.667 -138.333 -61 -205 -61c-53.333 0 -80 10 -80 30v3c0 7.33301 25.667 34.333 77 81
c87.333 103.333 131 200.666 131 291.999c0 69.333 -22 135.333 -66 198c-11.333 2 -19.333 3 -24 3c-214 0 -342.667 -33 -386 -99c-50 -36.667 -86 -75.667 -108 -117c-31.333 -67.333 -47 -125 -47 -173v-28c0 -99.333 36.333 -213.666 109 -342.999v-2
c0 -10 -8.33301 -16 -25 -18c-40 6 -129 68.667 -267 188c-91.333 88.667 -137 169 -137 241c0 137.333 126.333 300.666 379 489.999c170 145.333 255 237 255 275l-6 2h-32c-55.333 0 -125.666 -19.333 -210.999 -58h-22c-10 4.66699 -15 11.334 -15 20.001
c31.333 86.667 85 150.334 161 191.001c90.667 50 181 78.667 271 86zM506.998 1189h3c68.667 28.667 130.667 43 186 43h25c39.333 0 59 -10.333 59 -31c0 -66.667 -133.333 -203 -400 -409c-149.333 -145.333 -224 -244.333 -224 -297c-8.66699 -28 -13 -50 -13 -66
c0 -102 102.667 -221.333 308 -358h3c-52 110 -78 205 -78 285v12c0 163.333 79 294.666 237 393.999c76 35.333 195 53 357 53h3l19 3c28.667 0 59.667 -53.333 93 -160c6 -26 9 -51.333 9 -76c0 -123.333 -64 -246.333 -192 -369v-5h3c174.667 0 300 95.667 376 287
c18.667 68 28 125.667 28 173v25c0 4 1 7.66699 3 11c-2 2.66699 -3 6 -3 10c0 192.667 -124.333 402.667 -373 630c-43.333 35.333 -68.333 53 -75 53c-119.333 -21.333 -211.333 -58.666 -276 -111.999c-40.667 -34.667 -66.667 -66.667 -78 -96zM860.998 1394
c82.667 -61.333 147 -118 193 -170c167.333 -184 251 -360 251 -528c0 -237.333 -96.333 -394 -289 -470c-34 -8.66699 -66 -13 -96 -13h-3c-4 0 -6 1.66699 -6 5c90 86 146 168.333 168 247c12 32 18 76.667 18 134c0 64 -24.667 132.667 -74 206
c-7.33301 8 -16.666 14 -27.999 18c-10.667 -3.33301 -18 -5 -22 -5l-6 2l-19 -2c-2 0 -3 0.666992 -3 2l-6 -2h-16c-194 0 -322.333 -36.333 -385 -109c-112 -90 -168 -202 -168 -336c0 -84.667 24 -180.334 72 -287.001l-6 -2c-190.667 134 -286 246.667 -286 338v12
c0 124.667 126.333 281.334 379 470.001c169.333 144 254 244 254 300c0 22 -24.667 33 -74 33h-6c-50.667 0 -110.667 -12.667 -180 -38c-2.66699 3.33301 -4 5.66602 -4 6.99902c11.333 26.667 48.666 62.334 111.999 107.001c56 36 132.667 63 230 81zM733.998 939.999
c6.66699 -15.333 17 -23 31 -23c178 7.33301 267 14 267 20c12.667 11.333 19 30 19 56c0 55.333 -32.333 119 -97 191c-3.33301 0 -8.33301 1.66699 -15 5c-16.667 0 -47.667 -34 -93 -102c-66 -80.667 -103.333 -129.667 -112 -147zM935.998 1184
c32 -8.66699 66.001 -56.333 102.001 -143c6.66699 -27.333 10 -43.333 10 -48c0 -40.667 -18.667 -61 -56 -61c-122.667 -6.66699 -200.334 -10 -233.001 -10c-10.667 2 -16 8 -16 18v2c4 12.667 48.667 73 134 181c28 40.667 47.667 61 59 61zM932.999 1130
c0 -2 -42.667 -57.667 -128 -167v-3h3l187 8l6 7v26c0 37.333 -20.667 80.333 -62 129h-6z" />
    <glyph glyph-name="B" unicode="B" horiz-adv-x="1458" 
d="M943 1431c77.333 0 160.666 -17.998 249.999 -53.998c70.667 -46 112.667 -88 126 -126c16.667 -43.333 25 -73.333 25 -90c0 -138.667 -93.667 -242.334 -281 -311.001v-2c196.667 -90.667 295 -190 295 -298c0 -133.333 -97.333 -244.666 -292 -333.999
c-103.333 -35.333 -208.666 -53 -315.999 -53h-77c-5.33301 0 -10 0.666992 -14 2c-12 -2 -18 -7.33301 -18 -16v-19c0 -26.667 23.333 -58.667 70 -96c2.66699 -2.66699 4 -5.66699 4 -9c0 -18.667 -14 -28 -42 -28c-126 20.667 -226.667 58 -302 112
c-94 56.667 -163.333 150.667 -208 282c-16 91.333 -26.333 167.666 -31 228.999c0 159.333 72.333 300 217 422h-7c-22.667 -2.66699 -73 -20.667 -151 -54l-56 -12c-23.333 5.33301 -35 14.666 -35 27.999c17.333 74 81.666 155.667 192.999 245
c110.667 70.667 206.667 115.667 288 135c84.667 25.333 159.667 38 225 38c22.667 4.66699 54.334 7 95.001 7h21zM212 1063c64 20 99.332 29.999 105.999 29.999c22 6 49 9 81 9c56 0 84 -11.667 84 -35v-2c0 -9.33301 -24.667 -29.666 -74 -60.999
c-131.333 -102.667 -197 -237.667 -197 -405l4 -12h-4l4 -5c12.667 -104 23.334 -166 32.001 -186c11.333 -72.667 61.666 -149.667 150.999 -231c76 -52 133.333 -80.667 172 -86h3v2c-9.33301 18 -14 33.667 -14 47v14c0 44 23.667 71 71 81
c22.667 -4.66699 41.334 -7 56.001 -7h24c2.66699 0 4 -0.666992 4 -2l7 2c2 0 3 -0.666992 3 -2c250 0 423.667 74.667 521 224c20.667 44.667 31 81 31 109c0 107.333 -111.333 202.333 -334 285l-7 16v5c0 15.333 40 34 120 56c138 58.667 207 140.334 207 245.001
c0 33.333 -15.333 73.666 -46 120.999c-60 66.667 -149 100 -267 100h-49c-124 -6 -207 -15.333 -249 -28c-199.333 -54 -342.333 -141.667 -429 -263c-7.33301 -10.667 -11 -17.667 -11 -21zM928.999 1370l0.000976562 -2.00098c2.66699 0 4 0.666992 4 2
c143.333 0 241.666 -42 294.999 -126c16.667 -40 25 -71.667 25 -95c0 -122 -99.667 -210.667 -299 -266c-21.333 -10.667 -32 -20 -32 -28v-9c0 -13.333 36.333 -32 109 -56c157.333 -74.667 236 -155.667 236 -243v-9c0 -67.333 -44.667 -137.333 -134 -210
c-103.333 -71.333 -239.333 -107 -408 -107c-24 0 -55.333 3 -94 9h-7c-39.333 0 -64 -31 -74 -93v-7c0 -5.33301 2.33301 -18.666 7 -39.999h-4c-112.667 37.333 -201.667 112 -267 224c-18.667 39.333 -33.667 86 -45 140c2 6 3 12.333 3 19c-14 53.333 -21 99 -21 137v17
c0 170 90.333 312 271 426c0 5.33301 1 9.33301 3 12c-6.66699 29.333 -39.334 44 -98.001 44c-38.667 0 -93.667 -10 -165 -30c62.667 98.667 177.334 178.667 344.001 240c88.667 26.667 157.667 40 207 40c50.667 7.33301 98.667 11 144 11zM718 1046v-9
c9.33301 -28 48 -42 116 -42c70 0 148.667 13.333 236 40c40 18 60 37.333 60 58v14c0 41.333 -81 84 -243 128h-31c-39.333 -22 -70 -50.667 -92 -86c-30.667 -44.667 -46 -79 -46 -103zM877 1230c60.667 -9.33301 127.334 -33.3301 200.001 -71.9971
c30.667 -20.667 46 -38.334 46 -53.001c0 -52.667 -82 -86.334 -246 -101.001c-20 -1.33301 -35.333 -2 -46 -2c-68 3.33301 -102 16.666 -102 39.999v11c7.33301 48.667 44.666 104.667 111.999 168c6.66699 3.33301 18.667 6.33301 36 9zM813 1058l7 -2h11
c70 0 136.667 11.667 200 35l4 4c0 18.667 -48 42 -144 70h-7c-47.333 -46 -71 -81.667 -71 -107zM511 484.003c16 -107.333 52.335 -164.001 109.002 -170.001c55.333 0 125.666 11.667 210.999 35c124 41.333 216.667 110.666 278 207.999
c0 49.333 -99.667 101.333 -299 156c-42.667 12.667 -87.334 23.334 -134.001 32.001c-48 0 -86.667 -34.667 -116 -104c-32.667 -59.333 -49 -111.666 -49 -156.999zM666.002 736.002h17c33.333 0 135.333 -29.333 306 -88c72.667 -35.333 109 -65 109 -89
c-14 -40 -70.333 -93.667 -169 -161c-99.333 -50 -201 -75 -305 -75h-7c-43.333 0 -75 51.333 -95 154v7c0 73.333 34 152 102 236c16.667 10.667 30.667 16 42 16zM683.002 680.002c-54 -72 -81.002 -135.666 -81.002 -190.999c6 -65.333 21.333 -102.666 46 -111.999
c64 0 139 20.333 225 61c66.667 38.667 112.334 79 137.001 121v2c-7.33301 21.333 -81 52.666 -221 93.999c-27.333 7.33301 -62.666 15.666 -105.999 24.999z" />
    <glyph glyph-name="C" unicode="C" horiz-adv-x="1453" 
d="M1321 1435c18.667 0 29.332 -11.001 31.999 -33.001c-39.333 -80.667 -91.666 -161.334 -156.999 -242.001c-66 -70.667 -113 -111.667 -141 -123c-6.66699 -7.33301 -31 -22 -73 -44c0 -14 -41.333 -24.333 -124 -31c-93.333 -18 -164.666 -50.333 -213.999 -97
c-24.667 -26 -50 -86 -76 -180c-3.33301 -21.333 -5 -39.333 -5 -54v-5c0 -98 65 -197.333 195 -298c24.667 -15.333 50.667 -23 78 -23c110.667 0 236 102.667 376 308c12 17.333 27.333 26 46 26c20 -6.66699 30 -22.334 30 -47.001v-10c0 -86 -27 -196.333 -81 -331
c-30 -63.333 -68 -116.666 -114 -159.999c-65.333 -58 -162.666 -87 -291.999 -87c-102 0 -214.667 35 -338 105c-130.667 84.667 -222.667 200.334 -276 347.001c-14.667 46.667 -22 92 -22 136v13c0 120 37 240 111 360v5c-2 0 -3 1 -3 3
c-26.667 -3.33301 -64.334 -12 -113.001 -26h-9c-34 0 -51 12 -51 36c32 82.667 93.333 156.334 184 221.001c60 46 139.333 78.333 238 97c152.667 12 280 18 382 18l5 -2c2 0 3 0.666992 3 2l19 -2h5c145.333 22 244.666 45 297.999 69c54.667 32.667 83.667 49 87 49z
M933.998 1258l0.00195312 1.99902c-2 0 -3 -0.666992 -3 -2l-19 2c-178.667 0 -321.334 -8.33301 -428.001 -25c-59.333 -18 -116 -44.667 -170 -80c-70.667 -58.667 -112.334 -104 -125.001 -136h3c41.333 8.66699 77.333 13 108 13c40 0 60 -10.333 60 -31v-8
c0 -10 -20 -46 -60 -108c-48.667 -102 -73 -184 -73 -246v-8c0 -2 -1 -3 -3 -3c0 -1.33301 1 -2 3 -2c0 -2 -1 -4.66699 -3 -8c0 -179.333 89.333 -331 268 -455c101.333 -66.667 214.333 -100 339 -100c106 0 189.667 34.333 251 103c28 32 56 80.667 84 146
c18 46.667 35.333 109.334 52 188.001h-3c-139.333 -173.333 -262 -260 -368 -260h-8c-78 0 -154.667 44.667 -230 134c-78 83.333 -117 165.666 -117 246.999c0 72.667 26.333 160.667 79 264c44 60 119 103.667 225 131c32 8.66699 79.667 17.334 143 26.001
c55.333 21.333 109.333 56.333 162 105c74.667 80.667 119 139 133 175c-116.667 -36 -199.667 -54 -249 -54c0 -4.66699 -17 -8 -51 -10zM1215 1309c2 -3.33301 3 -6.00098 3 -8.00098c-88 -133.333 -180 -217 -276 -251c-18 -6.66699 -63.333 -15.334 -136 -26.001
c-120.667 -33.333 -201 -80.333 -241 -141c-50 -102 -75 -187.667 -75 -257c0 -121.333 74 -238 222 -350c39.333 -27.333 83.333 -41 132 -41c104 0 224 81.333 360 244l3 -5c-17.333 -85.333 -43.666 -160.666 -78.999 -225.999c-30 -65.333 -73.333 -113.333 -130 -144
c-61.333 -24 -118 -36 -170 -36c-10 2 -17.333 3 -22 3l-5 -3c-84 0 -178.667 28.333 -284 85c-126.667 77.333 -214.334 181 -263.001 311c-16 57.333 -24 104.333 -24 141c0 114 43.333 236.667 130 368c3.33301 0.666992 7 8.33398 11 23.001
c-7.33301 25.333 -21 38 -41 38c-2 0 -4.66699 1 -8 3c-2 0 -3 -1 -3 -3l-13 3h-11c-29.333 0 -59 -3.33301 -89 -10l-3 5c56.667 88 146 152 268 192c80.667 19.333 199.667 29 357 29l32 2c2 0 3 -0.666992 3 -2l14 2h19c1.33301 0 2 -0.666992 2 -2l6 2l5 -2
c2 0 3 0.666992 3 2l19 -2h11c107.333 15.333 198.333 34 273 56z" />
    <glyph glyph-name="D" unicode="D" horiz-adv-x="1458" 
d="M801 1434c166.667 0 314.332 -59.335 442.999 -178.002c76 -89.333 114 -196 114 -320c0 -182.667 -76 -355.667 -228 -519c-98.667 -87.333 -173.334 -144.333 -224.001 -171c-146 -84 -271 -143.333 -375 -178c-124.667 -45.333 -200.667 -68 -228 -68h-9
c-30 0 -62 59.333 -96 178c-30.667 91.333 -46 188 -46 290c0 198 69.667 376 209 534l-6 3c-21.333 0 -83.666 -14.667 -186.999 -44c0 -3.33301 -9.33301 -5.66602 -28 -6.99902h-6c-19.333 0 -30.666 10.333 -33.999 31v5c0 60.667 40 138 120 232
c88.667 90.667 227 156.334 415 197.001c66.667 10 122 15 166 15zM191.998 1032l-0.000976562 -3.00195c90.667 21.333 148.334 32 173.001 32h27c43.333 -7.33301 65 -19.666 65 -36.999v-14c-121.333 -129.333 -193.333 -253.666 -216 -372.999
c-10 -48.667 -15 -85.334 -15 -110.001c0 -2 -1 -3 -3 -3c0 -1.33301 1 -2 3 -2l-3 -12v-76c0 -102 29.667 -224.667 89 -368h6c235.333 61.333 454 163 656 305c119.333 100 192 182 218 246c57.333 114.667 86 216.334 86 305.001v27c0 105.333 -35 198 -105 278
c-116 94 -235.667 141 -359 141h-34c-144 0 -286.667 -43 -428 -129c-88.667 -70.667 -140 -134 -154 -190c-3.33301 0 -5.33301 -5.66699 -6 -17zM791.997 1366l5.99902 -0.000976562c152.667 0 284 -55.333 394 -166c55.333 -79.333 83 -165.666 83 -258.999
c0 -124 -41 -251.667 -123 -383c-39.333 -62.667 -125.333 -142.334 -258 -239.001c-135.333 -82 -266.666 -146 -393.999 -192c-106.667 -37.333 -167.334 -56 -182.001 -56c-59.333 132 -89 259.667 -89 383c0 174.667 48.333 325 145 451
c0 2.66699 31.667 39.334 95 110.001v7c0 19.333 -24.667 34.666 -74 45.999c-2 0 -3 -0.666992 -3 -2c-10.667 1.33301 -16.667 2 -18 2c-21.333 0 -80 -10.667 -176 -32v5c36.667 92.667 99.334 164.334 188.001 215.001c130 73.333 265.333 110 406 110zM468.996 428.995
c4 -35.333 22.334 -52.999 55.001 -52.999h4c19.333 0 112.333 45.333 279 136c125.333 79.333 197.333 138.666 216 177.999c18 28.667 27 54.667 27 78c0 84 -51 185.667 -153 305c-39.333 48.667 -68 73 -86 73h-4c-32.667 0 -60.334 -31.667 -83.001 -95
c-80 -152.667 -154.667 -321 -224 -505c-12.667 -36 -23 -75 -31 -117zM806.997 1139c22.667 0 57.666 -31.667 104.999 -95c88 -106.667 132 -196 132 -268c0 -78 -68.667 -157 -206 -237c-131.333 -80.667 -231.666 -132.667 -300.999 -156h-16c-20.667 0 -35 12 -43 36v5
c0 84 95.333 315 286 693c16 14.667 30.333 22 43 22zM554.996 460.996h6c275.333 132.667 413 237.667 413 315c0 68 -52.333 162 -157 282h-3c-12 -10.667 -62.333 -113 -151 -307c-72 -169.333 -108 -266 -108 -290z" />
    <glyph glyph-name="E" unicode="E" horiz-adv-x="1247" 
d="M1221 1433c17.333 -2 25.9971 -9 25.9971 -21v-12c-9.33301 -10 -27.333 -35.667 -54 -77c-65.333 -78.667 -177.333 -136.667 -336 -174c-85.333 -12.667 -137.666 -21.334 -156.999 -26.001c-128.667 -47.333 -221.667 -128.333 -279 -243
c-5.33301 -12.667 -8 -21.334 -8 -26.001c0 -11.333 8.66699 -17 26 -17h8c75.333 0 219.666 54 432.999 162c21.333 14 41.333 31.333 60 52l13 2h5c15.333 0 24 -9.33301 26 -28v-2c0 -17.333 -31 -77.666 -93 -180.999c-88 -130.667 -207 -218.334 -357 -263.001
c-96 -42.667 -144 -84 -144 -124c0 -33.333 23.333 -57.666 70 -72.999l49 -4c101.333 0 251 50 449 150c32 17.333 63 40.666 93 69.999l13 2c18.667 -4.66699 28 -13 28 -25c0 -24 -25.667 -89 -77 -195c-30.667 -50 -69.667 -94.667 -117 -134
c-36.667 -30.667 -91.667 -54.667 -165 -72c-58 -16 -113 -24 -165 -24h-15c-45.333 0 -81.666 8 -108.999 24h-5c-5.33301 -15.333 -8 -29.666 -8 -42.999c0 -31.333 12 -59.333 36 -84c3.33301 -5.33301 5 -10 5 -14v-7c-3.33301 -17.333 -12.666 -26 -27.999 -26
c-53.333 0 -131.666 61.667 -234.999 185c-104.667 146.667 -157 273.334 -157 380.001v24c0 151.333 69.667 315.333 209 492c0 3.33301 -1.66699 5 -5 5c-40.667 0 -108.667 -18.667 -204 -56c-4 -8 -12.667 -12 -26 -12c-15.333 0 -24 9.33301 -26 28v7
c10 38 50.333 96 121 174c76.667 71.333 145.667 118 207 140c82 36 164.667 55.667 248 59c4.66699 0 7 -0.666992 7 -2c26 1.33301 45 2 57 2h106c54.667 0 159 -7 313 -21h10c42 0 90 9.33301 144 28h8zM647.997 1372l-18.001 -0.00390625
c-81.333 -1.33301 -168.333 -17.666 -261 -48.999c-115.333 -51.333 -203 -122.666 -263 -213.999h2c66 20.667 117.667 31 155 31c55.333 0 83 -13.333 83 -40c0 -5.33301 -23.333 -36.666 -70 -93.999c-110 -153.333 -165 -287 -165 -401v-7c0 -1.33301 -1 -2 -3 -2
c0 -2 1 -3 3 -3c0 -1.33301 -1 -3.66602 -3 -6.99902c0 -126.667 63 -265.667 189 -417c43.333 -46.667 69 -70 77 -70v2l-2 33c6 65.333 27.333 98 64 98h8c6.66699 0 28.334 -8.66699 65.001 -26c11.333 -1.33301 20.666 -2 27.999 -2h23c60.667 0 102 7 124 21
c64.667 7.33301 111.334 20 140.001 38c78 46.667 136.333 120.667 175 222h-2c-208.667 -106 -369 -159 -481 -159h-23c-80.667 0 -134 34.333 -160 103l-3 14v14c0 74 86.333 140.667 259 200c118 49.333 214.333 141.333 289 276h-5
c-200.667 -100 -346.334 -150 -437.001 -150c-60 10 -90 31.333 -90 64c46 126 125 220.333 237 283c67.333 39.333 133 59 197 59c84.667 16 153.334 34.667 206.001 56c49.333 20 99.333 53 150 99c0 2.66699 1.66699 5.66699 5 9v3c-29.333 -3.33301 -53.333 -5 -72 -5
l-292 21h-21l-15 2c-2 0 -3 -0.666992 -3 -2l-18 2h-41c-4 0 -7.33301 -0.666992 -10 -2c-2 0 -3 0.666992 -3 2zM670.996 1370l18.001 -3h44c54.667 0 159 -7 313 -21h69c3.33301 -0.666992 5 -2 5 -4v-3c-54 -56.667 -145 -100.334 -273 -131.001
c-57.333 -11.333 -93.666 -17 -108.999 -17v3c-63.333 -9.33301 -132 -39 -206 -89c-30.667 -22.667 -61 -50 -91 -82c-40.667 -45.333 -74 -101.666 -100 -168.999c-2 -10.667 -3 -19.334 -3 -26.001c2 -6.66699 14 -17 36 -31c5.33301 -8 27 -15 65 -21
c66 0 173.667 33 323 99c62 29.333 94.667 44 98 44c0 -1.33301 0.666992 -2 2 -2c-86.667 -144 -191.667 -233 -315 -267c-149.333 -58 -224 -125.333 -224 -202c1.33301 -2.66699 2 -5.66699 2 -9h-2c12 -41.333 36 -73.666 72 -96.999c32 -15.333 69 -23 111 -23
c115.333 0 274.666 51.667 477.999 155l2 -5c-22.667 -58 -58 -110.333 -106 -157c-56 -53.333 -125.667 -80 -209 -80c-5.33301 -10 -23.333 -17 -54 -21c-42 -1.33301 -68.667 -2 -80 -2c-21.333 0 -49 9.33301 -83 28l-15 2c-30 0 -51.667 -18.667 -65 -56
c-4.66699 -16.667 -7 -33 -7 -49v-17c0 -2.66699 -2 -4 -6 -4c-86 81.333 -151.333 170.333 -196 267c-32.667 62 -49 130.667 -49 206c0 155.333 78.333 323.666 235 504.999c0 0.666992 1 5.33398 3 14.001c0 26.667 -32 40 -96 40c-37.333 0 -83 -8.66699 -137 -26
c0 1.33301 -0.666992 2 -2 2c15.333 30 61.666 75.333 138.999 136c76.667 46.667 125 70 145 70c66 26.667 155.333 40 268 40v3z" />
    <glyph glyph-name="F" unicode="F" horiz-adv-x="1262" 
d="M1234 1437c14.667 0 24 -8.66211 28 -25.9951c0 -4.66699 -24.333 -37.667 -73 -99c-42 -44 -91 -81 -147 -111c-110.667 -54.667 -188 -82 -232 -82c-126.667 -34.667 -200 -61.667 -220 -81c-45.333 -34.667 -79 -96 -101 -184c6.66699 -4.66699 24 -7 52 -7h24
c140 0 271.333 49 394 147c30 13.333 78 47.666 144 102.999c18 30 36.333 45 55 45c26.667 0 40 -17.333 40 -52v-16c0 -95.333 -53 -194.333 -159 -297c-84 -66.667 -145 -106 -183 -118c-86 -33.333 -159.333 -50 -220 -50c-92 -48 -138 -133.667 -138 -257
c0 -62.667 11.333 -156.334 34 -281.001c12 -16.667 18 -31.334 18 -44.001c-5.33301 -20.667 -17.666 -31 -36.999 -31h-12c-40 0 -108.333 66.667 -205 200c-85.333 130.667 -128 255.667 -128 375v26l3 15c-4 9.33301 -6 21 -6 35c0 187.333 22.333 326.333 67 417
c-2 0 -3 1 -3 3c-50.667 -4.66699 -106.667 -20.334 -168 -47.001c-14.667 -2 -23.667 -3.66699 -27 -5c-18 0 -29.333 10.333 -34 31c52 127.333 141.667 223 269 287c80.667 34.667 148 52 202 52c7.33301 13.333 95.666 22.666 264.999 27.999h22
c37.333 0 90.333 -7 159 -21h24c89.333 0 173 12 251 36c0 4 14 7 42 9zM941 1338c-17.333 0 -71.332 5.33398 -161.999 16.001h-36c-141.333 0 -274 -16.333 -398 -49c-108.667 -44.667 -189 -113 -241 -205c80 17.333 144 26 192 26
c24.667 -4.66699 37 -13.334 37 -26.001v-7c0 -3.33301 -13.333 -22.333 -40 -57c-38.667 -96.667 -58 -210.667 -58 -342c0 -160 13.333 -263.667 40 -311c0 -24 39.667 -94.667 119 -212c29.333 -38 48.666 -59.333 57.999 -64v2c-16 122.667 -24 204.334 -24 245.001
c0 123.333 43.667 215.333 131 276c18 24 55.667 36 113 36c35.333 1.33301 87.333 16.333 156 45c123.333 52.667 216 139.667 278 261c10 31.333 15 50.333 15 57c-186.667 -130.667 -305.667 -199 -357 -205c-64.667 -20.667 -123.667 -31 -177 -31h-46
c-81.333 0 -122 16.667 -122 50c0 62 36.667 139 110 231c38 32 151 69.667 339 113c72 21.333 150.333 63.666 235 126.999l37 38c0 3.33301 -2 5 -6 5c-66.667 -12.667 -131 -19 -193 -19zM736.001 1352.01l-0.000976562 -2.00195l7 2c2 0 3 -0.666992 3 -2
c2 0 5 0.666992 9 2c16.667 0 70.667 -6.33301 162 -19h46c45.333 0 98 5.66699 158 17l3 -5c-61.333 -59.333 -118.333 -98 -171 -116c-49.333 -26.667 -111.333 -46.334 -186 -59.001c-171.333 -48 -257 -86.333 -257 -115c-30.667 -30 -56 -70 -76 -120
c-14 -37.333 -21 -68 -21 -92v-19c16.667 -25.333 63.334 -38 140.001 -38c4 1.33301 7 2 9 2v-2l6 2h34c61.333 0 136.666 17.333 225.999 52c31.333 8 124 65.333 278 172l6 -2c-24 -77.333 -77 -149.666 -159 -216.999c-90.667 -69.333 -177 -108.666 -259 -117.999
c-80 -6 -120 -14.667 -120 -26c-101.333 -62 -152 -161.667 -152 -299v-12c0 -38 7 -107.333 21 -208l-6 -2c-64 76.667 -112 152 -144 226c-34.667 62.667 -52 171.334 -52 326.001l3 5c-2 2.66699 -3 5.66699 -3 9v10c0 1.33301 1 2 3 2c0 1.33301 -1 2 -3 2
c2 8.66699 3 15 3 19c0 135.333 23.667 246.333 71 333c20 12.667 30 25 30 37v7c-8 14 -21 23.667 -39 29h-3c-43.333 0 -103.666 -8 -180.999 -24c-2 3.33301 -3 5.66602 -3 6.99902c20 38 67 84.333 141 139c72 41.333 124 62 156 62l100 16
c9.33301 2.66699 44 7.33398 104 14.001c2 0 3 -0.666992 3 -2c20 3.33301 49.667 5 89 5h3z" />
    <glyph glyph-name="G" unicode="G" horiz-adv-x="1243" 
d="M1121 1432c19.333 -4 28.999 -13.665 28.999 -28.998v-9c-8.66699 -60 -45.667 -143.333 -111 -250c-72.667 -70 -136.334 -118.667 -191.001 -146c-49.333 -31.333 -114 -55.333 -194 -72c-62.667 -21.333 -115.334 -71 -158.001 -149
c-43.333 -87.333 -65 -166.333 -65 -237v-5c0 -142.667 69.667 -236.334 209 -281.001c57.333 -14 99.333 -21 126 -21c56.667 0 94.667 16 114 48c11.333 21.333 17 42 17 62v22c0 2 -2.33301 4.33301 -7 7h-5c-101.333 0 -187.333 64 -258 192
c-1.33301 2 -2 6.66699 -2 14c4.66699 19.333 14.334 29 29.001 29h13c75.333 -20.667 144 -31 206 -31h17c124.667 0 224 46.333 298 139l17 5h5c24.667 0 37 -34.667 37 -104v-48c0 -182.667 -51.333 -307.334 -154 -374.001c-10 -19.333 -42 -48 -96 -86
c-114 -72 -229 -108 -345 -108c-114 -0 -228 38.333 -342 115c-137.333 104 -206 232 -206 384v24c0 69.333 17.333 155.666 52 258.999c20 70.667 40.667 123.334 62 158.001c1.33301 0 4.66602 5 9.99902 15v7c-82.667 -36 -135.667 -66.333 -159 -91
c-15.333 -34 -29.333 -51 -42 -51h-5c-14.667 2 -22 9.33301 -22 22v5c7.33301 51.333 47 135.333 119 252c32.667 50 81.334 101 146.001 153c75.333 64 220 96 434 96h25c22.667 0 52.334 -0.666992 89.001 -2l124 28c76.667 18 131.334 35.667 164.001 53
c6 3.33301 12.667 5 20 5zM820.999 1290c-37.333 2 -67.333 3 -90 3h-64c-86.667 0 -178.334 -11.333 -275.001 -34c-115.333 -46 -208.666 -142 -279.999 -288v-2h5c90.667 48 150 72 178 72c24.667 0 37 -9.66699 37 -29v-5c0 -13.333 -18 -38.666 -54 -75.999
c-27.333 -42.667 -50.666 -99.667 -69.999 -171l-30 -105c-11.333 -40.667 -17 -82.334 -17 -125.001h-2l2 -5c0 -2.66699 -0.666992 -4 -2 -4c0 -218 122.333 -367.667 367 -449c46 -11.333 88 -17 126 -17c122.667 0 241 43.333 355 130c8 2.66699 16 16 24 40
c36 17.333 66.667 40.666 92 69.999c44.667 71.333 67 157.666 67 258.999v70c0 2.66699 -1.66699 4 -5 4c-80.667 -71.333 -182.334 -107 -305.001 -107c-43.333 0 -99.333 5.33301 -168 16c24.667 -43.333 63.334 -76.666 116.001 -99.999c20 -6 54.667 -11 104 -15
c14.667 -8.66699 22 -23.667 22 -45v-20c0 -85.333 -35.333 -141.333 -106 -168c-22 -6 -46 -9.66699 -72 -11c-108 0 -205.667 32.667 -293 98c-72.667 66 -109 152.333 -109 259v9c0 105.333 39.667 216 119 332c45.333 55.333 100.666 91 165.999 107
c75.333 10 173 61.333 293 154c37.333 29.333 72 81.333 104 156c16.667 36.667 25 57.334 25 62.001h-3c-131.333 -36.667 -207.333 -55 -228 -55c0 -2.66699 -9.66699 -6 -29 -10zM1069 1348l1.99902 -4.99902c-38.667 -94 -72.667 -155.333 -102 -184
c-112 -92.667 -209.333 -148 -292 -166c-51.333 -10 -97.666 -30.667 -138.999 -62c-64.667 -67.333 -108.334 -134.666 -131.001 -201.999c-25.333 -64 -38 -121.667 -38 -173v-38c0 -70.667 23.333 -138.667 70 -204c44 -59.333 120 -102.333 228 -129
c39.333 -8 74 -12 104 -12h20c55.333 0 102.333 24 141 72c14 20.667 24 57.334 30 110.001c0 46.667 -9 70 -27 70c-2 2.66699 -3 5 -3 7h-49c-56 0 -108.333 31 -157 93c0.666992 3.33301 2.33398 5 5.00098 5c45.333 -9.33301 86 -14 122 -14h2c4 0 7.33301 -1 10 -3
c3.33301 2 6 3 8 3l15 -3l49 5v-2c67.333 9.33301 125.333 26.666 174 51.999c26.667 16.667 49.667 32.667 69 48c3.33301 0 5 -1.33301 5 -4v-56c0 -138 -36.333 -237.667 -109 -299c-41.333 -18.667 -62 -35.667 -62 -51c0 -9.33301 -12.333 -21.333 -37 -36
c-49.333 -37.333 -114 -68.333 -194 -93c-29.333 -6.66699 -68 -12.334 -116 -17.001c-2.66699 1.33301 -7 2 -13 2c-5.33301 0 -9.33301 -0.666992 -12 -2c-94.667 0 -196.334 36.667 -305.001 110c-114 86 -171 201.333 -171 346v2c0 64 14 137.667 42 221
c22.667 86 50 152.333 82 199c33.333 31.333 50 54.333 50 69v5c0 19.333 -12.667 30.666 -38 33.999h-5c-30.667 0 -86 -21 -166 -63h-2l-5 3c32 65.333 80.667 129.333 146 192c59.333 48.667 110.666 76.667 153.999 84c22.667 4.66699 73 11.667 151 21v-2
c4 1.33301 14.667 3 32 5v-3l5 3c56 1.33301 96.667 2 122 2l5 -2l5 2c6.66699 -1.33301 12.334 -2 17.001 -2c2 0 3 0.666992 3 2l12 -2h42c118.667 24 202.334 44.667 251.001 62z" />
    <glyph glyph-name="H" unicode="H" horiz-adv-x="1248" 
d="M651 1437c18 0 29 -8.66699 33 -26v-3c0 -8.66699 -21 -38 -63 -88c-96.667 -128 -145 -234.667 -145 -320c0 -58 23.667 -100.333 71 -127c55.333 -11.333 102.333 -17 141 -17h30c64 0 101 19.333 111 58c17.333 58 26 114.333 26 169v19c0 86 -14.333 169 -43 249v12
c8 11.333 19 17 33 17c38.667 0 79 -19.333 121 -58c188 -151.333 282 -357.666 282 -618.999c0 -236.667 -81.667 -419 -245 -547c-66.667 -42.667 -117 -64.334 -151 -65.001c-22.667 0 -36 11.333 -40 34l54 117c17.333 48 26 95 26 141c0 70 -19 136 -57 198
c-80 14.667 -147 22 -201 22h-37c-82 0 -130 -20 -144 -60c-13.333 -24 -20 -59 -20 -105v-7c0 -2 -1.33301 -3 -4 -3c0 -1.33301 1.33301 -2 4 -2l-4 -10c0 -137.333 33.667 -256 101 -356c6 0 11.667 -10.333 17 -31c0 -16 -13.333 -24.667 -40 -26
c-8 0 -28.333 10.333 -61 31c-295.333 137.333 -443 333.333 -443 588c1.33301 96.667 22.666 213.667 63.999 351c28 66.667 66 121 114 163v5h-3c-21.333 0 -68.333 -10.333 -141 -31h-3c-20 0 -31.333 10.333 -34 31c0 33.333 40.333 79.333 121 138
c82.667 57.333 221.334 105.333 416.001 144c56.667 9.33301 94.667 14 114 14zM117 1196v-8.00195c24.667 4.66699 54 8 88 10c53.333 0 80 -11 80 -33v-5c0 -14 -29 -48.333 -87 -103c-36 -42.667 -64 -106.334 -84 -191.001c-22 -105.333 -33 -191.333 -33 -258
c0 -196 107.333 -357.667 322 -485h6v2c-35.333 86.667 -53 172 -53 256v38c0 120 32.333 191 97 213c39.333 17.333 92 26 158 26h13c190 -10 285 -26 285 -48c38 -82 57 -151.333 57 -208v-48c0 -41.333 -14.333 -98.666 -43 -171.999h3
c163.333 102.667 245 285.334 245 548.001v2c0 206 -77.333 383 -232 531c-1.33301 0 -8 4.66699 -20 14h-6c8.66699 -42 15.334 -81 20.001 -117h-4l4 -5v-43c0 -112.667 -17 -197 -51 -253c-34.667 -38.667 -91.667 -58 -171 -58h-27
c-68.667 0 -132.334 10.333 -191.001 31c-62.667 44 -94 98.333 -94 163c2.66699 2.66699 4 5.66699 4 9s-1.33301 5 -4 5c0 86 53.667 201.667 161 347c4.66699 0 7 4 7 12v2c-39.333 0 -134.333 -24.667 -285 -74c-59.333 -23.333 -114.333 -56.666 -165 -99.999z
M547 1361c2 -3.33301 3.00098 -6 3.00098 -8c-104.667 -139.333 -157 -255.666 -157 -348.999c0 -84 36.667 -145.333 110 -184c74 -17.333 140 -26 198 -26c106 0 173 28 201 84c24.667 62.667 37 134.334 37 215.001v45c0 31.333 -4.33301 70.333 -13 117l7 3
c66.667 -63.333 112.334 -120 137.001 -170c36.667 -61.333 63.667 -137 81 -227l3 -10h-3l3 -4c0 -12.667 3.33301 -42.334 10 -89.001c-2 -2.66699 -3 -5 -3 -7c2 -2.66699 3 -5.66699 3 -9h-3l3 -5v-43c0 -2 -1 -3 -3 -3l3 -4l-3 -5c0 -3.33301 1 -5 3 -5l-3 -17v-19
c0 -1.33301 -1.33301 -2 -4 -2l4 -5v-2c0 -2 -1.33301 -3 -4 -3c0 -1.33301 1.33301 -2 4 -2c-13.333 -98 -34.666 -179.333 -63.999 -244c-44 -82.667 -95.333 -143.334 -154 -182.001c0 2 -1.33301 3 -4 3c24.667 64 37 123.667 37 179v5c0 61.333 -16.667 129 -50 203v17
c-6.66699 12.667 -22.334 22 -47.001 28c-114 19.333 -202.333 29 -265 29c-111.333 0 -186.333 -24.667 -225 -74c-26.667 -26 -40 -75.333 -40 -148h-3c0 -2 1 -3 3 -3l-3 -12c0 -115.333 16.667 -211.666 50 -288.999l-7 -2c-98.667 64 -162.334 119.667 -191.001 167
c-60.667 78.667 -95.334 156.667 -104.001 234h3c-4 8.66699 -7.33301 30.334 -10 65.001h4l-4 5c0 1.33301 1.33301 2 4 2c0 2 -1.33301 4.33301 -4 7c2 106 25.667 227.333 71 364c18 41.333 58 90.666 120 147.999c11.333 15.333 17 25.666 17 30.999v9
c0 22.667 -34.667 34 -104 34c-10 0 -27.667 -1.66699 -53 -5l-4 5c65.333 50 140.333 88.333 225 115c76 20.667 138.667 35 188 43z" />
    <glyph glyph-name="I" unicode="I" horiz-adv-x="657" 
d="M636 1436c12.667 0 19.666 -9.33203 20.999 -27.999v-5c-14.667 -67.333 -43.334 -122.666 -86.001 -165.999c-22 -26.667 -56.667 -55.334 -104 -86.001c-57.333 -63.333 -99.666 -163 -126.999 -299c-6.66699 -18 -10 -100.333 -10 -247c0 -88 24.333 -171.667 73 -251
c9.33301 -12.667 15.333 -19 18 -19c46 14 84.333 29 115 45h4c20.667 0 31 -12.667 31 -38c-4 -48.667 -40 -116 -108 -202c-52 -52.667 -133.333 -95.334 -244 -128.001c-37.333 -8 -67.333 -12 -90 -12v2c-1.33301 0 -2 -0.666992 -2 -2
c-77.333 8.66699 -119.666 30 -126.999 64v7c4 33.333 15 50 33 50c58.667 0 95 38 109 114v14c-62.667 170.667 -94 332 -94 484v5c0 140.667 32.667 269 98 385h-4c-6 0 -31 -13.667 -75 -41c-8.66699 0 -20 -4 -34 -12h-4c-12.667 2 -19 9.33301 -19 22v7
c11.333 52.667 46.333 116.667 105 192c72.667 78 148.334 117 227.001 117h31c21.333 0 57.666 -7.33301 108.999 -22c6 0 15 -0.666992 27 -2c16.667 0 57.667 17.333 123 52h4zM87.999 1158c40.667 19.333 76.668 34.335 108.001 45.002h8
c18.667 -2.66699 28 -11.334 28 -26.001v-9c0 -6.66699 -18.333 -36.667 -55 -90c-54 -103.333 -81 -215 -81 -335v-14c0 -144.667 30.667 -299 92 -463c1.33301 -6 2 -12.333 2 -19v-3c0 -64 -26.333 -116 -79 -156c-26.667 -10.667 -40.667 -17 -42 -19v-3
c22.667 -7.33301 46.334 -11 71.001 -11c2.66699 1.33301 4.66699 2 6 2v-2l4 2h2c54 0 126.333 25.333 217 76c52.667 27.333 99.334 84.333 140.001 171c-2.66699 1.33301 -4.66699 2 -6 2c-16.667 -6.66699 -43.334 -14.667 -80.001 -24c0 -2.66699 -3.33301 -4 -10 -4
c-23.333 0 -53.333 41 -90 123c-27.333 63.333 -41 145.666 -41 246.999c0 40 1.33301 75.667 4 107c-1.33301 10.667 -2 20 -2 28c8 120 42 234.667 102 344c39.333 54.667 67.666 85 84.999 91c58 40 96.333 83.333 115 130v3h-2c-30.667 -12.667 -56.334 -19 -77.001 -19
h-15c-66 14 -105 21 -117 21h-39c-86 0 -166 -57.667 -240 -173c-5.33301 -12.667 -8 -20 -8 -22zM346 1348l13.0049 -0.00292969c21.333 0 67.666 -8 138.999 -24c16.667 0 42 5 76 15c0 -2 0.666992 -3 2 -3c-29.333 -52.667 -70.333 -93.667 -123 -123
c-46 -43.333 -75.333 -83 -88 -119c-25.333 -44 -47 -101.667 -65 -173c-14 -62 -21 -102.333 -21 -121v-67c0 -3.33301 -0.666992 -6.33301 -2 -9c0 -1.33301 0.666992 -2 2 -2l-4 -60l2 -5c0 -1.33301 -0.666992 -3.66602 -2 -6.99902c0 -166.667 41.667 -293 125 -379
c10.667 -2 16.334 -3 17.001 -3c5.33301 7.33301 31.666 17 78.999 29c0 -2 0.666992 -3 2 -3c-12.667 -36 -43.667 -80.333 -93 -133c-58.667 -38 -116.334 -66.333 -173.001 -85c-38 -9.33301 -72.333 -14 -103 -14c-27.333 0 -41 3 -41 9
c33.333 12.667 60.333 37.334 81 74.001c18 40 27 74.667 27 104c0 6 -14.667 52 -44 138c-34.667 118 -52 239.667 -52 365l2 10c0 1.33301 -0.666992 2 -2 2c1.33301 60 14.666 133 39.999 219c19.333 56.667 50.666 112.667 93.999 168c4 10.667 6 19.334 6 26.001
c0 18.667 -11.333 30 -34 34h-2c-8 0 -41.333 -12.667 -100 -38l-2 4c69.333 114 150.666 171 243.999 171z" />
    <glyph glyph-name="J" unicode="J" horiz-adv-x="1257" 
d="M1210 1437c31.333 -1.33301 47.0039 -10.668 47.0039 -28.001c-36.667 -107.333 -72 -176.666 -106 -207.999c-39.333 -48 -60 -87.667 -62 -119v-7c0 -86 17.667 -181.333 53 -286c18.667 -18 28 -69 28 -153v-21c0 -203.333 -40.667 -346 -122 -428
c-50.667 -74.667 -124.334 -128.334 -221.001 -161.001c-68.667 -17.333 -144.667 -26 -228 -26v2c-2 0 -3 -0.666992 -3 -2l-19 2c-220.667 0 -385 70.333 -493 211c-56 86 -84 171 -84 255c0 130 68.667 221.333 206 274l19 2h15c25.333 -3.33301 38 -12.666 38 -27.999
v-7c-16.667 -67.333 -25 -106 -25 -116v-33c0 -83.333 78 -137.666 234 -162.999h12c112.667 0 190.667 57.667 234 173c6 18 10 34.333 12 49c0 279.333 -21.667 433.666 -65 462.999c-20 28.667 -53.333 43 -100 43h-25c-2 0 -3 0.666992 -3 2
c-36.667 0 -88.667 -16.333 -156 -49c-14.667 -6.66699 -31.334 -10 -50.001 -10c-40 0 -66 13.333 -78 40v3c8 58 51.667 121.667 131 191c96.667 66.667 210 100 340 100h22c48.667 0 97.667 -3.33301 147 -10c119.333 0 210.666 14.333 273.999 43
c11.333 1.33301 20.666 2 27.999 2zM979.004 1338c-14 1.33301 -25.335 2 -34.002 2c-26 -1.33301 -39.333 -2 -40 -2c-37.333 4.66699 -84.333 8.66699 -141 12c-214 0 -353.333 -74.333 -418 -223v-2c4 -1.33301 7.33301 -2 10 -2c80 37.333 137 56 171 56
c4.66699 0 16 1 34 3c106 0 175.667 -39.333 209 -118c29.333 -64 44 -158.667 44 -284c-2 -2.66699 -3 -6 -3 -10c2 -6 3 -11.333 3 -16h-3l3 -5v-30c0 -30 1 -63.333 3 -100c0 -42 -24 -98 -72 -168c-66 -72 -145 -108 -237 -108c-108.667 0 -202 35.333 -280 106
c-31.333 38 -47 76 -47 114v16c0 15.333 4 46 12 92h-6c-76.667 -46.667 -115 -112.667 -115 -198c0 -155.333 74.667 -275.333 224 -360c87.333 -39.333 196.666 -59 327.999 -59c170.667 0 291.334 53 362.001 159c43.333 45.333 73.333 103.666 90 174.999
c10.667 59.333 16 101 16 125h3c0 1.33301 -1 2 -3 2c0 2 1 4.33301 3 7c2 54.667 3 97.334 3 128.001v19c0 51.333 -13.667 100 -41 146c-26.667 106.667 -40 195.667 -40 267v3c0 42.667 36.333 105.667 109 189c16.667 34 30.334 64.667 41.001 92h-4
c-85.333 -18.667 -146.666 -28 -183.999 -28zM1154 1357l-0.00390625 -2.99902c-24.667 -61.333 -50.667 -104.666 -78 -129.999c-46 -58 -69 -106.667 -69 -146c2 -77.333 17.667 -169.666 47 -276.999c12.667 -20.667 24.334 -48 35.001 -82v-45l3 -17h-3
c0 -1.33301 1 -2 3 -2l-3 -29c0 -21.333 -1.33301 -59.666 -4 -114.999c-2 -3.33301 -3 -6 -3 -8c0 -1.33301 1 -2 3 -2c-18 -124.667 -32.333 -187 -43 -187c-12 -40.667 -54.667 -97.334 -128 -170.001c-50.667 -39.333 -111 -64.333 -181 -75l-37 -5v2
c-9.33301 -3.33301 -26 -5 -50 -5h-75c-2 0 -3 1 -3 3c-2 0 -3 -1 -3 -3c-130 12 -208 28 -234 48c-91.333 31.333 -162 96 -212 194c-14.667 32.667 -24.334 58.667 -29.001 78h4c-4.66699 5.33301 -9 25.666 -13 60.999h3l-3 5v16c0 90.667 33.333 156 100 196
c0 -1.33301 1 -2 3 -2c-8 -31.333 -12 -61.333 -12 -90c0 -92 65.333 -161.333 196 -208c58.667 -15.333 105.334 -23 140.001 -23c4 1.33301 8.33301 2 13 2v-2c48 2.66699 98 16.667 150 42c64 48 102.333 88.333 115 121c18.667 31.333 32.334 74.666 41.001 129.999
c-4 32.667 -7.33301 122.334 -10 269.001c-13.333 107.333 -32 172.666 -56 195.999c-33.333 61.333 -98.666 92 -195.999 92h-16c-56.667 0 -118 -18 -184 -54c-4 0 -6 0.666992 -6 2c4.66699 34.667 41 79 109 133c72.667 50 171.334 75 296.001 75h13
c4.66699 0 8.66699 -0.666992 12 -2l6 2c48 -2.66699 84.667 -6.33398 110 -11.001c92 0 175 8.66699 249 26z" />
    <glyph glyph-name="K" unicode="K" horiz-adv-x="1253" 
d="M392 1435l54.0029 0.00195312c39.333 0 59 -10.333 59 -31v-11c0 -3.33301 -24 -51.333 -72 -144c-39.333 -93.333 -59 -164.666 -59 -213.999c0 -24.667 7.66699 -42 23 -52h10c72 18 182 117.667 330 299c32 47.333 52.667 71.666 62 72.999c1.33301 0 5 0.666992 11 2
c22 0 33 -17 33 -51c0 -98.667 -37 -212.334 -111 -341.001c-23.333 -43.333 -74 -100 -152 -170c-20 -12 -32 -22 -36 -30c0 -28.667 22.333 -65.667 67 -111c108 -83.333 223.333 -125 346 -125c86.667 0 169 24.333 247 73c3.33301 2 6.66602 3 9.99902 3h11
c14 0 23.333 -9.66699 28 -29c-22 -69.333 -66.667 -128 -134 -176c-63.333 -42.667 -125.333 -64 -186 -64c-102 8 -169 16.667 -201 26c-118.667 33.333 -220 79 -304 137c0 -2 -1 -3 -3 -3c13.333 -67.333 37.666 -143.333 72.999 -228l98 -190
c3.33301 -11.333 5 -21 5 -29v-11c0 -19.333 -15.667 -32 -47 -38c-60 7.33301 -140.667 71 -242 191c-156.667 211.333 -235 430 -235 656c0 86.667 11.333 176 34 268l-5 2c-10 -5.33301 -32.333 -23.333 -67 -54h-18c-14 9.33301 -21 19.666 -21 30.999
c0 68.667 29.333 141.667 88 219c77.333 81.333 178.666 122 303.999 122zM394.003 1381c-164 0 -270.334 -69.668 -319.001 -209.001v-5c4 0 28 7 72 21h10c15.333 0 24 -9.33301 26 -28c-30.667 -110.667 -46 -211 -46 -301c0 -266.667 98.667 -506 296 -718
c50.667 -48 85 -73.667 103 -77v2c-70 134.667 -105 207.667 -105 219c-50 122 -75 220.667 -75 296c0 12.667 9.33301 20.667 28 24h3c12 0 32.667 -17.333 62 -52c82.667 -65.333 197 -114 343 -146c7.33301 0 46 -5.33301 116 -16h12
c93.333 0 170.666 39.667 231.999 119v3c-68.667 -25.333 -136.334 -38 -203.001 -38c-118.667 0 -239 41.667 -361 125c-68.667 55.333 -103 116.333 -103 183c0 11.333 17 28 51 50c84.667 71.333 139.667 136.333 165 195c28 47.333 50.333 103 67 167
c0 0.666992 1.66699 12.334 5 35.001v3c-5.33301 -2.66699 -20.666 -20.667 -45.999 -54c-149.333 -166.667 -256.666 -250 -321.999 -250h-13c-32 0 -55.333 22 -70 66c-3.33301 4.66699 -5.66602 22.667 -6.99902 54h2c0 2 -0.666992 3 -2 3
c0 61.333 39.333 170.333 118 327v2h-28c-2 0 -3 0.666992 -3 2c-3.33301 -1.33301 -6 -2 -8 -2zM423.002 1376l1.99805 -4.99805c-77.333 -140.667 -116 -252 -116 -334v-7l3 -11h-3c0 -24.667 14 -52.334 42 -83.001c20.667 -9.33301 35 -14 43 -14h19
c29.333 2 79 29.667 149 83c0 2.66699 11.333 12.667 34 30c55.333 52 108.333 108.333 159 169h3c2 -2.66699 3 -5 3 -7c0 -29.333 -26.667 -95 -80 -197c-29.333 -44.667 -63.666 -86.334 -102.999 -125.001c-34 -29.333 -64.333 -52.666 -91 -69.999
c-6.66699 -10.667 -10 -17 -10 -19c0 -117.333 95.333 -211.666 286 -282.999c64 -22 123.333 -33 178 -33h44c32.667 0 80.667 9.66699 144 29l3 -5c-56 -64 -126.667 -96 -212 -96h-25c-2 0 -3 0.666992 -3 2c-2 0 -3 -0.666992 -3 -2c-31.333 4.66699 -57 10 -77 16
l-15 -2c-37.333 0 -119 27.333 -245 82c-35.333 14 -81 47.667 -137 101c0 8.66699 -10.333 14.334 -31 17.001h-2c-16 0 -27.333 -11 -34 -33c15.333 -121.333 41 -221 77 -299c0 -8 32 -74 96 -198c-2 0 -3 -0.666992 -3 -2c-51.333 34 -98.666 78.667 -141.999 134
c-106 123.333 -179 281.666 -219 474.999c-4.66699 28.667 -9.66699 72 -15 130c1.33301 2.66699 2 5 2 7c0 0.666992 -0.666992 5.33398 -2 14.001c1.33301 3.33301 2 5.66602 2 6.99902s-0.666992 2 -2 2l2 12v12l-2 12h2c0 1.33301 -0.666992 2 -2 2
c0 57.333 16.333 150.666 49 279.999c0 17.333 -13.667 27.333 -41 30c-35.333 -14 -56 -21 -62 -21c-2 3.33301 -3 5.66602 -3 6.99902c25.333 67.333 68.333 118.333 129 153c57.333 26.667 125.333 40 204 40h5z" />
    <glyph glyph-name="L" unicode="L" horiz-adv-x="1250" 
d="M531 1436c32.667 -9.33301 49.001 -35.3311 49.001 -77.998c0 -54.667 -45.667 -161 -137 -319c-36.667 -81.333 -55 -167.666 -55 -258.999v-16c0 -118.667 27.667 -223.334 83 -314.001c75.333 -34 152 -51 230 -51h34c117.333 0 225 48 323 144
c26 27.333 55.333 65.666 88 114.999c14 9.33301 26.333 14 37 14h2c36 0 57.667 -24 65 -72v-14c0 -63.333 -51.667 -169.333 -155 -318c-63.333 -86 -175.666 -129 -336.999 -129h-62c-42.667 0 -126.334 4.33301 -251.001 13v-2c0 -32 11.333 -66 34 -102v-16
c0 -17.333 -14.667 -28 -44 -32h-11c-70 0 -141.333 49.333 -214 148c-79.333 126.667 -119 289.667 -119 489c0 99.333 10.333 223.333 31 372h-3c-13.333 -5.33301 -35 -18.333 -65 -39c-10 -8 -18.667 -12 -26 -12h-2c-14 0 -22.667 8.33301 -26 25
c0 77.333 38 167.666 114 270.999c69.333 70 129.666 113 180.999 129c85.333 35.333 164 53 236 53zM72.001 1050l5.99707 0.00292969c40 24.667 65 37 75 37h7c16 0 25.667 -9 29 -27c-24 -168.667 -36 -286.667 -36 -354h-3c0 -1.33301 1 -2 3 -2
c-2 -8.66699 -3 -14.667 -3 -18c0 -328.667 74.333 -534.334 223 -617.001c12.667 -7.33301 23.667 -11 33 -11c-15.333 41.333 -23 76 -23 104c0 32 10.333 48 31 48c108.667 -10.667 180.334 -16 215.001 -16c1.33301 0 2 -0.666992 2 -2c2 0 3 0.666992 3 2l13 -2h49
c2 0 3 -1 3 -3c1.33301 0 2 1 2 3c7.33301 0 17 -1 29 -3c130.667 0 220.334 21 269.001 63c36 25.333 83.333 91.333 142 198c34.667 67.333 52 113.666 52 138.999c-2 3.33301 -3.66699 10 -5 20h-3c-33.333 -46.667 -69.333 -88.667 -108 -126
c-99.333 -91.333 -222.666 -137 -369.999 -137c-90.667 0 -179.667 19.333 -267 58c-32 29.333 -59.667 82.333 -83 159c-18.667 73.333 -28 142 -28 206v14c0 132 38.667 259 116 381c48.667 88 73 150.333 73 187v25c0 1.33301 -2.66699 3.66602 -8 6.99902
c-42 0 -107.667 -16.333 -197 -49c-42 -18 -90.333 -52.333 -145 -103c-54 -70 -86 -130.333 -96 -181zM509.998 1376l1.99805 -4.99805v-16c0 -47.333 -41.333 -141 -124 -281c-43.333 -94 -65 -187.333 -65 -280h-2c0 -1.33301 0.666992 -2 2 -2
c0 -3.33301 -0.666992 -5 -2 -5c0 -143.333 31 -265 93 -365c12.667 -20 51.667 -39 117 -57c72.667 -17.333 133 -26 181 -26l5 3l5 -3c9.33301 2 16.333 3 21 3v-3l5 3h3c77.333 0 163.333 26.667 258 80c75.333 56 124.666 103 147.999 141
c14.667 20 23.334 30 26.001 30c1.33301 -2.66699 2 -5 2 -7c0 -47.333 -48.333 -143.333 -145 -288c-48.667 -48 -90 -75.667 -124 -83c-46 -12.667 -105.333 -19 -178 -19c-90 0 -193.667 6.33301 -311 19c0 1.33301 -6 2.66602 -18 3.99902
c-20.667 -7.33301 -31 -21 -31 -41v-16c0 -22 5 -53 15 -93c-1.33301 0 -2 -0.666992 -2 -2c-60.667 25.333 -110.667 77.666 -150 156.999c-43.333 84.667 -67.666 171 -72.999 259c-1.33301 0 -4.66602 26.667 -9.99902 80h2l-2 5v9c0 1.33301 0.666992 2 2 2l-2 5v76
c0 111.333 13 243.666 39 396.999v5c0 16.667 -12.333 28.334 -37 35.001c-9.33301 0 -34.333 -11.667 -75 -35l-2 5c17.333 60.667 56 123 116 187c88 68.667 176 107.667 264 117c22 3.33301 37.667 5 47 5z" />
    <glyph glyph-name="M" unicode="M" horiz-adv-x="1251" 
d="M970 1438l6.99805 0.00390625c95.333 0 174 -135.667 236 -407c22 -104.667 33 -198 33 -280v-8l3 -13h-3c2 -3.33301 3 -5.66602 3 -6.99902c0 -333.333 -93 -559.333 -279 -678l-16 -2h-8c-16 0 -26.333 11 -31 33c50 158 75 300.333 75 427c0 110 -25 204.333 -75 283
h-5c-44.667 -36.667 -81.667 -78 -111 -124l-90 -164c-8.66699 -5.33301 -15.667 -8 -21 -8h-10c-26 0 -51 33 -75 99c-35.333 67.333 -68.333 118.666 -99 153.999h-5c-7.33301 0 -21 -40.333 -41 -121c-14 -52.667 -21 -109.334 -21 -170.001v-32
c0 -126.667 38 -244.667 114 -354c3.33301 -17.333 5 -28.333 5 -33c-5.33301 -22 -16.666 -33 -33.999 -33h-10c-53.333 13.333 -125 86.666 -215 219.999c-112 178 -168 354 -168 528v30c0 66 12 141 36 225h-5c-19.333 -12.667 -50.333 -40.334 -93 -83.001l-36 -20h-5
c-14 0 -22.667 10 -26 30c8.66699 87.333 51.667 184.333 129 291c82 94.667 161.333 152.667 238 174c17.333 0 64 -43 140 -129c89.333 -92.667 148 -163.334 176 -212.001h2c54.667 126 98 216 130 270c52.667 76 104.334 114 155.001 114zM682.998 976.004
l-8.00098 0.000976562c-15.333 0 -35.333 25 -60 75c-33.333 50.667 -108.333 135 -225 253c-15.333 13.333 -23 21.666 -23 24.999h-15c-125.333 -66 -214.333 -167 -267 -303l6 -2c53.333 43.333 95.333 65 126 65h3c17.333 -3.33301 26 -11.666 26 -24.999
c0 -6.66699 -11.333 -45.334 -34 -116.001c-17.333 -66 -26 -134.333 -26 -205c0 -119.333 37 -255.666 111 -408.999c38 -70 84.667 -137.667 140 -203l8 -5v3c-44.667 91.333 -67 188.333 -67 291v22c0 131.333 26.667 248.666 80 351.999c13.333 11.333 26 17 38 17
c42.667 0 102.334 -79 179.001 -237l5 -3h3c44.667 97.333 100.667 178.333 168 243c31.333 26.667 55.333 40 72 40c28.667 0 62.334 -55.667 101.001 -167c15.333 -56 23 -116.667 23 -182v-30c0 -95.333 -16.333 -204.666 -49 -327.999v-5
c71.333 57.333 125.666 156.666 162.999 297.999c19.333 88 29 174 29 258c0 220.667 -42.333 421 -127 601c-33.333 54 -62 81 -86 81h-5c-63.333 0 -137.333 -110.333 -222 -331c-22 -48.667 -44.333 -73 -67 -73zM971.997 1375c54 0 108.334 -97.667 163.001 -293
c31.333 -124.667 47 -242.667 47 -354v-23c0 -120 -11.333 -213.333 -34 -280l3 -5c-38 -122.667 -84.667 -208.667 -140 -258c0 1.33301 -0.666992 2 -2 2c20.667 73.333 36 165.333 46 276l-3 5l3 30l-3 5c2 3.33301 3 6.66602 3 9.99902v8l-3 13h3l-3 5v17c0 2 1 3 3 3
l-3 5v2c0 68.667 -18 146.334 -54 233.001c-30.667 57.333 -54.667 86 -72 86c-42.667 -7.33301 -89.334 -43.666 -140.001 -108.999c-42.667 -56.667 -73.667 -107.334 -93 -152.001c-6.66699 -11.333 -11 -17 -13 -17c-4 2 -22 34.667 -54 98
c-53.333 91.333 -95.666 137 -126.999 137c-42 0 -74 -50.667 -96 -152c-10 -20 -21 -82.333 -33 -187c0 -1.33301 0.666992 -2 2 -2c-1.33301 -17.333 -2 -30 -2 -38v-26l2 -17h-2c1.33301 -3.33301 2 -6 2 -8c0 -54.667 14 -123.667 42 -207v-3
c0 -3.33301 -1.66699 -5 -5 -5c-143.333 194 -215 383.667 -215 569v13c0 101.333 19.667 201.333 59 300v13c0 14.667 -11 24.667 -33 30c-24.667 0 -62.667 -18.333 -114 -55c-3.33301 0 -5 1.66699 -5 5c61.333 132.667 146.666 223.667 255.999 273h5
c126 -124.667 198.333 -203 217 -235c20.667 -22.667 45 -59.667 73 -111c12 -5.33301 22.333 -8 31 -8c32 0 63.667 46.333 95 139c58 131.333 105.667 213 143 245c22.667 15.333 39.667 23 51 23z" />
    <glyph glyph-name="N" unicode="N" horiz-adv-x="1250" 
d="M411 1434h6c33.333 0 78.666 -15.333 135.999 -46c13.333 0 63.333 -80.667 150 -242c88.667 -154.667 158.667 -293.667 210 -417c24 -65.333 40.667 -117.333 50 -156c9.33301 0 14.333 46.333 15 139c0 190.667 -44.333 402.667 -133 636
c0 18.667 14.667 29.667 44 33h3c35.333 0 96.666 -53.333 183.999 -160c116 -156.667 174 -356 174 -598v-14c0 -12.667 -1 -27.667 -3 -45c2 -2 3 -7.66699 3 -17c-35.333 -114 -53 -218.667 -53 -314c0 -50.667 13.667 -98.667 41 -144v-5c0 -23.333 -16.667 -36 -50 -38
c-60 0 -173.333 58.333 -340 175c-142 117.333 -227.667 201 -257 251c-53.333 65.333 -102.666 147 -147.999 245c-50.667 -24.667 -91 -82.334 -121 -173.001c-8 -28 -14 -70.333 -18 -127c0 -98.667 27.667 -228 83 -388v-3c0 -12 -10.667 -20.667 -32 -26
c-34 2.66699 -90.333 56.334 -169 161.001c-102 146 -153 292 -153 438v39c0 138.667 46 293 138 463v2h-3c-45.333 0 -84.666 -20.667 -117.999 -62l-15 -3h-14c-14 7.33301 -21 16.333 -21 27c-0 20.667 44.333 90 133 208c93.333 107.333 186 161 278 161zM127 1153
c39.333 6.66699 76.668 9.99805 112.001 9.99805c20 -5.33301 30 -15.666 30 -30.999c-112.667 -174.667 -169 -338.667 -169 -492v-9c0 -4 -0.666992 -7.33301 -2 -10c1.33301 -2.66699 2 -6 2 -10v-16c0 -146.667 57.333 -294.667 172 -444h6c-26 100.667 -39 187 -39 259
v26c0 120.667 41.333 220 124 298c42 35.333 75.667 53 101 53c22 0 40.667 -26.667 56 -80c35.333 -73.333 81.666 -147.666 138.999 -222.999c54.667 -66 130.667 -138.667 228 -218c124 -88 211.667 -139 263 -153c0 1.33301 0.666992 2 2 2
c-13.333 33.333 -20 63 -20 89v19l-3 12h3l-3 5v21c0 2 1 3 3 3c0 1.33301 -1 2 -3 2l3 12c0 52.667 15.667 145.334 47 278.001c2 15.333 3 29.666 3 42.999v53c0 252 -77.667 458.333 -233 619l-6 2c60.667 -193.333 91 -328.333 91 -405c2 0 5 -17.667 9 -53h-3l3 -4
c0 -14 1 -51 3 -111c0 -112.667 -16.667 -199.667 -50 -261c-16 -12.667 -29 -19 -39 -19c-35.333 0 -53 28 -53 84c0 122.667 -128 400 -384 832c-39.333 28.667 -76.666 43 -111.999 43c-86.667 0 -180.334 -73.667 -281.001 -221v-5zM414.002 1374
c40 0 78.3281 -20.666 114.995 -61.999c104.667 -178.667 191.334 -339.334 260.001 -482.001c74.667 -154.667 112 -282 112 -382c12.667 -18 26.667 -30 42 -36h9c50.667 0 83 63.333 97 190c0 1.33301 -1 2 -3 2c4 19.333 6 45.666 6 78.999v72c0 35.333 -2 61 -6 77h3
l-3 5v2c0 60 -23.667 179.333 -71 358c-2 0 -7 15 -15 45l6 3c56.667 -63.333 106 -143.333 148 -240c22 -62 39.667 -134 53 -216c0 -5.33301 3 -36.666 9 -93.999h-3l3 -4v-20c0 -1.33301 -1 -2 -3 -2l3 -5v-2c0 -2 -1 -3 -3 -3l3 -4v-51c0 -1.33301 -1 -2 -3 -2
c0 -2 1 -3 3 -3l-3 -11v-12c0 -10.667 -12.667 -76.334 -38 -197.001c-8 -51.333 -12 -97 -12 -137v-2c0 -37.333 5 -75 15 -113c-2 0 -3 -0.666992 -3 -2c-70 26.667 -160.667 82.667 -272 168c-118 102.667 -196 184 -234 244c-39.333 48.667 -76.666 115 -111.999 199
c-12 38.667 -29.667 58 -53 58h-3c-29.333 0 -70.666 -25.667 -123.999 -77c-69.333 -80 -104 -168 -104 -264v-7c0 -1.33301 -1 -2 -3 -2c2 -3.33301 3 -6 3 -8c0 -4.66699 -1 -19.667 -3 -45l3 -12h-3l3 -5v-7c0 -38 10 -98.667 30 -182l-6 -3
c-68.667 88 -114 188.667 -136 302c-4 10 -9 40.667 -15 92h3l-3 4v55c0.666992 40 2.66699 60 6 60c0 2 -1 3 -3 3c24.667 150 63.334 265 116.001 345c17.333 38 35 66 53 84c2 2.66699 3 6.66699 3 12c-11.333 20.667 -25.333 31 -42 31h-6l-14 -2v2
c-15.333 -3.33301 -41 -5.66602 -77 -6.99902l-3 5c98.667 137.333 190.334 206 275.001 206z" />
    <glyph glyph-name="O" unicode="O" horiz-adv-x="1264" 
d="M725 1432c236.667 0 404.002 -148.001 502.002 -444.001c26.667 -98.667 40 -200.334 40 -305.001h-3c0 -2 1 -3 3 -3l-3 -16c0 -131.333 -37 -263.333 -111 -396c-118.667 -178.667 -279 -268 -481 -268c-92.667 16.667 -164.334 36.334 -215.001 59.001
c-221.333 103.333 -332 277.333 -332 522c0 100.667 20.333 214 61 340l-5 2c-47.333 -22 -82 -55.667 -104 -101c-20.667 -7.33301 -39.334 -11 -56.001 -11c-14 6.66699 -21 17.334 -21 32.001c22.667 122.667 83 243 181 361c142 152 323.333 228 544 228z
M98.002 944.999c69.333 42.667 112.668 64 130.001 64c23.333 0 35 -13.333 35 -40l-53 -187c-16 -71.333 -24 -137.333 -24 -198c0 -250 121.333 -414.333 364 -493c33.333 -10.667 76.666 -20.334 129.999 -29.001c116.667 0 224.667 40 324 120
c65.333 64.667 113 133.334 143 206.001c37.333 103.333 56 196 56 278c0 2 1 3 3 3c0 2 -1 3 -3 3l3 13v8c0 234.667 -67.333 424 -202 568c-80.667 72.667 -168.334 109 -263.001 109h-8c-307.333 0 -519.666 -140.667 -636.999 -422c0 -2 0.666992 -3 2 -3zM736.004 1365
c165.333 0 295.33 -99 389.997 -297c24.667 -56 44.334 -120.333 59.001 -193c6.66699 -44 12 -94 16 -150c-2 -3.33301 -3 -6 -3 -8c0 -1.33301 1 -2 3 -2c-2 -10 -3 -17.333 -3 -22c0 -186.667 -53 -341.667 -159 -465c-95.333 -105.333 -217.666 -158 -366.999 -158
c-81.333 14 -141.666 30 -180.999 48c-200 88 -300 243.333 -300 466c0 99.333 26.667 227.666 80 384.999v13c0 18.667 -12.333 30.334 -37 35.001c-18 0 -58.667 -18.667 -122 -56l-3 5c121.333 266 330.333 399 627 399zM409.001 615.999c0 -2 1.00195 -3 3.00195 -3
c-2.66699 -19.333 -4.66699 -31 -6 -35c2 -3.33301 3 -7 3 -11v-2c0 -4 -1 -7.66699 -3 -11l3 -5l-3 -27c0 -20 25 -38.667 75 -56c19.333 -12 63.666 -28 132.999 -48c61.333 -7.33301 94 -11 98 -11c101.333 0 192.333 36.667 273 110c4 0 7.66699 7 11 21
c-88.667 387.333 -187.667 581 -297 581c-12 0 -39.667 -26.667 -83 -80c-96.667 -113.333 -160.334 -226.666 -191.001 -339.999c-8.66699 -50.667 -14 -78.334 -16 -83.001zM707.003 1111h2.00293c95.333 0 188.333 -188.333 279 -565v-3
c-4.66699 -29.333 -50.667 -64 -138 -104c-38.667 -16 -81.334 -24 -128.001 -24c-100.667 0 -201.334 29.333 -302.001 88c-4 16 -6.66699 24 -8 24l2 19v19c0 167.333 83.333 339.333 250 516c15.333 20 29.666 30 42.999 30zM709.006 1047
c-103.333 -117.333 -171.334 -223.667 -204.001 -319c-20 -53.333 -30 -112.333 -30 -177c0 -18 59.333 -42 178 -72c24 -2 42 -3 54 -3h21c72.667 0 137.334 26 194.001 78c0 2 0.666992 4.66699 2 8c-42 170 -88.667 304.667 -140 404c-33.333 54 -58.333 81 -75 81z" />
    <glyph glyph-name="P" unicode="P" horiz-adv-x="1251" 
d="M872 1431l5.99902 -1.99805c2 0 3 0.666992 3 2c246.667 0 370 -96 370 -288c0 -210.667 -98 -350.334 -294 -419.001c-54.667 -16 -124.334 -31 -209.001 -45l-112 -16c-28 -10 -51.333 -33.333 -70 -70c-16 -55.333 -24 -101.666 -24 -138.999v-32
c0 -184.667 34.333 -304.334 103 -359.001c8 -10.667 12 -20 12 -28c0 -23.333 -16 -35 -48 -35c-84.667 22 -180.667 101 -288 237c-86.667 130 -130 262.667 -130 398c0 98.667 30.333 211 91 337v2h-3c-73.333 -12 -133 -30 -179 -54c-26 -21.333 -46.333 -32 -61 -32
h-12c-18 2 -27 9 -27 21v11c38.667 104.667 109.334 204.667 212.001 300c87.333 68 153 110.333 197 127c90.667 37.333 172.334 59 245.001 65c52 9.33301 124.667 15.666 218 18.999zM105.999 988.002c2 0 2.99902 -0.666016 2.99902 -1.99902
c88 30 163.667 47.333 227 52c26.667 -4.66699 40 -14.334 40 -29.001c0 -3.33301 -11.333 -25 -34 -65c-54.667 -110.667 -82 -218.334 -82 -323.001c2.66699 -3.33301 4 -5.66602 4 -6.99902h-4l4 -5v-14c0 -140.667 67.333 -284.334 202 -431.001
c32 -30 49.333 -45 52 -45h3c-32 82.667 -48 184.334 -48 305.001c0 154 40.333 247.667 121 281c13.333 10 61.666 18.667 144.999 26l142 30c106.667 27.333 183.667 72 231 134c46 66 69 151.667 69 257c0 110 -50.333 179.667 -151 209
c-47.333 9.33301 -85.666 14 -114.999 14h-9c-2 0 -3 0.666992 -3 2c-2 0 -3 -0.666992 -3 -2l-12 2c-306.667 0 -530 -79.667 -670 -239c-71.333 -79.333 -108.666 -129.333 -111.999 -150zM844.998 1370l39 -0.00292969c129.333 0 214.333 -29 255 -87
c24 -38.667 36 -80.667 36 -126l-3 -5c2 -2.66699 3 -5.66699 3 -9c0 -1.33301 -1 -2 -3 -2c0 -2 1 -3 3 -3c0 -54.667 -13 -117.667 -39 -189c-28 -56 -69.333 -99 -124 -129c-28.667 -23.333 -86.334 -44.666 -173.001 -63.999c-90 -16.667 -141.333 -25 -154 -25
c-95.333 0 -161 -45.333 -197 -136c-12 -46.667 -18 -78.667 -18 -96v-7c0 -2 -1.33301 -3 -4 -3c0 -1.33301 1.33301 -2 4 -2l-4 -12v-89c0 -74 11.333 -150.333 34 -229l-9 -5c-147.333 139.333 -221 297 -221 473c0 124.667 38.333 252.667 115 384v3
c0 11.333 -12.333 21.333 -37 30c-48 0 -122.667 -14 -224 -42c0 1.33301 -1 2 -3 2c28.667 56 84.334 121 167.001 195c80 60.667 150.667 100.334 212 119.001c40 16 96.333 29.333 169 40v-2c8 2.66699 35.333 6.33398 82 11.001v-2c28 4.66699 59.333 7 94 7z
M553.998 944c0 -38 17.333 -61.334 52 -70.001c10.667 -2 16.667 -3 18 -3c266.667 52.667 400 123 400 211v16c0 41.333 -73.667 85.333 -221 132l-12 2c-44 0 -72.333 -11 -85 -33c-99.333 -111.333 -149 -195.666 -149 -252.999c-2 0 -3 -0.666992 -3 -2zM793.998 1225
c76 -18.667 136.334 -44.334 181.001 -77.001c26.667 -16 40 -31 40 -45v-30c0 -76 -125.333 -140 -376 -192l-18 -3c-38.667 10.667 -58 27 -58 49v10c0 66.667 53.667 157.334 161 272.001c15.333 10.667 38.666 16 69.999 16zM632.999 938.999l3 -5
c210 46.667 315 97.667 315 153c0 19.333 -57.667 48 -173 86c-40.667 -39.333 -72.667 -78.333 -96 -117c-32.667 -48 -49 -87 -49 -117z" />
    <glyph glyph-name="Q" unicode="Q" horiz-adv-x="1250" 
d="M504 1437c105.333 0 221.334 -73.332 348.001 -219.999c111.333 -146.667 167 -322.667 167 -528c0 -80 -18.667 -179 -56 -297c28.667 -36 65.667 -70 111 -102c30 -24 70.667 -44 122 -60c34 0 51 -11.333 51 -34c0 -36.667 -65.333 -67.334 -196 -92.001
c-9.33301 -1.33301 -21.666 -2 -36.999 -2h-28c-52.667 0 -112.334 16 -179.001 48c-126.667 -100 -246.334 -150 -359.001 -150c-128 -0 -233.333 73.333 -316 220c-24 45.333 -46 97 -66 155c-18.667 43.333 -28 111 -28 203v15c0 162.667 42 295.667 126 399l-10 2h-9
c-27.333 0 -55 -7 -83 -21c-8.66699 0 -20 -5 -34 -15h-9c-10.667 0 -17 8 -19 24v3c10 33.333 57.667 104.333 143 213c132 159.333 252.333 239 361 239zM506.001 1381l-16.999 0.000976562c-82 0 -190.333 -79 -325 -237c-45.333 -61.333 -68 -94.333 -68 -99h2
c16.667 3.33301 33 5 49 5c60 0 90 -13.667 90 -41c0 -17.333 -15.667 -40 -47 -68c-68 -92 -102 -205 -102 -339h-3l3 -4v-71l2 -12h-2c1.33301 -3.33301 2 -5.66602 2 -6.99902c0 -40 8.33301 -81 25 -123c19.333 -62.667 52.333 -129.667 99 -201
c45.333 -52.667 83.666 -85.667 114.999 -99c46 -19.333 80 -29 102 -29c1.33301 0 2 0.666992 2 2l9 -2c103.333 0 208 41 314 123v2c-88 74 -154.333 133 -199 177l-145 87c-0.666992 0 -8.33398 -1.66699 -23.001 -5c-52.667 0 -87.667 22.667 -105 68
c-4 24 -6 37.667 -6 41h2c0 2 -0.666992 3 -2 3c0 96.667 85.333 258.667 256 486c16.667 12.667 33 19 49 19h2c108 0 180.667 -156.333 218 -469c0 -2 -1.33301 -10 -4 -24c0 -2.66699 40.333 -46.334 121 -131.001h5c29.333 95.333 44 189.666 44 282.999
c0 202.667 -71.667 380 -215 532c-83.333 78.667 -161.666 123 -234.999 133c-6 0 -9 1 -9 3zM491.002 1377l23.999 0.00390625c46.667 0 112 -32.333 196 -97c55.333 -46 103 -101.667 143 -167c57.333 -96.667 90.666 -190.334 99.999 -281.001
c4.66699 -20 8.33398 -53 11.001 -99h-2l2 -5c0 -1.33301 -0.666992 -2 -2 -2c0 -2 0.666992 -4.33301 2 -7c0 -91.333 -14.333 -183.333 -43 -276l-4 -3c-74 82.667 -112.333 124 -115 124c2.66699 11.333 4 20 4 26c-15.333 122 -31.666 210.667 -48.999 266
c-21.333 71.333 -52 128.666 -92 171.999c-22 19.333 -48.333 31.333 -79 36c-30 0 -52.667 -12.667 -68 -38c-68 -86.667 -131.333 -184.334 -190 -293.001c-37.333 -78.667 -56 -140 -56 -184c0 -61.333 30.667 -99.333 92 -114c1.33301 0 2 1 2 3l15 -3c8 0 18 1 30 3
c29.333 -18 72.666 -43 129.999 -75c2.66699 0 32.667 -27.333 90 -82l115 -100c1.33301 0 2 -0.666992 2 -2c-105.333 -77.333 -202.666 -116 -291.999 -116h-21c-102 0 -189.667 65.333 -263 196c-22.667 45.333 -44.667 101 -66 167c-4.66699 0 -9.66699 34.667 -15 104
h2l-2 5v53c0 92 14.333 175 43 249c12.667 34 36 72 70 114c25.333 19.333 38 41.666 38 66.999c0 24.667 -34 37 -102 37h-28c-2.66699 0 -4 1.66699 -4 5c91.333 123.333 166 205.333 224 246c65.333 47.333 118 71 158 71zM327.001 549.006
c0 -35.333 19.668 -53 59.001 -53c13.333 0 29 9.66699 47 29c81.333 59.333 154.666 89 219.999 89c28.667 0 60.667 -7 96 -21v2c0 2 1 3 3 3c-11.333 92 -25 167.667 -41 227c-38 118 -79.333 177 -124 177h-8c-10.667 0 -28 -19.667 -52 -59
c-132 -184.667 -198.667 -316 -200 -394zM463.002 479.006v-5.00098c69.333 -31.333 126.333 -70.666 171 -117.999c128 -118.667 217.667 -180 269 -184c26 -10 55.333 -15 88 -15h28c38 0 80.667 9 128 27v2c0 2.66699 -16.333 10.667 -49 24c-50 24 -130 94.333 -240 211
c-68.667 80.667 -114.667 121.667 -138 123c0 4.66699 -20.667 9.66699 -62 15c-61.333 0 -126.333 -26.667 -195 -80zM643.002 554.005l9.99805 -2.00098h15c54.667 0 115.334 -43.667 182.001 -131c84.667 -85.333 127.334 -128 128.001 -128
c50 -44.667 95.667 -77 137 -97c10 -3.33301 15 -6.66602 15 -9.99902c0 -9.33301 -39.333 -17.333 -118 -24c-110.667 0 -209 42.667 -295 128c-30 24.667 -77.667 67.667 -143 129c-64.667 35.333 -98 55.333 -100 60c30.667 33.333 87 58.333 169 75z" />
    <glyph glyph-name="R" unicode="R" horiz-adv-x="1283" 
d="M699 1436l35.001 -0.00292969c212.667 0 348.334 -57.667 407.001 -173c10.667 -31.333 16 -61.666 16 -90.999v-21c0 -92 -51 -198 -153 -318c-76 -72 -126 -108 -150 -108c0 -3.33301 -19 -8.66602 -57 -15.999l-3 -12c0 -204 146.667 -367.667 440 -491
c30.667 -4.66699 46 -15 46 -31c0 -30 -53.667 -56.333 -161 -79c-24.667 -1.33301 -42 -2 -52 -2c-161.333 0 -346 91 -554 273c-70.667 68.667 -114.334 130.334 -131.001 185.001h-8c-40 -90 -60 -180.333 -60 -271c0 -80 25.333 -158 76 -234v-14
c-2.66699 -22 -13.334 -33 -32.001 -33h-9c-41.333 -0 -101.333 58.333 -180 175c-63.333 117.333 -95 235.333 -95 354v21c0 149.333 51 304.333 153 465v5c-34.667 -4.66699 -85 -22.667 -151 -54c-10 -3.33301 -26.333 -6.33301 -49 -9c-16 0 -25 10 -27 30
c40.667 128 122.667 234.667 246 320c130 86 281 129 453 129zM87.001 1036v-2c107.333 37.333 174 56 200 56c16.667 0 26.667 -10.333 30 -31v-4c0 -8 -23 -47.667 -69 -119c-74.667 -135.333 -112 -265 -112 -389v-25c0 -136.667 44.667 -265.334 134 -386.001h6
c-11.333 29.333 -19.666 73 -24.999 131h3l-3 4v31c0 1.33301 1 2 3 2c0 1.33301 -1 2 -3 2c0 80.667 24.667 175 74 283c30 52 56.333 78 79 78c19.333 0 29.333 -12.667 30 -38v-14c0 -1.33301 -1 -2 -3 -2c0 -44.667 30 -101.667 90 -171
c71.333 -71.333 135 -124.333 191 -159c137.333 -90.667 254.666 -136 351.999 -136c60.667 2 98 9 112 21c-59.333 25.333 -128.333 64.333 -207 117c-108 78 -181.667 176.333 -221 295c-9.33301 40 -14 69.667 -14 89v9l-3 12h3c0 1.33301 -1 2 -3 2l3 12v19
c0 30.667 13.667 46 41 46c12 -2.66699 19.333 -4 22 -4c48 0 111.667 46.667 191 140c72.667 96.667 109 183.334 109 260.001l-3 4c0 2 1 3 3 3c0 86.667 -55.333 149 -166 187c-58.667 15.333 -126 23 -202 23h-49c-138.667 0 -269.667 -38 -393 -114
c-66 -50 -111.667 -92.333 -137 -127c-42 -58.667 -63 -93.667 -63 -105zM690.001 1378v-2.99707l6 3h27c186 0 301.667 -42.333 347 -127c12.667 -28 19 -51.333 19 -70v-14c0 -117.333 -66.333 -235 -199 -353c-40.667 -28 -69 -42 -85 -42h-3
c-9.33301 0 -17.333 2.33301 -24 7h-6c-30.667 0 -46 -24.333 -46 -73c0 -221.333 141 -398.333 423 -531c7.33301 -2 11 -4.33301 11 -7c0 -5.33301 -27.333 -10.666 -82 -15.999c-3.33301 1.33301 -6 2 -8 2l-11 -2c-27.333 2.66699 -41 5 -41 7l-5 -2
c-70.667 14 -131 35 -181 63c-20.667 5.33301 -76 39.666 -166 102.999c-151.333 113.333 -227 210.666 -227 291.999v7l3 14c-6 25.333 -18.667 38 -38 38c-34 0 -69.667 -43.667 -107 -131c-20 -44.667 -36.333 -104.667 -49 -180c0 -16 -0.666992 -24 -2 -24
c0 -1.33301 0.666992 -2 2 -2l-2 -24v-18c0 -38.667 3.66699 -79.334 11 -122.001h-3c-26.667 30 -54 84.667 -82 164c-20 66 -30 135.333 -30 208c0 155.333 60 321.333 180 498c0 3.33301 2 8.66602 6 15.999c-6 25.333 -19.667 38 -41 38h-9
c-58.667 -14 -117.667 -31.333 -177 -52c0 2 -1 3 -3 3c20.667 50 70.667 111.667 150 185c128.667 96.667 276 145 442 145zM464.001 964c0 -34 24.667 -56 74 -66c11.333 -1.33301 24 -2 38 -2h11c2 0 3 -1 3 -3l5 3h3c82 0 163.667 22.667 245 68
c31.333 25.333 47 51 47 77c0 32 -24.667 72.333 -74 121c-63.333 50 -108 78.333 -134 85c-22.667 0 -50.667 -22.667 -84 -68c-86 -102 -130.667 -173.667 -134 -215zM680.001 1240c21.333 0 68.333 -30.667 141 -92c40.667 -40 61 -75 61 -105v-5
c0 -65.333 -84 -110.333 -252 -135c-16.667 -2 -33.667 -3 -51 -3h-6c-53.333 0 -86 15.667 -98 47c-2 2.66699 -3 6.66699 -3 12v2c0 49.333 61 140 183 272c10 4.66699 18.333 7 25 7zM535.001 968c0 -9.33301 12.667 -14 38 -14h6c96 0 173.333 22 232 66
c5.33301 5.33301 8 12.333 8 21c0 35.333 -43.667 80.333 -131 135h-6c-83.333 -92 -132.333 -161.333 -147 -208z" />
    <glyph glyph-name="S" unicode="S" horiz-adv-x="1253" 
d="M591 1432l24 -0.000976562c22.667 0 140.334 -8.33301 353.001 -25c12 -1.33301 58 -3 138 -5c4 2 7 3 9 3v-3c4 2 7 3 9 3c38 0 68.333 6.66699 91 20h12c17.333 -6 26 -15.333 26 -28v-2c-24 -70.667 -84.667 -139 -182 -205
c-92.667 -54.667 -217.334 -82 -374.001 -82c-117.333 -20.667 -176 -69.667 -176 -147v-20c0 -54 37 -102 111 -144c26.667 -12.667 87.667 -23.334 183 -32.001c37.333 -5.33301 96 -25.333 176 -60c131.333 -79.333 197 -170.666 197 -273.999v-25
c0 -113.333 -90 -224.666 -270 -333.999c-103.333 -48 -201.333 -72 -294 -72c-215.333 -0 -423.333 105.333 -624 316v15c8.66699 23.333 22.334 35 41.001 35h12c154 -62 270.667 -96 350 -102c7.33301 0 31.666 -1 72.999 -3c89.333 0 165 31.667 227 95
c39.333 55.333 59 96 59 122c0 17.333 -94.333 36.333 -283 57c-50 9.33301 -108.667 32 -176 68c-114 72.667 -171 163 -171 271v5c0 46 16.667 100.667 50 164c0 2 -1 3 -3 3c-80 -22.667 -120 -41 -120 -55c-3.33301 0 -7.33301 -1.66699 -12 -5h-12
c-17.333 0 -27 10 -29 30c28.667 109.333 77.667 194 147 254c114.667 108 260.667 162 438 162zM100 1086l0.000976562 -3.00098c84 26.667 129 40 135 40c37.333 0 56 -11.667 56 -35c0 -2.66699 -20.667 -34 -62 -94c-19.333 -42 -29 -82.667 -29 -122v-15
c0 -77.333 51 -148.666 153 -213.999c73.333 -36.667 133 -55 179 -55c198 -20.667 297 -54 297 -100c0 -66 -40 -136.667 -120 -212c-70 -48 -154.333 -72 -253 -72c-79.333 0 -183.333 20.667 -312 62v-2c158.667 -138 316.667 -207 474 -207c176 0 325 71.333 447 214
c37.333 48.667 56 95.334 56 140.001v10c0 1.33301 1 2 3 2l-3 5v13c0 66.667 -46.333 133 -139 199c-77.333 46.667 -174.333 74 -291 82c-40 0 -91 20.667 -153 62c-56.667 52 -85 107.667 -85 167v8c0 102.667 70.667 170 212 202c150 7.33301 241 18.666 273 33.999
c105.333 41.333 176 92 212 152h-35c-6.66699 0 -11.667 -0.666992 -15 -2l-18 2h-17c-72.667 0 -214 9.33301 -424 28h-44c-179.333 0 -320.333 -57.333 -423 -172c-42.667 -52.667 -67.334 -91.667 -74.001 -117zM609.001 1370l2.99707 -0.00195312
c20 0 147.333 -9.33301 382 -28h41v-2c2 0 3 0.666992 3 2l30 -2h17c10.667 0 27.334 0.666992 50.001 2l3 -5c-88 -109.333 -225 -164 -411 -164c-60.667 0 -123.667 -17.333 -189 -52c-62.667 -45.333 -94 -103.666 -94 -174.999
c6.66699 -52.667 29.334 -101.667 68.001 -147c66.667 -59.333 149 -89 247 -89c90 -11.333 172.333 -42 247 -92c72.667 -60.667 109 -123 109 -187v-8c0 -114 -87.333 -217.667 -262 -311c-86.667 -33.333 -162 -50 -226 -50v3c-2 0 -3 -1 -3 -3
c-149.333 0 -297.666 60 -444.999 180c0 3.33301 3 5 9 5c106 -32 195.333 -48 268 -48h18l20 3v-3c50 0 111 16.667 183 50c42.667 28 76 57 100 87c38.667 64 58 109 58 135v17c0 53.333 -111.667 89 -335 107c-102 22.667 -177.333 61.667 -226 117
c-45.333 48.667 -68 100.334 -68 155.001c0 74.667 32.333 147.667 97 219l-3 5v2c0 2 1 3 3 3c0 23.333 -22.667 35 -68 35h-6c-36 -13.333 -75 -26 -117 -38c23.333 68.667 83 136 179 202c90.667 50 196.667 75 318 75z" />
    <glyph glyph-name="T" unicode="T" horiz-adv-x="1248" 
d="M1217 1435c20.667 -4 31 -12.667 31 -26v-10c-15.333 -52 -81.333 -137.667 -198 -257c-96 -91.333 -190.667 -137 -284 -137c-104 0 -172.667 -120.333 -206 -361c-3.33301 -54.667 -5 -85 -5 -91c0 -196 46 -366.667 138 -512c2 -2.66699 3 -6 3 -10v-7
c-4 -16 -12.667 -24 -26 -24h-3c-25.333 -0 -88.666 43.333 -189.999 130c-160 150.667 -240 319.667 -240 507c0 108 29.667 223.333 89 346l-6 3h-5c-51.333 0 -130.333 -52.333 -237 -157c-10.667 -8 -28 -12 -52 -12c-12.667 0 -21.334 10.667 -26.001 32
c0 104 33 210.333 99 319c54.667 78 132 131.667 232 161c92.667 22.667 285.334 34 578.001 34c104.667 4.66699 176 12 214 22c24 6 50 21 78 45c7.33301 3.33301 12.666 5 15.999 5zM782 1308c-6 -2 -9.66699 -2.99902 -11 -2.99902v3l-5 -3c-2 0 -3 1 -3 3l-5 -3h-2
c-2 0 -3 1 -3 3c-3.33301 -2 -6 -3 -8 -3c-258.667 0 -415 -19 -469 -57c-76.667 -36 -136.667 -106.667 -180 -212c-20.667 -64.667 -31 -110.334 -31 -137.001h3c101.333 94.667 184.666 142 249.999 142c39.333 0 64.333 -16 75 -48
c-3.33301 -13.333 -19.666 -52 -48.999 -116c-31.333 -82 -47 -162.667 -47 -242v-8c0 -188.667 93.667 -357.667 281 -507h3c-57.333 136 -86 282 -86 438h3c0 1.33301 -1 2 -3 2l3 12v17c0 137.333 34.667 264 104 380c42.667 60.667 102.667 91 180 91
c74.667 0 164 54.333 268 163c57.333 62.667 86 98 86 106h-3c-64.667 -14 -181.667 -21 -351 -21zM1120 1322l3.00098 -5.00098c-110.667 -133.333 -200 -211 -268 -233c-12.667 -7.33301 -35.334 -13.666 -68.001 -18.999v2l-5 -2h-26c-106.667 0 -186 -91.333 -238 -274
c-18.667 -79.333 -28 -157 -28 -233h-3l3 -5v-19c0 -67.333 5 -126 15 -176h-2l18 -77h-3c16 -52.667 31.667 -99 47 -139h-5c-86 76 -143.333 141.667 -172 197c-55.333 93.333 -83 183 -83 269c-2 0 -3 2.33301 -3 7c0 2 1 3 3 3c-2 8 -3 12.667 -3 14
c0 107.333 33 226 99 356c-8.66699 40 -37.334 60 -86.001 60c-60.667 0 -137 -41.667 -229 -125c0 -2.66699 -3.33301 -5 -10 -7c0 1.33301 -1 2 -3 2c15.333 94 49.333 175 102 243c49.333 52.667 103 88 161 106c46.667 11.333 72 17 76 17v-3
c44 4.66699 99.333 9.66699 166 15v-3l6 3c1.33301 0 2 -1 2 -3l5 3c70 1.33301 113.667 2 131 2l13 2v-2l5 2h75c8 0 17.667 1 29 3c2 0 3 -1 3 -3l18 3h10c110.667 0 192.334 6.33301 245.001 19z" />
    <glyph glyph-name="U" unicode="U" horiz-adv-x="1249" 
d="M1093 1434c16 0 24.335 -10.667 25.002 -32c-25.333 -49.333 -38 -92 -38 -128v-25c0 -60.667 32 -156 96 -286c48.667 -137.333 73 -256.333 73 -357c0 -159.333 -56.333 -293 -169 -401c-108 -136.667 -234.333 -205 -379 -205c-112.667 0 -243.667 42 -393 126
c0 4 -30.333 31 -91 81c-94 110 -141 243 -141 399v37c0 100 21 223.333 63 370l-5 2c-59.333 -10 -89 -19.667 -89 -29c-6 -5.33301 -11.667 -8 -17 -8h-5c-12.667 0 -20.334 8.33301 -23.001 25v5c12 52.667 58.333 129.667 139 231c96.667 98.667 190 148 280 148h18
c26.667 -3.33301 40 -15.666 40 -36.999v-2c-38.667 -111.333 -65.667 -204.333 -81 -279c-12 -74 -18 -140.333 -18 -199c0 -203.333 86.667 -339 260 -407c26 -10 45.333 -15 58 -15c57.333 18.667 109.666 64 156.999 136c38.667 76.667 58 157 58 241v32
c0 21.333 -8.33301 113.333 -25 276v30c0 120 34.333 199.667 103 239c20 10 46 17.333 78 22c1.33301 3.33301 10 6.66602 26 9.99902zM944.002 1143c0 -20 8.33301 -108.666 25 -265.999v-52c0 -157.333 -52.333 -282 -157 -374c-52.667 -41.333 -92 -62 -118 -62
c-113.333 26.667 -200 74.334 -260 143.001c-76 89.333 -114 207.666 -114 354.999c0 123.333 29.667 269.666 89 438.999l-3 5c-54.667 -8 -110 -32.667 -166 -74c-84 -78.667 -133.667 -143 -149 -193h2c30.667 6.66699 55.334 10 74.001 10h7c18 0 28 -11.333 30 -34v-8
c-46.667 -157.333 -70 -287.666 -70 -390.999v-30c0 -172 53.667 -304.333 161 -397c23.333 -14.667 44.333 -32.667 63 -54c135.333 -68.667 252.333 -103 351 -103c123.333 0 237.666 67.333 342.999 202c92.667 92 139 207 139 345v7c0 135.333 -45.333 296.333 -136 483
c-22 55.333 -33 114.333 -33 177c0 22.667 4.33301 51.667 13 87h-3c-20 0 -41 -19 -63 -57c-16.667 -36.667 -25 -89.334 -25 -158.001zM1019 1348h7.99902c-6.66699 -22 -11 -50 -13 -84c0 -76.667 27 -168 81 -274c60.667 -147.333 91 -271.333 91 -372l-3 -4
c2 -3.33301 3 -6.66602 3 -9.99902c0 -4 -1 -7.33301 -3 -10c2 -3.33301 3 -6.66602 3 -9.99902v-3c0 -1.33301 -1 -2 -3 -2c0 -1.33301 1 -2 3 -2c-8.66699 -79.333 -19.667 -129.666 -33 -150.999c0 -34 -54.667 -111 -164 -231c-88.667 -88.667 -182 -133 -280 -133
c-91.333 0 -200.666 31 -327.999 93c-12 4 -28 18 -48 42c-67.333 34.667 -122 106 -164 214c-20 68.667 -30 137 -30 205c0.666992 75.333 3 113 7 113c0 2 -0.666992 3 -2 3c13.333 91.333 29.333 171 48 239c13.333 33.333 20 59.666 20 78.999
c0 16 -11.667 26.667 -35 32c-15.333 0 -40 -3.33301 -74 -10l-2 5c17.333 44 68.666 105.667 153.999 185c54 35.333 101 55.666 141 60.999l3 -5c-35.333 -102.667 -61.666 -211 -78.999 -325c0 -14 -1.66699 -33.667 -5 -59c0 -2 1 -3 3 -3c-2 -26 -3.66699 -39 -5 -39
l2 -12v-35l3 -17h-3c12 -96 29 -161.667 51 -197c11.333 -32.667 37.333 -72.334 78 -119.001c66 -61.333 134 -99.666 204 -114.999c0 -4 16 -8.33301 48 -13c50 4.66699 110 45 180 121c65.333 95.333 98 198 98 308h2l-2 5v2c0 2 0.666992 3 2 3l-2 5l2 10l-2 12
c1.33301 3.33301 2 5.66602 2 6.99902l-2 5c0 2 0.666992 3 2 3l-2 15l-25 261h2l-2 5v10c0 3.33301 0.666992 6.33301 2 9c0 2 -0.666992 3 -2 3l2 12v3c0 82.667 22.667 137.667 68 165z" />
    <glyph glyph-name="V" unicode="V" horiz-adv-x="1261" 
d="M956 1434c29.333 0 85.6699 -60.665 169.003 -181.998c90.667 -139.333 136 -276 136 -410c0 -182.667 -89.667 -357.334 -269 -524.001c-82.667 -87.333 -172.334 -174 -269.001 -260c-48 -38.667 -82.333 -58 -103 -58h-9c-21.333 0 -36.666 15.667 -45.999 47
c-124.667 126.667 -217.334 236.667 -278.001 330c-120.667 177.333 -181 327 -181 449c0 22 5 57.667 15 107h-3c-42.667 -15.333 -70 -23 -82 -23c-18.667 0 -30.667 11 -36 33c9.33301 42 44.666 102 105.999 180c86 87.333 178.667 143.333 278 168
c20 8 39.333 12 58 12h6c32 -2.66699 48 -13.667 48 -33c0 -4 -13 -30.333 -39 -79c-52.667 -105.333 -79 -202 -79 -290c0 -164 84.667 -286.667 254 -368c18.667 -6 35.667 -9 51 -9h13c103.333 0 182.666 120 237.999 360c14.667 91.333 22 167 22 227v24
c0 78 -10.333 155 -31 231c4 10 6 17 6 21c-4 11.333 -6 17.666 -6 18.999v7c0 12.667 10.333 19.667 31 21zM1013 1291l-0.000976562 -2.00195c8 -65.333 12 -120.666 12 -165.999c0 -244 -54.333 -436 -163 -576c-53.333 -51.333 -105.666 -77 -156.999 -77h-25
c-85.333 0 -178 54 -278 162c-62.667 81.333 -94 169.333 -94 264h3l-3 5v2c0 1.33301 1 2 3 2c0 2 -1 3 -3 3c0 91.333 32.333 202 97 332h-3c-105.333 -28.667 -194 -89.667 -266 -183c-28 -39.333 -42 -62.666 -42 -69.999v-2c34 9.33301 53 14 57 14
c36.667 -7.33301 55 -19 55 -35v-5c-20.667 -50 -31 -95.333 -31 -136c0 -188 151.333 -439.667 454 -755h6c103.333 82.667 233.333 206.667 390 372c110.667 130 166 263.333 166 400v2c0 146 -57.333 295.667 -172 449h-6zM1028 1266
c49.333 -64 89.6641 -138.334 120.997 -223.001c24 -79.333 36 -140.666 36 -183.999h-3l3 -5v-5c0 -1.33301 -1 -2 -3 -2c2 -3.33301 3 -5.66602 3 -6.99902c0 -156.667 -74.333 -308.667 -223 -456c-120 -126 -229 -229 -327 -309
c-35.333 29.333 -84.666 81.666 -147.999 156.999c-180 216 -281 397.667 -303 545h3l-3 4v14l-3 17h3l-3 4v10c0 36.667 11.333 81.667 34 135v3c0 20 -19.333 34 -58 42h-6c-4 0 -18 -4 -42 -12c-2 3.33301 -3 5.66602 -3 6.99902c70.667 116 165.334 192.333 284.001 229
l3 -4c-36.667 -61.333 -64 -138.666 -82 -231.999c-2 -12.667 -4 -19 -6 -19c0 -1.33301 1 -2 3 -2c-4 -16.667 -6 -44.667 -6 -84c0 -128 56.667 -239.667 170 -335c78 -60.667 149.333 -91 214 -91h10c134.667 0 234.334 116.333 299.001 349l27 135c0 2 -1 3 -3 3
c6 32 9 61.667 9 89v9c0 1.33301 1 2 3 2c0 2 -1 3 -3 3l3 28v77c0 8.66699 -1 21 -3 37l3 5l-9 63z" />
    <glyph glyph-name="W" unicode="W" horiz-adv-x="1505" 
d="M1200 1433l7.99805 -0.00292969c15.333 0 54 -39.667 116 -119c122.667 -181.333 184 -359.333 184 -534v-38c0 -223.333 -100 -453.666 -300 -690.999c-13.333 -6.66699 -24.333 -11 -33 -13c-83.333 26 -165.666 105.333 -246.999 238l-55 104h-3
c-58.667 -253.333 -129.334 -380 -212.001 -380c-52 0 -138.667 65 -260 195c-137.333 162 -228.666 325 -273.999 489c-8.66699 29.333 -17.334 70.666 -26.001 123.999h-2l-46 -59l-12 -2h-8c-20 0 -30 22 -30 66c0 189.333 81.667 345.333 245 468
c27.333 22 48.333 33 63 33c17.333 0 27.333 -11 30 -33c-23.333 -80 -35 -151.667 -35 -215c0 -211.333 101.667 -409.666 305 -594.999c3.33301 0 5 -1 5 -3c36.667 30.667 66 72 88 124c26.667 63.333 50.334 145.333 71.001 246c0 48.667 14.333 73 43 73
c16 0 43.667 -22.667 83 -68c138 -137.333 222.667 -210 254 -218c22 0 43 73.667 63 221c4 38.667 6 78.334 6 119.001v15c0 112.667 -17.667 248.334 -53 407.001c6.66699 30.667 17.334 46 32.001 46zM1243 1319l-2.00195 -5.00098c25.333 -118 38 -232 38 -342
c0 -193.333 -28.667 -324 -86 -392c-12 -10 -24 -15 -36 -15h-2c-42.667 0 -132.667 70.667 -270 212c-33.333 34 -52.666 51 -57.999 51v-3c-23.333 -115.333 -49.333 -204.666 -78 -267.999c-54 -99.333 -99.333 -149 -136 -149h-8
c-22.667 1.33301 -76.334 51 -161.001 149c-131.333 162 -197 328.333 -197 499v30c0 33.333 4.33301 77.333 13 132h-3c-86.667 -66 -147 -154.667 -181 -266c-6.66699 -28 -11.667 -53.333 -15 -76c1.33301 -3.33301 2 -6 2 -8c16 24 32 36 48 36
c28.667 0 43 -29.667 43 -89c25.333 -166.667 100 -335.334 224 -506.001c30 -38.667 70.333 -84.334 121 -137.001c77.333 -72 128.666 -109 153.999 -111h13c38.667 0 84.667 97.667 138 293c18.667 91.333 32.334 137 41.001 137c6.66699 3.33301 12.334 5 17.001 5
c24.667 0 48.334 -35.333 71.001 -106c36 -85.333 91.333 -164.666 166 -237.999c36.667 -32.667 62 -49.667 76 -51c135.333 162.667 221 323 257 481c12 71.333 18 117 18 137v15c0 4 1 7.33301 3 10c-2 3.33301 -3 6 -3 8h3l-3 5v13c0 1.33301 1 2 3 2l-3 5v8
c0 166.667 -61.333 336.334 -184 509.001zM1256 1296c126 -170 189 -346.331 189 -528.998v-38c0 -1.33301 -1 -2 -3 -2c0 -2 1 -3 3 -3c0 -58 -17.667 -143.333 -53 -256c-31.333 -78 -73.333 -158 -126 -240c-34 -48.667 -65 -88.334 -93 -119.001
c-79.333 34 -155 124.333 -227 271c-26 60 -43 96.333 -51 109c-14.667 11.333 -27.334 17 -38.001 17c-22 0 -38 -36.333 -48 -109c-36.667 -148 -73.334 -250 -110.001 -306c-16.667 -16.667 -28.667 -25 -36 -25h-2c-58 12.667 -139.667 81.667 -245 207
c-83.333 104.667 -139.666 193.334 -168.999 266.001c-32 63.333 -57.333 135 -76 215c-6.66699 30.667 -13.334 75.667 -20.001 135c-13.333 14.667 -27.666 22 -42.999 22h-2c-8.66699 0 -19.667 -5.66699 -33 -17l-2 5c0 32.667 20 89 60 169
c26 45.333 65.667 90.333 119 135c0 -2 0.666992 -3 2 -3c-8 -40.667 -12 -86.334 -12 -137.001c0 -154 53.667 -308.333 161 -463c108.667 -133.333 177.667 -200 207 -200h10c44.667 13.333 90 64.666 136 153.999c50.667 134.667 76 221.667 76 261h5
c169.333 -172 276 -258 320 -258h5c50.667 0 88.334 80.333 113.001 241c7.33301 58.667 11 105.667 11 141v28c0 115.333 -11 224.333 -33 327z" />
    <glyph glyph-name="X" unicode="X" horiz-adv-x="1122" 
d="M818 1433c37.333 0 82.3311 -38.3291 134.998 -114.996c30 -58.667 45 -115 45 -169c0 -92.667 -31.333 -204.334 -94 -335.001c145.333 -160.667 218 -294.334 218 -401.001c0 -84.667 -53.667 -151.334 -161 -200.001c-10 -2.66699 -19 -4 -27 -4
c-19.333 0 -31.666 10 -36.999 30c10 26 15 46.333 15 61c0 107.333 -89 231.666 -267 372.999h-7c-265.333 -166.667 -398 -327.667 -398 -483c0 -16 10 -63.667 30 -143c0 -27.333 -17.333 -43 -52 -47h-15c-59.333 0 -108.333 75 -147 225l-7 94h4
c0 1.33301 -1.33301 2 -4 2l4 14c0 126.667 68.667 259.667 206 399c27.333 18.667 41 32 41 40l-165 234h-11c-27.333 -26 -53.666 -39 -78.999 -39h-4c-23.333 0 -37 10.667 -41 32v40c6.66699 150.667 66.667 244.667 180 282l26 2h27c20 0 37.333 -30.333 52 -91
c52.667 -120 122.667 -200.667 210 -242c44 -18.667 75.333 -28 94 -28c125.333 88 188 210.667 188 368c-2.66699 8.66699 -4 15.667 -4 21v54c0 13.333 15 22 45 26zM858.998 1311l-0.000976562 -4.99902c0 -139.333 -60 -259.666 -180 -360.999
c-25.333 -20 -64 -30 -116 -30c-56.667 0 -125.667 29.667 -207 89c-81.333 77.333 -132.333 151.666 -153 222.999c-3.33301 0 -7.33301 10 -12 30h-7c-36.667 -18.667 -65.334 -60 -86.001 -124c-5.33301 -26.667 -8 -42.334 -8 -47.001h8c12.667 6 23.667 9 33 9h4
c38 0 65.667 -25 83 -75c114.667 -156.667 172 -239.334 172 -248.001v-5c0 -12 -32.333 -45.667 -97 -101c-105.333 -113.333 -158 -237.666 -158 -372.999c2.66699 -30.667 6.33398 -59.667 11.001 -87h8v3c0 102 73.667 220.667 221 356
c49.333 47.333 123.333 99 222 155c36 6 59.667 9 71 9c26.667 -8 59.334 -29.667 98.001 -65c86.667 -76 146.667 -144 180 -204c24.667 -37.333 42 -82.666 52 -135.999h8c20 27.333 30 55.333 30 84c0 107.333 -74 238.666 -222 393.999c-2 2.66699 -3 6.66699 -3 12
c20 36.667 37.333 72.667 52 108c32.667 83.333 49 163 49 239l-4 12h4l-4 4c0 40 -13.667 84 -41 132zM873.997 1274c18 -30.667 27 -70.667 27 -120v-33c0 -31.333 -2.66699 -47 -8 -47c0 -1.33301 1.33301 -2 4 -2c0 -38.667 -27.667 -117 -83 -235
c-10 -2 -15 -9 -15 -21c0 -8.66699 29 -43.667 87 -105c94.667 -121.333 142 -220 142 -296c-5.33301 -45.333 -12.666 -68 -21.999 -68c-5.33301 4 -13 26 -23 66c-32.667 74.667 -112.667 168.334 -240 281.001c-34.667 28 -63.334 42 -86.001 42
c-52 0 -103.333 -21.667 -154 -65c-144 -100 -241.667 -194 -293 -282c-24 -36.667 -42.667 -76.334 -56 -119.001h-4l-4 4v54c0 114.667 55 229.667 165 345c60.667 52.667 91 83.334 91 92.001v4c0 11.333 -35.333 62.333 -106 153c-42 60 -77 114 -105 162
c-17.333 14 -36 21 -56 21c-18.667 -3.33301 -28.667 -5 -30 -5l-4 5c2.66699 34 21.667 76 57 126l22 17l30 -59c0 -24.667 38.667 -81 116 -169c58 -56 134.333 -93.333 229 -112h8c62.667 0 104 12.333 124 37c72 53.333 123.333 123.666 154 210.999l30 118h3z" />
    <glyph glyph-name="Y" unicode="Y" horiz-adv-x="1259" 
d="M1151 1432l10.9951 0.00292969c22.667 0 36.334 -10.667 41.001 -32c-46 -114.667 -69 -202.334 -69 -263.001c0 -15.333 22 -91.333 66 -228c39.333 -131.333 59 -238.666 59 -321.999v-37c0 -62 -31.333 -148 -94 -258c-106 -194.667 -275.333 -292 -508 -292h-27
c-185.333 0 -346.666 73.333 -483.999 220c-50.667 62 -76 111 -76 147c4.66699 31.333 22 47 52 47h10c29.333 0 81.666 -31.333 156.999 -94c100.667 -71.333 194.334 -107 281.001 -107h21c60 0 121.667 17.333 185 52c0 5.33301 20.667 26 62 62
c37.333 48.667 56 95.667 56 141c0 26 -6 53.333 -18 82h-7c-116 -51.333 -224.667 -77 -326 -77c-208.667 0 -344.334 115 -407.001 345c-12 44 -20.333 88.333 -25 133h-7c-31.333 -12.667 -51 -19 -59 -19h-17c-18.667 7.33301 -28 20.333 -28 39
c0 63.333 34.667 142.666 104 237.999c33.333 32 62.333 57.667 87 77c96.667 60.667 167.334 92.667 212.001 96c4.66699 2 9.33398 3 14.001 3h7c18.667 0 30.334 -10 35.001 -30c-30 -112 -45 -207.667 -45 -287c0 -146.667 51 -238.334 153 -275.001
c36 -8.66699 74.333 -13 115 -13c124.667 0 187 49 187 147v96c18.667 110.667 41 191 67 241c26.667 47.333 69.334 91.666 128.001 132.999c44.667 23.333 73.667 35 87 35zM948.995 1008l0.000976562 -64.001c0 -147.333 -92.667 -221 -278 -221
c-144.667 0 -243 49.667 -295 149c-26 59.333 -39 118.666 -39 177.999v40c0 61.333 9.33301 134 28 218h-3c-110.667 -41.333 -194.334 -117.333 -251.001 -228c-4.66699 -7.33301 -9.33398 -18.666 -14.001 -33.999h7l21 9h25c25.333 -3.33301 38 -28.666 38 -75.999
c0 -56.667 19.667 -141 59 -253c63.333 -130.667 162 -196 296 -196c96.667 0 207.667 29.667 333 89l21 3c36 0 60.333 -41.333 73 -124c2.66699 -14.667 4 -23 4 -25c0 -94.667 -48.667 -174.667 -146 -240c0 -23.333 -64 -48 -192 -74c-20 -2 -37.333 -3 -52 -3h-17
c-121.333 0 -254.666 57 -399.999 171h-4v-2c16.667 -42.667 65.667 -97.334 147 -164.001c104.667 -70.667 217 -106 337 -106c4.66699 1.33301 8 2 10 2v-2c4.66699 1.33301 8.33398 2 11.001 2c147.333 0 265.666 52 354.999 156c39.333 42.667 88 129.334 146 260.001
c6.66699 26.667 11 59 13 97c0 114 -41.667 291.333 -125 532c0 18 -1 30.667 -3 38c0 36.667 12.667 101 38 193h-3c-48.667 -36 -84.667 -90.667 -108 -164c-12 -38 -22.667 -91.667 -32 -161zM1071 1306c2.66699 -3.33301 3.99902 -5.99902 3.99902 -7.99902
c-18.667 -56 -28 -110.333 -28 -163c0 -26 18.333 -93.667 55 -203c46.667 -138 70 -268.667 70 -392h-3c0 -1.33301 1 -2 3 -2c0 -53.333 -46.333 -154.333 -139 -303c-84.667 -115.333 -220.334 -173 -407.001 -173c-126 0 -246.667 48.667 -362 146
c-32.667 33.333 -57 60.666 -73 81.999v2c0.666992 3.33301 3 5 7 5c127.333 -98.667 252.666 -148 375.999 -148c90 0 175.667 22.333 257 67c2 6 30 32.333 84 79c44 55.333 66 112.333 66 171v5c0 22 -2.33301 40 -7 54h3c-18.667 69.333 -44 104 -76 104h-11
c-8.66699 0 -52.667 -17.333 -132 -52c-87.333 -28 -152.333 -42 -195 -42v3l-7 -3h-3c-2 0 -3 1 -3 3l-7 -3c-164 0 -272 100.667 -324 302c-9.33301 38 -18.666 104.333 -27.999 199c-14.667 19.333 -32 29 -52 29l-24 -2v5c8.66699 32.667 38.667 76.334 90 131.001
c36.667 35.333 79.667 65 129 89l17 8c0 -2 1.33301 -3 4 -3c-9.33301 -30.667 -18.666 -84.334 -27.999 -161.001c0 -1.33301 1 -2 3 -2l-3 -13v-54c0 -167.333 65 -275.666 195 -324.999c40.667 -13.333 81 -20 121 -20h11c2 0 3 -0.666992 3 -2
c4.66699 1.33301 8.33398 2 11.001 2l7 -2c4 1.33301 8.66699 2 14 2v-2c54 0 110.667 13.333 170 40c64.667 40.667 97 96 97 166c0 1.33301 1.33301 2 4 2c0 2 -1.33301 3 -4 3l4 12v20l-4 15c2.66699 3.33301 4 5.66602 4 6.99902c-2.66699 14.667 -4 23.667 -4 27
c8.66699 53.333 14.667 80 18 80l-4 5c16.667 83.333 44.667 150 84 200z" />
    <glyph glyph-name="Z" unicode="Z" horiz-adv-x="1250" 
d="M558 1435h15.002c197.333 0 357 -40.667 479 -122c124 -92 186 -250 186 -474c-7.33301 -20.667 -21.666 -31 -42.999 -31h-3c-16 0 -48.333 27 -97 81c-32 31.333 -49.333 47 -52 47h-6c-42.667 -43.333 -129.334 -123.333 -260.001 -240
c-155.333 -146 -233.333 -241.667 -234 -287c42 -40 88.667 -64 140 -72c20 -6 43.333 -9 70 -9h40c108.667 0 243.667 44.667 405 134h12c19.333 0 32.666 -18.667 39.999 -56c0 -59.333 -41.667 -134.333 -125 -225c-133.333 -120.667 -322.333 -181 -567 -181
c-132.667 0 -291.334 19.667 -476.001 59c-54.667 28 -82 72.667 -82 134c0 120 119 298 357 534c11.333 14.667 70.333 59.334 177 134.001c124 105.333 186 179 186 221v4c-5.33301 26.667 -31 40 -77 40c-112 0 -246 -50 -402 -150c-59.333 -48 -89 -81 -89 -99
c-30 -27.333 -50.333 -41 -61 -41h-3c-18.667 0 -28.667 13.667 -30 41c9.33301 113.333 49 228.666 119 345.999c103.333 141.333 230.333 212 381 212zM155.002 1001h3.99902c65.333 53.333 135.333 96 210 128c110 46 201.333 69 274 69v-3c2 0 3 1 3 3
c64.667 0 109.334 -24 134.001 -72c6.66699 -10 10 -23.333 10 -40c0 -82 -91.667 -190.333 -275 -325c-53.333 -35.333 -103 -77 -149 -125c-197.333 -201.333 -296 -351 -296 -449c0 -39.333 24.333 -62 73 -68c165.333 -31.333 301.666 -47 408.999 -47
c307.333 0 510.666 91.333 609.999 274l3 16c-145.333 -70.667 -271.333 -106 -378 -106h-37c-91.333 0 -177.666 33.333 -258.999 100c-12 14 -18 28.333 -18 43v7c0 81.333 109.667 216.333 329 405c94.667 85.333 164.667 154 210 206l15 3c28 0 72 -31 132 -93h3v3
c0 76 -25.667 160 -77 252c-55.333 71.333 -132.333 119.333 -231 144c-98 24.667 -184.333 37 -259 37h-31c-195.333 0 -331.666 -118.333 -408.999 -355v-7zM582.001 1357h2.99707c128 0 253 -26 375 -78c79.333 -42 134.333 -106.333 165 -193
c18 -68.667 27 -113.667 27 -135l-6 -3c-53.333 52 -88.666 78 -105.999 78h-19c-15.333 0 -33.666 -17.667 -54.999 -53c-175.333 -156 -307.333 -281.667 -396 -377c-69.333 -74.667 -105 -136 -107 -184c0 -41.333 22.333 -72.666 67 -93.999c68.667 -48 152 -72 250 -72
c105.333 0 227.333 33.333 366 100l3 -6c-45.333 -93.333 -138.666 -166 -279.999 -218c-96 -27.333 -185.333 -41 -268 -41h-43c-4.66699 0 -8.66699 -1 -12 -3c-4 2 -8 3 -12 3h-52c-2 0 -3 1 -3 3c-2 0 -3 -1 -3 -3c-78 0 -203 18.667 -375 56
c-16.667 14.667 -25 34.667 -25 60c0 92 112 250 336 474c4.66699 7.33301 66.667 55 186 143c134 113.333 201 202.666 201 267.999c0 51.333 -27.667 88 -83 110c-22 8 -48.333 12 -79 12c-118 0 -260.333 -51 -427 -153c-18.667 -16.667 -30.667 -25 -36 -25l-3 7
c74.667 216 211.667 324 411 324z" />
    <glyph glyph-name="underscore" unicode="_" horiz-adv-x="1224" 
d="M100 -100h1024v-60h-1024v60z" />
    <glyph glyph-name="grave" unicode="`" horiz-adv-x="661" 
d="M561 1079l-69 0.000976562l-330 202c-20.667 13.333 -36.167 26.666 -46.5 39.999s-15.5 27.333 -15.5 42c0 20.667 6.83301 37.667 20.5 51s31.5 20 53.5 20c13.333 0 26.833 -4 40.5 -12s32.167 -23.667 55.5 -47z" />
    <glyph glyph-name="a" unicode="a" horiz-adv-x="922" 
d="M536 1024c148 0 247.001 -62.334 297.001 -187.001c15.333 -52.667 23 -95.667 23 -129c0 -130.667 -6.66699 -250 -20 -358c3.33301 0 17.666 7 42.999 21h12c21.333 -6.66699 32 -20.667 32 -42v-5c0 -54.667 -32 -118.667 -96 -192c-70 -58 -139 -90.667 -207 -98
c-117.333 -22.667 -208.666 -34 -273.999 -34c-166.667 0 -278 85 -334 255c-8 22.667 -12 51 -12 85c0 99.333 59.333 180 178 242c45.333 20.667 94.666 32 147.999 34c12 -2 25.667 -3 41 -3h12c4 0 7.66699 1 11 3c3.33301 -2 7.33301 -3 12 -3h11c8 0 12 16 12 48v5
c0 35.333 -15.333 53 -46 53h-21c-2 0 -3 0.666992 -3 2l-6 -2h-14c-72 0 -142 -35.333 -210 -106l-52 -15h-3c-19.333 0 -30 13 -32 39c0 110.667 48.333 205.334 145 284.001c96 68.667 213.667 103 353 103zM111.001 691.999l4.99902 0.00195312
c69.333 58 142.333 87 219 87h38c60.667 0 99.334 -27 116.001 -81l3 -37c0 -69.333 -18.333 -108 -55 -116h-3c-13.333 2 -27 5.33301 -41 10l-35 -2c-8.66699 0 -21.334 0.666992 -38.001 2c-80 0 -151.667 -35.667 -215 -107c-25.333 -36.667 -38 -75.334 -38 -116.001
v-13c0 -57.333 31 -121.666 93 -192.999c48 -43.333 114 -65 198 -65c63.333 0 165.333 14.667 306 44c82 31.333 138.333 79.666 169 144.999c7.33301 14 11 25.333 11 34c-3.33301 0 -5 1 -5 3l-6 -3h-6c-40.667 0 -61 12.333 -61 37c15.333 122 23 250 23 384
c-8 124 -50.667 201.333 -128 232c-30 17.333 -72.667 26 -128 26c-167.333 0 -290.666 -50.667 -369.999 -152c-34.667 -54.667 -52 -94.334 -52 -119.001zM527 958.001c130.667 0 211.333 -53.3311 242 -159.998c9.33301 -46.667 14 -78.334 14 -95.001
c-2 -158 -5.66699 -237 -11 -237c0 -2 1 -3 3 -3c-12 -92 -18 -141 -18 -147c0 -20.667 22.333 -34 67 -40c4 2 7 3 9 3c0 -2 1 -3 3 -3c-4 -22.667 -24.333 -55 -61 -97c-32.667 -37.333 -95 -65.333 -187 -84c-101.333 -18 -174 -27 -218 -27h-38
c-120 0 -203.333 67.667 -250 203c-6 22.667 -9 40.334 -9 53.001c0 94.667 53.333 164 160 208c29.333 10.667 55.666 16 78.999 16h8c16.667 0 34.334 -1 53.001 -3c7.33301 2 15 3 23 3c25.333 -6 38 -9.66699 38 -11c38.667 0 61 42 67 126
c0 39.333 -16.667 73.666 -50 102.999c-23.333 14 -61 21 -113 21l-15 -3v3c-57.333 0 -123.333 -26.333 -198 -79c0 2 -1 3 -3 3c10.667 47.333 40 95.666 88 144.999c88 68 193.667 102 317 102zM180.999 287.003c0 -52 31 -88 93 -108c23.333 -5.33301 52.333 -9 87 -11
c64 4 96 9.33301 96 16c4.66699 0 11.667 6.33301 21 19c1.33301 32 2 55.667 2 71v13c0 2 1 3 3 3c0 1.33301 -1 2 -3 2l3 13v50c0 2 1 3 3 3c0 2 -1 3 -3 3l3 26v18c0 32 -14.333 48 -43 48c-53.333 -8.66699 -122.333 -36.667 -207 -84c-35.333 -28.667 -53 -56 -53 -82
h-2zM442.999 445.003c22 0 34.333 -16.667 37 -50l-2 -13c0 -126.667 -7 -190 -21 -190c-10 -10.667 -40 -16 -90 -16h-23c-36 0 -72 8 -108 24c-31.333 22 -47 50 -47 84c0 59.333 81.667 113 245 161h9zM255.999 276.003c7.33301 -26 35.667 -38.998 85 -38.998h49
c12 0 18 5.33301 18 16c2 71.333 3 110.666 3 117.999c-2 0 -3 1 -3 3c-101.333 -36.667 -152 -69.334 -152 -98.001z" />
    <glyph glyph-name="b" unicode="b" horiz-adv-x="995" 
d="M504 1432l16 -0.00195312c14 -6.66699 21 -16 21 -28v-3l-65 -178c-36.667 -109.333 -55 -206.666 -55 -291.999c0 -66 10.333 -122.667 31 -170h6c66 42.667 126.667 64 182 64c153.333 0 268 -108.667 344 -326c6 -36 9 -63 9 -81
c0 -111.333 -61 -212.666 -183 -303.999c-9.33301 -25.333 -49.333 -52.333 -120 -81c-68 -22 -132 -33 -192 -33h-34c-141.333 0 -271.333 63 -390 189c-6.66699 13.333 -24 39.333 -52 78c-10.667 22.667 -18 48.667 -22 78c4 41.333 17.333 62 40 62h13
c4.66699 0 38.667 -14 102 -42h6c-26.667 71.333 -40 149.333 -40 234c0 111.333 37 254.333 111 429c54.667 114 128 235.667 220 365c20 26 37.333 39 52 39zM192 576.998c0 -98.667 26.667 -189.668 80 -273.001v-9c0 -18 -12.333 -28 -37 -30
c-39.333 12.667 -91 33 -155 61l-3 -6c6 -21.333 28.667 -57.333 68 -108c100 -100.667 213.667 -151 341 -151c88 0 172.333 23.333 253 70c0 4 40.333 44 121 120c41.333 52.667 62 107.334 62 164.001c0 95.333 -46.333 192 -139 290
c-43.333 37.333 -87.666 56 -132.999 56h-7c-45.333 0 -100 -21.667 -164 -65c-18.667 -5.33301 -36 -8 -52 -8c-41.333 15.333 -67 93.333 -77 234h3l-3 6c0 42.667 9 116 27 220c-10.667 -6.66699 -37.334 -57 -80.001 -151c-70 -151.333 -105 -291.333 -105 -420z
M353 1089c4 -0.666992 6.00098 -2.33203 6.00098 -4.99902c-10.667 -49.333 -16 -96 -16 -140v-8c0 -106.667 19.667 -188.334 59 -245.001c12 -9.33301 23.333 -14 34 -14c23.333 0 56.333 15 99 45c38 20 72 30 102 30h19c34 0 69 -13 105 -39
c49.333 -41.333 89.666 -95 120.999 -161c20.667 -47.333 31 -90.333 31 -129v-16c0 -83.333 -54.667 -166 -164 -248c0 -26.667 -62 -54.667 -186 -84c-36.667 -3.33301 -67.667 -5 -93 -5c-2 0 -5 0.666992 -9 2c-2 0 -3 -0.666992 -3 -2c-56.667 0 -127 22.333 -211 67
c-66.667 47.333 -103.667 82.333 -111 105c-30.667 34.667 -46 57 -46 67l6 3c32 -14.667 80.333 -34 145 -58c29.333 8 44 21 44 39c0 4.66699 -16.667 36 -50 94c-22.667 58 -34 128.667 -34 212v31c0 1.33301 1 2 3 2c0 2 -1 3 -3 3c0 54 23.667 150.667 71 290
c30.667 71.333 57.667 126 81 164zM415.001 506.999l-0.00195312 -5.99902c0 -20 2 -37.333 6 -52h-3c22.667 -145.333 47.334 -218 74.001 -218c0 -4.66699 14.333 -8.33398 43 -11.001c38 0 89.667 20.333 155 61c28.667 31.333 43 59.333 43 84v17
c0 32.667 -45.333 71.667 -136 117c-79.333 29.333 -124.666 44 -135.999 44c-30.667 -3.33301 -46 -15.333 -46 -36zM457.999 535l6 0.000976562c175.333 -50.667 263 -106.334 263 -167.001c0 -56 -51.667 -100.667 -155 -134c-15.333 -4 -29.666 -6 -42.999 -6h-3
c-43.333 0 -72.333 48.333 -87 145l-18 128c7.33301 22.667 19.666 34 36.999 34zM500.999 457.001l-3 -6c16 -105.333 30.333 -158 43 -158c74.667 22 112 46 112 72v3c-1.33301 23.333 -52 53 -152 89z" />
    <glyph glyph-name="c" unicode="c" horiz-adv-x="905" 
d="M497 1024l28.001 -0.000976562c46.667 0 126 -22.333 238 -67c17.333 -2 30.333 -3 39 -3h26c26.667 6.66699 41.334 10 44.001 10h13c13.333 -7.33301 20 -16.666 20 -27.999c-14.667 -46.667 -46.334 -90 -95.001 -130
c-32.667 -26.667 -78.334 -48.334 -137.001 -65.001c-65.333 -18 -120.666 -56.667 -165.999 -116c-32.667 -47.333 -49 -92.333 -49 -135c13.333 -56 38.333 -103.667 75 -143c32 -22 60.333 -35 85 -39h18c48.667 0 105.667 40 171 120c26.667 39.333 45.667 59 57 59h5
c20.667 0 31 -22.333 31 -67c0 -108 -44 -202.333 -132 -283c-106.667 -91.333 -200.667 -137 -282 -137h-46c-92.667 0 -190.334 45.667 -293.001 137c-98 108 -147 218 -147 330c0 114.667 38 211.334 114 290.001c78 125.333 173.667 208.333 287 249
c30.667 12 62.667 18 96 18zM59.001 476.999c0 -132 62.334 -247.001 187.001 -345.001c72 -50 143.333 -75 214 -75c95.333 0 193.666 50 294.999 150c48 55.333 75 107.333 81 156h-8c-32.667 -39.333 -65.667 -68 -99 -86c-34.667 -18.667 -64.667 -28 -90 -28h-18
c-34 0 -78 19 -132 57c-48 55.333 -77.333 114 -88 176c-2 6.66699 -3 12.667 -3 18c0 56 27.667 118.333 83 187c63.333 66 128 105 194 117c76.667 28 121.667 57.333 135 88l-6 2h-2c-39.333 0 -89.333 14 -150 42c-64.667 20.667 -109.667 31 -135 31
c-138.667 0 -267 -96 -385 -288c-48.667 -55.333 -73 -122.666 -73 -201.999zM504.002 961.998l0.000976562 -3.00195c2 0 3 1 3 3c37.333 0 85.666 -11.333 144.999 -34c5.33301 0 30.333 -9.33301 75 -28c40 -7.33301 63.333 -12.666 70 -15.999v-3
c-40 -39.333 -90 -66 -150 -80c-44 -6 -102 -43 -174 -111c-45.333 -63.333 -71 -116.333 -77 -159c-2 -11.333 -3 -20.666 -3 -27.999c0 -49.333 26 -111.666 78 -186.999c56 -50 111 -75 165 -75c51.333 0 112.666 33.667 183.999 101
c3.33301 -0.666992 5 -2.33398 5 -5.00098c-23.333 -73.333 -71.666 -136.333 -144.999 -189c-76.667 -55.333 -145.667 -83 -207 -83h-20c-93.333 0 -182.333 42.333 -267 127c-80.667 88 -121 184.667 -121 290c0 62.667 19.667 123.334 59 182.001
c12 7.33301 28.333 30.666 49 69.999c28.667 44 72.667 92.333 132 145c74 55.333 140.333 83 199 83z" />
    <glyph glyph-name="d" unicode="d" horiz-adv-x="804" 
d="M467 1435c57.333 0 134.335 -151.001 231.002 -453.001c35.333 -141.333 53 -267.333 53 -378v-16c0 -9.33301 1 -18 3 -26c-4 -63.333 -9 -116 -15 -158c4 0 6 -1 6 -3c6.66699 4 12.667 6 18 6h11c16 0 26 -12 30 -36c0 -101.333 -50.333 -196.666 -151 -285.999
c-82.667 -56.667 -169.334 -85 -260.001 -85v3c-4 -2 -7 -3 -9 -3c-182 0 -304 76.667 -366 230c-10 35.333 -16 71.333 -18 108c15.333 126.667 52.666 229.667 111.999 309c54 68 119 102 195 102c38 0 86.333 -10 145 -30c8 -2 16 -3 24 -3l3 6c4 70 6 135.667 6 197v33
c0 160.667 -18.667 304 -56 430v4c4 32.667 16.667 49 38 49zM535.002 1218c12 -80.667 18 -182.334 18 -305.001v-7c0 -190 -12 -285 -36 -285l-14 -4h-6c-6 0 -43.667 15.333 -113 46c-29.333 6.66699 -56 10 -80 10c-115.333 0 -193 -104 -233 -312
c0 -8.66699 -1 -13 -3 -13c0 -2 1 -3 3 -3c0 -2.66699 -1 -6 -3 -10c0 -95.333 49.333 -171 148 -227c48.667 -21.333 103.667 -32 165 -32c166 0 278.333 71 337 213v3h-9c-8 -6.66699 -15.667 -10 -23 -10c-20 5.33301 -30 16.333 -30 33v10c20 98.667 30 192.667 30 282
c0 151.333 -39.333 334.333 -118 549c-17.333 40.667 -28.333 61.334 -33 62.001zM556.002 1162c40.667 -99.333 73.001 -206.333 97.001 -321c12 -67.333 20 -135.333 24 -204v-10l3 -16h-3c0 -2.66699 1 -4 3 -4c0 -2 -1 -5 -3 -9c0 -6.66699 1 -10 3 -10
c0 -85.333 -12 -174 -36 -266c0 -27.333 13 -45 39 -53h3l15 4l3 -7c-68.667 -120.667 -168.334 -181 -299.001 -181h-68c-64 0 -128 27.333 -192 82c-45.333 51.333 -68 104 -68 158v17c14.667 102 41.334 181.667 80.001 239c44 57.333 94 86 150 86
c45.333 0 105.666 -18.667 180.999 -56l15 -4c33.333 0 50 38.333 50 115c4 40.667 6 98.667 6 174c0 10 1 24.333 3 43l-3 7c0 2 1 3 3 3c-2 14.667 -3 26.667 -3 36c0 57.333 -3 115.333 -9 174zM180.003 409.999v-3c0 -66.667 48.333 -125.667 145 -177
c18.667 -6.66699 32.667 -10 42 -10c48.667 0 73 43.667 73 131l-3 13c0 2.66699 1 4 3 4l-8 88c2 12 3 24.333 3 37c-12 26 -27 39 -45 39c-54 0 -116 -24 -186 -72c-16 -18 -24 -34.667 -24 -50zM384.003 524.999c28 -6.66699 42 -20.667 42 -42
c4 -78.667 6 -122.667 6 -132v-26c-4.66699 -63.333 -22.667 -95 -54 -95h-23c-44.667 0 -96 40.333 -154 121c-8 20 -12 37.667 -12 53v6c0 48.667 65 87 195 115zM260.003 396.999c0 -24.667 29.668 -54 89.001 -88c4 -2.66699 7 -4 9 -4l6 10v30c0 42 -2 73.667 -6 95h-9
c-16.667 0 -46.334 -13 -89.001 -39v-4z" />
    <glyph glyph-name="e" unicode="e" horiz-adv-x="909" 
d="M492 1023c155.333 0 275.332 -80.668 359.999 -242.001c2 -3.33301 3 -8.33301 3 -15v-10c0 -22.667 -46 -66 -138 -130c-42 -35.333 -119.667 -91 -233 -167c-6.66699 -19.333 -10 -43 -10 -71c0 -43.333 23 -67.333 69 -72c78 0 169.667 41.333 275 124
c26.667 31.333 45.334 47 56.001 47h8c15.333 0 24 -12.333 26 -37v-4c0 -96.667 -36.333 -198.667 -109 -306c-76 -93.333 -201 -140 -375 -140c-166 0 -288.667 93 -368 279c-13.333 0 -30.333 39.333 -51 118c-3.33301 20.667 -5 39.334 -5 56.001c0 188 67 343 201 465
c92.667 70 189.667 105 291 105zM60.999 476.999l0.00292969 -27c0 -49.333 16.667 -96 50 -140c65.333 -159.333 168.666 -239 309.999 -239h8c184 0 304 57 360 171c19.333 32 34.333 72.333 45 121h-3c-61.333 -45.333 -124 -78.333 -188 -99
c-38.667 -10.667 -69.334 -17 -92.001 -19c-92 0 -138 54.667 -138 164c0 70.667 29 117.334 87 140.001c140.667 102.667 235.334 174 284.001 214l2 6v3c-72.667 120 -168 180 -286 180c-170.667 0 -299.334 -83.667 -386.001 -251
c-26.667 -63.333 -43.334 -126.333 -50.001 -189c-2 -14.667 -3 -26.334 -3 -35.001zM500.002 945.999c115.333 0 209 -59 281 -177c-118.667 -95.333 -232.667 -179 -342 -251c-20.667 -28 -31 -69.333 -31 -124v-22c0 -38.667 20.333 -77 61 -115
c27.333 -12 53.666 -18 78.999 -18c74.667 0 164.667 36 270 108c3.33301 -0.666992 5 -2.66699 5 -6c-30 -98 -74 -165 -132 -201c-27.333 -23.333 -85.666 -42 -174.999 -56c-8 0 -35.333 -2 -82 -6c-155.333 0 -263.666 84.667 -324.999 254
c-28.667 22 -43 71.667 -43 149c0 14 3.66699 36.667 11 68c0 2 -1 3 -3 3c29.333 132 79.666 229 150.999 291c77.333 66 167.333 99 270 99zM310.002 647.999v-3.00098c0 -26 12.333 -46.667 37 -62h10c50 0 128.667 38.333 236 115c24.667 22 37 44.667 37 68
c0 16 -16 34.667 -48 56c-86.667 38.667 -139.334 58 -158.001 58h-6c-33.333 0 -68.666 -68 -105.999 -204c-1.33301 -11.333 -2 -20.666 -2 -27.999zM421.002 870.998l7.99902 0.00195312c45.333 -6 104.333 -30.667 177 -74c10.667 -14.667 16 -28.334 16 -41.001
c0 -40.667 -76.667 -95.334 -230 -164.001c-22 -2 -33.667 -3 -35 -3c-21.333 0 -35.333 21.667 -42 65c13.333 73.333 37 138.333 71 195c14.667 14.667 26.334 22 35.001 22zM381.001 673v-6h3c30.667 6 82.667 33.667 156 83v3c-8 9.33301 -43.333 25 -106 47
c-14 -10.667 -31.667 -53 -53 -127z" />
    <glyph glyph-name="f" unicode="f" horiz-adv-x="617" 
d="M320 1432c58 0 127.664 -26.998 208.997 -80.998c58 -50.667 87 -111.667 87 -183v-15c-2 -24.667 -13.333 -37 -34 -37c-3.33301 0 -28.666 15.667 -75.999 47c-23.333 10 -45.666 15 -66.999 15h-4c-57.333 0 -118 -35.333 -182 -106
c-12 -16.667 -18 -29.334 -18 -38.001l11 -2h21c40.667 0 107 12.333 199 37h11c28.667 -7.33301 43 -27 43 -59c0 -68.667 -80.667 -156 -242 -262c-34.667 -74.667 -52 -150.334 -52 -227.001v-15c0 -135.333 46.333 -285 139 -449c3.33301 -16.667 5 -28.334 5 -35.001
c-5.33301 -14.667 -13.666 -22 -24.999 -22c-37.333 6.66699 -95 58.667 -173 156c-114.667 165.333 -172 359.333 -172 582v27c-0 92.667 11.333 206.334 34 341.001c17.333 76 58.333 156 123 240c56 57.333 110.333 86 163 86zM51.9971 773.002l-0.00292969 -17.002
c0 -267.333 71.667 -476.666 215 -627.999v3c-61.333 136 -92 262.667 -92 380c0 103.333 22.333 196.333 67 279c10.667 20 25.667 30 45 30c54.667 36.667 102.334 77 143.001 121c18 20.667 30.667 41 38 61c-1.33301 3.33301 -2 6 -2 8
c-93.333 -23.333 -162.666 -35 -207.999 -35h-3c-50.667 0 -76 16.667 -76 50c0 38.667 26.333 81.334 79 128.001c60.667 54 120.334 81 179.001 81c38 0 79 -12.333 123 -37v3c0 35.333 -24.667 73 -74 113c-70 41.333 -123.667 62 -161 62
c-92.667 0 -172.667 -90.333 -240 -271c-22 -138 -33 -248.333 -33 -331zM313.994 1368h18.001c54 -6 109 -29 165 -69c37.333 -38.667 56 -67.667 56 -87l-4 -2h-2c-40 21.333 -76 32 -108 32c-2.66699 -2 -6.33398 -3 -11.001 -3c-1.33301 0 -2 1 -2 3
c-48.667 0 -110.667 -32 -186 -96c-39.333 -40 -62 -79.667 -68 -119c0 -33.333 21.667 -52.333 65 -57h21c1.33301 0 2 -0.666992 2 -2l4 2h7c46 0 108.667 11.667 188 35l2 -5c-16 -42 -63.667 -92.333 -143 -151c-17.333 -15.333 -36.666 -25 -57.999 -29
c-14 -12 -26 -29.333 -36 -52c-36 -75.333 -54 -161.666 -54 -258.999v-23c0 -85.333 24.667 -191.333 74 -318l-4 -3c-77.333 94.667 -130.333 210 -159 346c-9.33301 49.333 -16.333 90.666 -21 123.999c0 1.33301 1 2 3 2c-4.66699 30 -7 77 -7 141v2c0 2 0.666992 3 2 3
c0 1.33301 -0.666992 2 -2 2c14 214 32.667 339 56 375c65.333 138.667 132.666 208 201.999 208z" />
    <glyph glyph-name="g" unicode="g" horiz-adv-x="899" 
d="M488 1019c110 0 208.669 -37.667 296.002 -113c78 -78.667 117 -179.334 117 -302.001c0 -106 -22.667 -280 -68 -522c-40.667 -154.667 -98.334 -266 -173.001 -334c-80.667 -71.333 -172 -123 -274 -155c-29.333 -7.33301 -52 -11 -68 -11h-22
c-134.667 0 -230.334 82.667 -287.001 248c-6 26.667 -9 49.667 -9 69v14c7.33301 63.333 29 95 65 95c29.333 0 46.666 -25.667 51.999 -77c0 -28 21.667 -54.667 65 -80c34.667 -10 74.667 -15 120 -15c110 0 183 40.667 219 122c43.333 96 65 222.333 65 379
c-2 4 -3 7 -3 9h-6c-82 -29.333 -154 -44 -216 -44h-15c-164 0 -266 99.667 -306 299c0 4.66699 -2 21.334 -6 50.001c0 165.333 99.667 281 299 347c30.667 10 82.334 17 155.001 21zM105.002 660c0 -92 32.998 -173.001 98.998 -243.001c44 -31.333 88 -47 132 -47h47
c41.333 0 111 18.667 209 56h4c30.667 0 51 -28.667 61 -86v-6c0 -234 -44 -398 -132 -492c-53.333 -49.333 -128.666 -74 -225.999 -74c-99.333 0 -169.333 21.667 -210 65h-6c24 -68.667 55 -115 93 -139c34.667 -29.333 70.667 -44 108 -44h12
c79.333 0 179.333 43.333 300 130c70.667 72 116.667 145 138 219c26.667 73.333 51.334 193 74.001 359c14.667 130.667 22 212.667 22 246c0 160.667 -70 268.334 -210 323.001c-46.667 16 -97 24 -151 24c-111.333 0 -211 -41.667 -299 -125
c-43.333 -54 -65 -109.333 -65 -166zM454 941.999l37 0.00292969c140.667 0 241.334 -60.333 302.001 -181c20.667 -48 31 -101.333 31 -160c-16.667 -201.333 -35.334 -352.333 -56.001 -453c-26.667 -138.667 -77 -251.334 -151 -338.001
c-80.667 -70.667 -164 -118.334 -250 -143.001c-24 -7.33301 -51.667 -11 -83 -11c-46 0 -94.333 26.667 -145 80c-14 21.333 -26.333 44 -37 68l6 3c46 -30 104.667 -45 176 -45c0 -2 1 -3 3 -3c159.333 0 264.333 62.333 315 187c28 72 47.333 157 58 255c0 2 -1 3 -3 3
c4 25.333 7 72.666 9 141.999c-20.667 59.333 -37 89 -49 89h-12c-14 0 -50 -11.667 -108 -35c-19.333 -8 -57.333 -16 -114 -24v3l-7 -3h-12c-2 0 -3 1 -3 3l-6 -3c-79.333 0 -139 27.667 -179 83c-41.333 63.333 -62 128.333 -62 195c-2 0 -3 1 -3 3
c0 104 59.667 186 179 246c63.333 26 118 39 164 39zM222 631.002l0.000976562 -6c0 -52.667 54.667 -89.334 164 -110.001c27.333 -2 47.666 -3 60.999 -3h10c57.333 0 86 25.667 86 77v39c-10 112.667 -30.667 169 -62 169h-6
c-168.667 -31.333 -253 -86.666 -253 -165.999zM469.001 788.002h5.99902c30.667 0 49.334 -43.667 56.001 -131c4 0 6 -19.667 6 -59c0 -53.333 -32 -80 -96 -80c-88 0 -154.667 23.667 -200 71c-8.66699 20.667 -13 36.667 -13 48c0 68 80.333 118.333 241 151z
M302 634.002v-6c15.333 -23.333 65 -37.333 149 -42c10 2 15 7 15 15c-4 63.333 -10.333 101 -19 113c-96.667 -23.333 -145 -50 -145 -80z" />
    <glyph glyph-name="h" unicode="h" horiz-adv-x="909" 
d="M341 1428c35.333 -2.66699 53 -15 53 -37c-57.333 -229.333 -86 -409 -86 -539c2.66699 -48 6 -75.333 10 -82c60.667 38.667 123 58 187 58c104 0 214.667 -45 332 -135c48 -73.333 72 -147 72 -221v-37c0 -163.333 -117 -307.333 -351 -432c-4 -2 -8.33301 -3 -13 -3
h-10c-21.333 0 -34.333 15 -39 45c48 114 72 199 72 255v16c0 78.667 -40.667 132.667 -122 162h-19c-41.333 0 -72 -48.667 -92 -146c-20 -99.333 -30 -177.333 -30 -234v-13c0 -22.667 -19.667 -37.667 -59 -45h-6c-38 0 -95 80.333 -171 241c-46 115.333 -69 226 -69 332
c0 260 100.667 526.333 302 799c11.333 8 24.333 13.333 39 16zM75 626c0 -178.667 50.333 -338.666 151 -479.999h4c28 196.667 48.667 295 62 295c32 65.333 78 98 138 98h6c66.667 0 127 -38 181 -114c17.333 -38.667 26 -79.334 26 -122.001
c0 -51.333 -15.333 -117.666 -46 -198.999h7c155.333 101.333 233 219 233 353c0 66.667 -21 133 -63 199c-100 74 -187.333 111 -262 111h-10c-62.667 0 -121.667 -27.333 -177 -82c-8 -4 -16.667 -6 -26 -6c-42 0 -63 50.667 -63 152v45c0 88 15.333 212.667 46 374
c-53.333 -66 -107 -177.333 -161 -334c-30.667 -104.667 -46 -201.334 -46 -290.001zM263 1205c0 -2 1.00195 -2.99902 3.00195 -2.99902c-24 -138.667 -36 -232.334 -36 -281.001h-4l4 -5v-3c0 -2 -1.33301 -3 -4 -3c0 -1.33301 1.33301 -2 4 -2l-4 -14v-7
c0 -142 18.667 -213 56 -213c0 -3.33301 5.66699 -5 17 -5c17.333 0 45.666 18.667 84.999 56c37.333 24.667 79 37 125 37c79.333 0 169 -40 269 -120c32.667 -66.667 49 -123.334 49 -170.001v-34c0 -111.333 -69 -216.666 -207 -315.999l-6 3
c24 66.667 36 128.667 36 186v5c0 108 -57 182.333 -171 223c-22 5.33301 -38.333 8 -49 8c-72.667 0 -126.334 -47 -161.001 -141c-8.66699 -12.667 -23 -90.334 -43 -233.001l-6 -3c-32 40.667 -61.667 98 -89 172c-30.667 95.333 -46 176 -46 242v64
c0 170.667 58 356.334 174 557.001h4z" />
    <glyph glyph-name="i" unicode="i" horiz-adv-x="514" 
d="M360 1019c64.667 0 107 -13.334 127 -40.001c18 -19.333 27 -36.666 27 -51.999v-4c0 -40.667 -45.667 -66 -137 -76h-20c-67.333 0 -114.333 19.667 -141 59c-2.66699 14.667 -5 23 -7 25c0 46 39 74.667 117 86c12 1.33301 23.333 2 34 2zM288 930.999
c0 -20 21.667 -31.667 65 -35h14c46 2.66699 69 11.667 69 27v4c-9.33301 29.333 -30 44 -62 44h-14c-48 0 -72 -13.333 -72 -40zM367 966.999c24 0 41 -6.33203 51 -18.999c7.33301 -10.667 11 -18.334 11 -23.001c0 -12.667 -17.333 -21 -52 -25h-10c-40 0 -64 9 -72 27
c0 26.667 24 40 72 40zM446 839c35.333 0 55.999 -14.666 61.999 -43.999c0 -14 -33.333 -71 -100 -171c-18 -40.667 -27 -73 -27 -97c0 -8 13.667 -42.667 41 -104c4.66699 -14.667 8 -40 10 -76c0 -112 -46.667 -213.667 -140 -305c-45.333 -28 -78.666 -42 -99.999 -42
h-14c-14.667 0 -26 5 -34 15v12c0 4 12.667 18 38 42c4.66699 16 7 27.333 7 34v6c0 46 -24 87 -72 123c-78 84 -117 160.667 -117 230c-0 80.667 58.333 170 175 268c77.333 59.333 156.333 95.666 237 108.999h34zM78.999 458.001c0 -73.333 53.667 -158.332 161 -254.999
c14 -24 23.333 -52.667 28 -86h6c52.667 77.333 79 159.666 79 246.999c0 31.333 -16 78 -48 140c0 4.66699 -1 16.667 -3 36h3c0 1.33301 -1 2 -3 2c0 39.333 40 118 120 236l3 9l-7 2c-70 -13.333 -144.333 -54 -223 -122c-77.333 -79.333 -116 -149 -116 -209z
M404.999 780.002c4.66699 0 7.00195 -1.33105 7.00195 -3.99805c-50.667 -74.667 -86.334 -136 -107.001 -184c-6.66699 -28.667 -10 -50.334 -10 -65.001c0 -17.333 15 -55.666 45 -114.999h-4c4.66699 -6.66699 7 -11.334 7 -14.001h-3l3 -5v-18
c0 -3.33301 1 -6.33301 3 -9l-3 -4c2 -2.66699 3 -4.66699 3 -6h-3l3 -4c0 -2 -1 -3 -3 -3c0 -1.33301 1 -2 3 -2c0 -68 -22.667 -137 -68 -207h-4c-14.667 51.333 -36.334 84.333 -65.001 99c-80 85.333 -120 153.666 -120 204.999v25c0 76.667 65.333 163 196 259
c62.667 34.667 102.667 52 120 52z" />
    <glyph glyph-name="j" unicode="j" horiz-adv-x="600" 
d="M381 1025h8c26.667 0 59.667 -22.333 99 -67c8.66699 -14 13 -25.333 13 -34v-5c0 -46.667 -32.667 -86 -98 -118c-11.333 -3.33301 -21 -5 -29 -5c-47.333 0 -78 33.667 -92 101c-2 11.333 -3 18 -3 20c0 50.667 26.667 86 80 106c8.66699 1.33301 16 2 22 2zM336 919
c0 -36 12.667 -58 38 -66c28 0 51 22 69 66c0 14 -19.667 30.333 -59 49h-8c-26.667 -8.66699 -40 -25 -40 -49zM384 963c19.333 -7.33301 37.333 -21 54 -41v-3c-16.667 -41.333 -40.667 -62 -72 -62c-16.667 20 -25 40 -25 60c4 30.667 18.333 46 43 46zM448 803
l5.00098 0.00195312c14 0 22.333 -9.66699 25 -29c-18 -96.667 -27 -182.334 -27 -257.001v-29c0 -128 31.333 -235 94 -321c36.667 -62 55 -135 55 -219c0 -128.667 -47.333 -235.334 -142 -320.001c-44 -31.333 -106 -47 -186 -47c-96.667 0 -172.334 29.667 -227.001 89
c-28 40 -42 82.667 -42 128c0 76.667 25.667 162 77 256c10 18 20 27 30 27h12c12 -7.33301 18 -15.333 18 -24v-20c0 -152.667 31.333 -229 94 -229c76 10 116 29.667 120 59c1.33301 6 2 12.667 2 20c0 59.333 -33 133 -99 221c-28.667 44.667 -43 81 -43 109
c0 7.33301 1 15.333 3 24l-5 64c0 206 70.333 368.667 211 488c14 6.66699 22.333 10 25 10zM269.001 303.002c3.33301 -46.667 5 -75.333 5 -86l-2 -5c4.66699 -27.333 32.667 -77.333 84 -150c38 -60.667 57 -121.667 57 -183c0 -52 -31.333 -89 -94 -111
c-38.667 -11.333 -70.334 -17 -95.001 -17c-68 0 -112.667 57.667 -134 173c0 2.66699 -1.66699 4 -5 4c-16.667 -47.333 -25 -89 -25 -125v-5c0 -72.667 38.333 -121.334 115 -146.001c18.667 -6 54.334 -10.667 107.001 -14c80.667 0 138.667 22 174 66
c58 72.667 87 148.334 87 227.001v39c0 74 -28.333 149.667 -85 227c-42.667 84.667 -64 189.667 -64 315c0 42 4 103 12 183h-3c-89.333 -101.333 -134 -232 -134 -392zM394.001 675.003c3.33301 -0.666992 5.00098 -2.33398 5.00098 -5.00098
c-6.66699 -54 -10 -107.333 -10 -160v-5c0 -154.667 34 -277 102 -367c31.333 -56.667 47 -116 47 -178v-34c-2 -44.667 -17 -99 -45 -163c-46 -78.667 -107.333 -118 -184 -118h-37c-108.667 0 -175 35.333 -199 106c-5.33301 13.333 -8 31.333 -8 54s6 55.667 18 99h2
c3.33301 0 8.33301 -15.667 15 -47c25.333 -74 70 -111 134 -111c47.333 0 95.666 15.667 144.999 47c26 22.667 39 52.334 39 89.001c0 76 -32.333 156.333 -97 241c-28 43.333 -42 71.333 -42 84v10c0 1.33301 1 2 3 2c-2 3.33301 -3 6 -3 8c0 1.33301 1 2 3 2
c-3.33301 17.333 -6 38 -8 62h3l-3 5c0 154.667 40 281 120 379z" />
    <glyph glyph-name="k" unicode="k" horiz-adv-x="1026" 
d="M273 1432c17.333 0 28 -12.334 32 -37.001c-18 -221.333 -36 -399.333 -54 -534l5 -3c111.333 150 182.333 285.333 213 406c9.33301 13.333 19.333 20 30 20h5c40 0 60 -71 60 -213c0 -112.667 -30.667 -221.667 -92 -327c-31.333 -34 -47 -53.667 -47 -59
c70.667 -182 218 -324.333 442 -427c107.333 -42 161 -77 161 -105v-5c0 -32.667 -25.333 -49 -76 -49c-88.667 0 -224.334 30.333 -407.001 91c-108.667 43.333 -188.667 88 -240 134c-21.333 20 -42 44.667 -62 74c-9.33301 -66.667 -14 -134 -14 -202v-60
c0 -10.667 2 -38 6 -82c-23.333 -36 -41.666 -54 -54.999 -54c-32.667 0 -79 107 -139 321c-27.333 116.667 -41 228.334 -41 335.001h3c0 2 -1 3 -3 3l3 14c0 250.667 79 498 237 742c13.333 11.333 24.333 17 33 17zM63 650.999c0 -168 32.665 -334.998 97.998 -500.998
c3.33301 0 5 3 5 9c0 196.667 14.667 324.667 44 384c10.667 7.33301 20.667 11 30 11c26 0 45 -40.667 57 -122c34.667 -54.667 87.334 -97.334 158.001 -128.001c53.333 -36.667 165.333 -75.667 336 -117c26 -5.33301 60.333 -11 103 -17v6
c-136 51.333 -260.333 132 -373 242c-97.333 116.667 -150 202.667 -158 258v11c0 21.333 19 53.666 57 96.999c54.667 81.333 82 187.333 82 318v9l-3 28h-5c-33.333 -84.667 -92.666 -187.667 -177.999 -309c-36 -44 -64 -66 -84 -66h-3c-25.333 0 -40 17 -44 51v6
c24 212 39.667 361.667 47 449h-3c-8 0 -38 -62.667 -90 -188c-50.667 -149.333 -76 -293 -76 -431zM217.998 1236c2 -4 3 -7.00098 3 -9.00098c-18 -202 -32.667 -332.667 -44 -392l3 -5c0 -2 -1 -3 -3 -3c4 -47.333 20.333 -71 49 -71h3c52.667 0 141 119.333 265 358
l2 -6v-11c0 -2 -0.666992 -3 -2 -3l2 -6c0 -2 -0.666992 -3 -2 -3c0 -2 0.666992 -3 2 -3c0 -111.333 -29 -212.666 -87 -303.999c-36.667 -38 -55 -66.333 -55 -85v-11c11.333 -52 46 -118.333 104 -199c80.667 -94.667 141.667 -153.334 183 -176.001
c66 -48 131.333 -86 196 -114v-6h-3c-40.667 0 -142.334 28.667 -305.001 86c-158 68 -237 140.667 -237 218c-10.667 47.333 -28 71 -52 71c-24.667 0 -42 -17 -52 -51c-18 -93.333 -27 -195.666 -27 -306.999h-3l3 -5v-9c0 -4 -2 -6 -6 -6
c-45.333 130 -68 218.333 -68 265c-5.33301 21.333 -10.666 59 -15.999 113h3c0 2 -1 3 -3 3c0 4 1 6 3 6l-3 28v60c0 4 -1 7.66699 -3 11c2 3.33301 3 8.33301 3 15c0 176 48 359.667 144 551h3z" />
    <glyph glyph-name="l" unicode="l" horiz-adv-x="522" 
d="M368 1434c72.667 0 121.333 -109.669 146 -329.002v-12c0 -64.667 -15.667 -117 -47 -157c-42.667 -96.667 -64 -176.667 -64 -240c0 -31.333 34 -111.666 102 -240.999c12 -56 18 -86.333 18 -91c0 -98 -43 -201.333 -129 -310c-38.667 -36 -77.334 -54 -116.001 -54
c-48 0 -76.333 13.333 -85 40v3c5.33301 16 8 37 8 63v3c0 88.667 -50 216.334 -150 383.001c-34 73.333 -51 142 -51 206v23c0 64.667 35.667 149.667 107 255c142.667 234 214 380 214 438c18.667 12 34.334 18.667 47.001 20zM376.999 1274
c-57.333 -114.667 -144.333 -269.334 -261 -464.001c-11.333 -29.333 -17 -57 -17 -83v-17c0 -2 -1.66699 -3 -5 -3l5 -6v-17c0 -73.333 42.667 -181 128 -323c48.667 -96.667 73 -181.667 73 -255v-17h4c42 33.333 77.667 94.333 107 183c8.66699 51.333 13 82 13 92
c0 45.333 -32.667 126.333 -98 243c-14.667 42.667 -22 75 -22 97c0 76.667 35.667 186.334 107 329.001c3.33301 14 5 31.333 5 52v6c0 61.333 -10 122.333 -30 183h-9zM380.999 1251c11.333 -30 20 -73.001 26 -129.001c0 -2 -1.33301 -3 -4 -3
c2.66699 -10 4 -15.667 4 -17c0 -59.333 -11.333 -102.333 -34 -129c-51.333 -110 -77 -196.667 -77 -260v-6c0 -52.667 30 -132 90 -238c16.667 -30 25 -58.333 25 -85v-41c0 -72.667 -31.333 -149.667 -94 -231h-4l-5 5v6c0 87.333 -54 223 -162 407
c-26 62.667 -39 116 -39 160v26c0 59.333 27 126 81 200c77.333 130.667 140.333 242.334 189 335.001h4z" />
    <glyph glyph-name="m" unicode="m" horiz-adv-x="1502" 
d="M1108 1023c128 0 237.999 -57.332 329.999 -171.999c42.667 -62.667 64 -130 64 -202c0 -62 -34.667 -153.667 -104 -275c-42 -65.333 -98 -126.666 -168 -183.999c-24 -14.667 -50.333 -22 -79 -22c-43.333 7.33301 -65 24.333 -65 51c34 89.333 55.667 150 65 182
c2 22 3 38.333 3 49v20c0 52.667 -23.667 87 -71 103h-4c-37.333 0 -82.666 -46.333 -135.999 -139c-15.333 -58 -44 -87 -86 -87c-38 0 -75 21 -111 63c-58 56.667 -132.333 94 -223 112c-8.66699 1.33301 -18 2 -28 2h-18c-15.333 0 -26 -19.333 -32 -58
c0 -70.667 39.333 -198.334 118 -383.001c2 -2.66699 4.33301 -11.667 7 -27c-8.66699 -37.333 -33.667 -56 -75 -56h-15c-60 0 -159 42.667 -297 128c-122 97.333 -183 210 -183 338v24c0 133.333 65.667 288.666 197 465.999c21.333 18 63.333 27 126 27
c176.667 0 323.667 -45 441 -135l7 -2l89 79c84 65.333 166.667 98 248 98zM773.999 716.001c-34.667 0 -70.333 24 -107 72c-93.333 73.333 -202 110 -326 110h-22c-18 0 -36 -18.667 -54 -56c-86 -128 -129 -252.667 -129 -374v-7c0 -142 86 -255.333 258 -340h11
c-62 157.333 -93 263.333 -93 318v22c0 70.667 33.333 117.667 100 141c22.667 4.66699 45.334 7.66699 68.001 9c110.667 0 220.667 -38 330 -114c0 -3.33301 6 -5 18 -5c75.333 112 158 168 248 168v-2l7 2c77.333 0 138.333 -34.333 183 -103
c16.667 -30.667 25 -59.667 25 -87v-4c0.666992 -3.33301 3 -5 7 -5h3c43.333 77.333 65 145.333 65 204c0 86 -46.667 165 -140 237c-46 22.667 -77 34 -93 34h-25c-64.667 0 -141.334 -49.333 -230.001 -148c-35.333 -48 -70 -72 -104 -72zM1108 927.001
l6.99805 -0.00195312c54 0 109 -30 165 -90c48 -62 72 -118 72 -168c-2 -22 -4.66699 -33 -8 -33l4 -5v-4c0 -26 -13 -65 -39 -117h-4c-24.667 68.667 -67.667 116.667 -129 144c-40.667 12 -74 18 -100 18c-50 -5.33301 -90.667 -16.666 -122 -33.999
c-62 -40.667 -105 -84 -129 -130l-8 -2c-110 77.333 -225.667 116 -347 116c-35.333 0 -75 -12 -119 -36c-35.333 -35.333 -53 -67.333 -53 -96v-36c0 -1.33301 -1.33301 -2 -4 -2l4 -4v-5c0 -1.33301 -1.33301 -2 -4 -2l4 -4v-18c0 -45.333 28.667 -137.333 86 -276l-8 -2
c-29.333 15.333 -56.666 33.333 -81.999 54c-35.333 25.333 -66.333 58 -93 98c-19.333 26.667 -36 71.667 -50 135v2c0 1.33301 1 2 3 2l-3 16c0 30 2.33301 68 7 114h3l-3 4c24 92 63.333 182.333 118 271c24 34.667 37 52 39 52h40c58 0 123.667 -14.333 197 -43
c78.667 -42.667 118 -71 118 -85l43 -38c0 -9.33301 21.667 -16.666 65 -21.999c36 6 62.333 19.333 79 40c54.667 68 108.334 120.333 161.001 157c41.333 19.333 71.333 29 90 29z" />
    <glyph glyph-name="n" unicode="n" horiz-adv-x="1102" 
d="M623 1023l9.00293 -0.00390625c114.667 0 245 -57.667 391 -173c48 -93.333 72 -151.666 72 -174.999c4.66699 -25.333 7 -46.666 7 -63.999v-21c0 -163.333 -104.333 -335 -313 -515l-22 -5h-7c-16 0 -33.667 13.667 -53 41v15c44 89.333 66 166 66 230v5
c0 114.667 -71 188.334 -213 221.001c-6 4 -25.667 7.66699 -59 11c-65.333 -18.667 -118.666 -55.667 -159.999 -111c-39.333 -60 -59 -119.333 -59 -178v-41c0 -52 13.333 -124.333 40 -217c-10.667 -30.667 -26.334 -46 -47.001 -46h-6c-31.333 6 -72 42 -122 108
c-46.667 50 -86.334 118.667 -119.001 206c-12.667 40 -22 90 -28 150h3l-3 5c0 180.667 76 355 228 523c9.33301 6.66699 17.666 10 24.999 10h10c20 0 36.667 -21.333 50 -64c5.33301 -5.33301 17.666 -28.666 36.999 -69.999h10c66 103.333 153.667 155 263 155z
M360.003 759.996l-5.99902 -0.000976562c-23.333 0 -44.333 25.667 -63 77c-26.667 48.667 -41.334 73 -44.001 73c-116.667 -141.333 -175 -285.666 -175 -432.999c0 -124.667 51 -244 153 -358h3c-12 52.667 -18 105 -18 157v5c0 182 90.667 305.667 272 371h19
c56 0 126.667 -20.667 212 -62c88 -54 132 -134.667 132 -242c0 -34 -10.333 -86.333 -31 -157v-3c144 139.333 216 273.333 216 402v10c0 89.333 -31.333 169.333 -94 240c-122 82.667 -222.333 124 -301 124h-9c-106 0 -185.333 -63.667 -238 -191
c-10.667 -8.66699 -20 -13 -28 -13zM616.004 958.995h16c82.667 0 183 -42.333 301 -127c60 -68 90 -145.333 90 -232c0 -126.667 -62.333 -253.667 -187 -381l-7 3c14.667 48 22 91.667 22 131c0 133.333 -69.667 225.333 -209 276
c-67.333 19.333 -116.666 29.666 -147.999 30.999c-74.667 -17.333 -142.334 -57.666 -203.001 -120.999c-60.667 -74 -91 -167 -91 -279c4.66699 -51.333 10 -88.333 16 -111l-6 -2c-62.667 72 -102.334 152 -119.001 240c-2 0 -6.33301 24.667 -13 74c0 2 1 3 3 3l-3 18
v13c0 1.33301 1 2 3 2c0 2 -1 3 -3 3c0 105.333 47 228 141 368l28 29c8 -7.33301 31 -49.666 69 -126.999c8 -10.667 21.667 -17.334 41 -20.001c25.333 0 45 23 59 69c54.667 93.333 121.334 140 200.001 140z" />
    <glyph glyph-name="o" unicode="o" horiz-adv-x="1010" 
d="M521 1024c27.333 0 83.668 -16 169.001 -48c212.667 -99.333 319 -250.333 319 -453c0 -108 -24.667 -218 -74 -330c-33.333 -18.667 -59 -37.667 -77 -57c-102 -90.667 -216.333 -136 -343 -136c-130.667 -0 -265.334 46.333 -404.001 139
c-74 106 -111 220.333 -111 343c0 189.333 126.667 352 380 488c74.667 36 121.667 54 141 54zM77.002 469v-18.998c0 -74.667 30.333 -162.334 91 -263.001c126 -76 240.333 -114 343 -114c138.667 0 257.667 60.333 357 181c22 0 43.333 80.333 64 241v22
c0 205.333 -117.667 345.666 -353 420.999l-48 10h-13c-88 -27.333 -180 -79 -276 -155c-110 -96.667 -165 -204.667 -165 -324zM525.002 942.002c93.333 -11.333 188.665 -58.001 285.998 -140.001c76 -76 114 -176.333 114 -301v-3c0 -4.66699 -1 -9 -3 -13l3 -6
c-1.33301 -17.333 -3.66602 -26 -6.99902 -26c0 -2 1.33301 -3 4 -3c-14 -79.333 -28.667 -138.333 -44 -177l-81 -83c-84.667 -74 -180 -111 -286 -111c-109.333 0 -223.666 40.333 -342.999 121c-56 96.667 -84 183.334 -84 260.001c0 205.333 144.667 366 434 482h7z
M286.001 466.001v-32c0 -32.667 28 -51.667 84 -57c72 0 174 27.667 306 83c13.333 16 20 27.667 20 35c0 16 -31.333 58 -94 126c-62 78.667 -102.333 118 -121 118h-7c-28 0 -79.333 -63.667 -154 -191c-16 -26 -27.333 -53.333 -34 -82zM481.001 729.001
c21.333 -1.33301 65 -45.667 131 -133c49.333 -49.333 74 -82 74 -98c0 -32 -60.333 -61.667 -181 -89c-49.333 -16.667 -93.333 -25 -132 -25c-53.333 0 -80 22 -80 66c0 54 52.667 144 158 270c12 6 22 9 30 9zM373.001 460l7.00098 -3.00195
c40 0.666992 108.333 18.334 205 53.001v4c-26 32.667 -60.667 72.667 -104 120c-6.66699 0 -31.334 -32.667 -74.001 -98c-22.667 -41.333 -34 -66.666 -34 -75.999z" />
    <glyph glyph-name="p" unicode="p" horiz-adv-x="900" 
d="M497 1019l15.999 -0.000976562c138 0 253 -78.667 345 -236c28 -55.333 42 -107.333 42 -156c0 -139.333 -110 -254 -330 -344c-44 -17.333 -102 -34.333 -174 -51c-16.667 -15.333 -25 -45.333 -25 -90c0 -115.333 39 -255.666 117 -420.999
c14 -22.667 34 -48.334 60 -77.001c0 -2 1 -4.66699 3 -8c-6 -38.667 -19.667 -58 -41 -58c-28 0 -92.333 41.333 -193 124c-211.333 186.667 -317 404 -317 652c0 170.667 56 354.334 168 551.001c114.667 76 224.334 114 329.001 114zM72.999 361.999l0.000976562 -18
c0 -240 112 -450.333 336 -631h3c-74 166.667 -111 302.667 -111 408v11l-3 18h3c0 2 -1 3 -3 3c0 84 33.667 132.667 101 146c105.333 14 215.333 61.667 330 143c65.333 64 98 123 98 177v11c0 88 -50.667 178.667 -152 272c-58 39.333 -117.333 59 -178 59
c-76.667 0 -166.334 -31 -269.001 -93c-21.333 -30.667 -53 -97 -95 -199c-40 -116 -60 -218.333 -60 -307zM491 952.999l18.998 -0.000976562c110 0 202 -67.333 276 -202c22.667 -51.333 34 -87.333 34 -108h-3l3 -5l-3 -11c0 -2 1 -3 3 -3c0 -98 -79 -185.333 -237 -262
c-60 -27.333 -135 -50.333 -225 -69c-43.333 -20.667 -65.666 -69 -66.999 -145c0 -114.667 33 -249 99 -403l-7 -3c-94.667 84 -158 156.333 -190 217c-76 128 -114 250 -114 366h3l-3 5v3c0 172.667 50.667 349.334 152 530.001c98.667 60 185.334 90 260.001 90z
M373.998 655.998c0 -2 -1 -2.99902 -3 -2.99902c0 -1.33301 1 -2 3 -2l-3 -19v-45c0 -51.333 24 -87.333 72 -108c14.667 -4 27.667 -6 39 -6h3c60.667 0 116.667 28.333 168 85c14.667 17.333 22 36.666 22 57.999c-6 51.333 -80 112.333 -222 183c-8.66699 2 -16 3 -22 3
c-30 -10.667 -45 -34.667 -45 -72c-8 -22 -12 -46.667 -12 -74zM439.998 793.999c67.333 -20 139.333 -67.667 216 -143c6 -14 9 -26.333 9 -37v-11c0 -32.667 -32.667 -67 -98 -103c-32.667 -14 -62.334 -21 -89.001 -21c-65.333 8 -98 43.333 -98 106
c-2 2.66699 -3 7.66699 -3 15c8.66699 126 23.334 189 44.001 189c8.66699 3.33301 15 5 19 5zM462.998 711.999c-8.66699 -45.333 -13 -78.999 -13 -100.999c0 -47.333 11.667 -71 35 -71c71.333 17.333 107 42.666 107 75.999c-43.333 48.667 -86.333 80.667 -129 96z" />
    <glyph glyph-name="q" unicode="q" horiz-adv-x="1103" 
d="M433 1023h33.002c197.333 0 329.333 -54.333 396 -163c16.667 -34.667 25 -57.667 25 -69c-2 -108.667 -3 -179.334 -3 -212.001h-3l3 -5c0 -2 -1 -3 -3 -3c0 -1.33301 1 -2 3 -2l-3 -18v-220c0 -4 1 -7.33301 3 -10c0 -2 -1 -3 -3 -3c2 -9.33301 3 -16 3 -20
c8 -230.667 28.333 -355.334 61 -374.001c0 -4 5 -6 15 -6c17.333 0 39.666 61.333 66.999 184c10.667 10 23.667 15 39 15c22.667 0 34 -30 34 -90c2 -9.33301 3 -25.666 3 -48.999c0 -209.333 -30.333 -337.666 -91 -384.999c-19.333 -6.66699 -32.666 -10 -39.999 -10h-3
c-92.667 0 -197.334 111 -314.001 333c-64.667 144 -97 281.667 -97 413v20c0 3.33301 -3.33301 5 -10 5c-94.667 -39.333 -181 -59 -259 -59h-9c-142 0 -235.333 69 -280 207v2l6 36c0 2 -1 4.66699 -3 8c5.33301 234 92.666 382.667 261.999 446
c54.667 19.333 110.667 29 168 29zM73.002 553l0.00195312 -48.9971c20 -60.667 52.667 -102.667 98 -126c38 -16 75.333 -24 112 -24h10c74 0 165.333 24.333 274 73h9c32 -9.33301 49.333 -31.666 52 -66.999v-52c0 -161.333 59.667 -335 179 -521
c64 -86 116 -134.333 156 -145c31.333 0 53.666 81.667 66.999 245h-9c-14.667 -20.667 -34 -31 -58 -31h-9c-73.333 0 -117 88 -131 264c-8.66699 103.333 -13 222.666 -13 357.999c0 15.333 1.33301 32.666 4 51.999l-4 15c2.66699 81.333 6 154.666 10 219.999
c0 75.333 -56 133.666 -168 174.999c-58 15.333 -114 23 -168 23h-57c-142.667 0 -244.334 -60 -305.001 -180c-32.667 -66 -49 -142.667 -49 -230zM433.004 958.003l32.998 -0.00195312c158.667 0 265.334 -38.667 320.001 -116c16 -23.333 24 -47.333 24 -72v-26
c0 -9.33301 -1 -21.333 -3 -36c0 -2 1 -3 3 -3l-3 -13v-46c0 -6 -1 -13.667 -3 -23c2 -3.33301 3 -6 3 -8h-3c0 -2 1 -3 3 -3l-3 -12v-184c0 -42.667 1 -103.667 3 -183l3 -5c0 -2 -1 -3 -3 -3c2.66699 -27.333 5 -42.666 7 -45.999l-4 -5c2.66699 -3.33301 4 -6 4 -8h-4
l4 -5c0 -77.333 16 -161.666 48 -252.999c29.333 -39.333 61 -59 95 -59c18.667 0 39 7.66699 61 23c2 -3.33301 3 -6 3 -8c0 -67.333 -14.333 -135.333 -43 -204l-15 -13c-48.667 19.333 -102.667 73.666 -162 162.999c-111.333 176.667 -167 345.334 -167 506.001v62
c-12.667 37.333 -31 56 -55 56c-7.33301 0 -50 -15.333 -128 -46c-61.333 -18.667 -120.333 -28 -177 -28c-67.333 0 -122 27.333 -164 82c-15.333 21.333 -25.666 40.333 -30.999 57l3 31l-3 10c2 2.66699 3 7 3 13l-3 5l3 5c0 2 -1 3 -3 3l3 13c0 151.333 56 263 168 335
c54.667 29.333 115.667 44 183 44zM192.002 656.001v-7c0 -44.667 82.333 -83.667 247 -117h9c26.667 4 40 15.333 40 34c-6.66699 11.333 -10 18.333 -10 21c12.667 16.667 19 40.667 19 72c-10 124 -28.333 186 -55 186c-4 1.33301 -8 2 -12 2h-13
c-150 -72 -225 -135.667 -225 -191zM424.002 840.001l6 -0.00195312c24 0 39 -24.333 45 -73c8.66699 -43.333 13 -78.666 13 -105.999v-20c0 -22.667 -6.33301 -40 -19 -52v-2c4 -12.667 6 -19.667 6 -21c-4 -18.667 -15 -28 -33 -28
c-162.667 32.667 -244 70.334 -244 113.001c0 48 48.667 98 146 150c40 26 66.667 39 80 39zM274.002 653.999c7.33301 -10.667 51 -26.333 131 -47h6c3.33301 12.667 6.33301 30.667 9 54c-4 42 -9 75 -15 99h-9c-81.333 -45.333 -122 -78.333 -122 -99v-7z" />
    <glyph glyph-name="r" unicode="r" horiz-adv-x="804" 
d="M217 1023c35.333 0 64.334 -28.999 87.001 -86.999c5.33301 -22.667 8 -44.334 8 -65.001v-5c102 31.333 173.667 47 215 47h37c130 0 208.333 -65.667 235 -197c3.33301 -30 5 -54 5 -72c0 -56.667 -8.33301 -85 -25 -85c-2.66699 -1.33301 -6.66699 -2 -12 -2
c-4.66699 0 -37.334 17.333 -98.001 52c-59.333 22 -108.333 33 -147 33c-101.333 0 -175.666 -62 -222.999 -186c-10 -29.333 -15 -59 -15 -89c0 -96.667 52.667 -199 158 -307l2 -11v-2c0 -10 -9 -20 -27 -30c-4.66699 -11.333 -13 -17 -25 -17
c-28.667 -0 -96.334 48.333 -203.001 145c-123.333 128.667 -185 269 -185 421c0 137.333 65 288 195 452c3.33301 0 9.33301 1.66699 18 5zM222.001 958.001c-106.667 -139.333 -159.999 -273.666 -159.999 -402.999c0 -167.333 89 -320.333 267 -459l8 -5h2v3
c-74.667 93.333 -112 183.666 -112 270.999c0 100 40.667 188.667 122 266c52.667 42 112 63 178 63c58 0 129.667 -21 215 -63h2l3 5v8c0 146.667 -64.333 220 -193 220c-70.667 0 -162.334 -23.333 -275.001 -70h-10c-14.667 0 -23 9 -25 27c6.66699 17.333 10 33 10 47
c0 46 -8.33301 76 -25 90h-7zM227.002 951.001l5.00098 -0.000976562c10 -25.333 15 -41 15 -47h-3c1.33301 -2.66699 3 -13 5 -31l-2 -5c0 -1.33301 0.666992 -2 2 -2c-1.33301 -17.333 -6.33301 -33.666 -15 -48.999c0 -16 11.667 -25.667 35 -29c8 0 39.667 11 95 33
c72.667 24 132.667 36 180 36h20c118.667 0 178 -72.333 178 -217l-5 -2c-76 40 -147.667 60 -215 60c-126.667 0 -220 -71.667 -280 -215c-13.333 -42 -20 -75.667 -20 -101v-29c0 -62 26.667 -135.667 80 -221v-3l-5 -2c-95.333 87.333 -151.333 154.666 -168 201.999
c-14.667 16.667 -31.334 59 -50.001 127c-4.66699 20.667 -8.66699 51.334 -12 92.001c0 136 53.333 270.333 160 403z" />
    <glyph glyph-name="s" unicode="s" horiz-adv-x="728" 
d="M450 1023l30 -0.00292969c118.667 0 197.667 -52 237 -156c8 -27.333 12 -52.666 12 -75.999v-7c0 -31.333 -12 -47 -36 -47c-3.33301 0 -38.666 14 -105.999 42c-22 5.33301 -40 8 -54 8h-15c-44 0 -81.667 -23 -113 -69l-3 -12c0 -22 46 -53.667 138 -95
c121.333 -102 182 -191 182 -267v-19c0 -101.333 -75 -194.666 -225 -279.999c-68.667 -30 -127.667 -45 -177 -45c-138.667 0 -239.667 60.667 -303 182c-11.333 8.66699 -17 25.334 -17 50.001v3c0 100.667 20.667 163 62 187h18c8.66699 0 17.667 -19 27 -57
c40 -79.333 97.333 -119 172 -119c20 0 54 7.33301 102 22c9.33301 11.333 14 21.666 14 30.999c0 23.333 -20.333 51.666 -61 84.999c-72.667 24 -119.334 43 -140.001 57c-34 22 -55.333 39.333 -64 52c-48.667 68.667 -73 110.334 -73 125.001
c-4.66699 22.667 -7 46.334 -7 71.001c0 122 56.667 215.333 170 280c82 36 158.667 54 230 54zM104 686.997c0 -48.667 10.335 -83.335 31.002 -104.002c19.333 -34 39 -55.333 59 -64c0 -22.667 44.333 -47.334 133 -74.001c28 0 56.333 -20.333 85 -61
c25.333 -31.333 38 -60.666 38 -87.999c0 -41.333 -25.333 -71.333 -76 -90l-73 -12c-8.66699 -1.33301 -18.334 -2 -29.001 -2c-84.667 0 -153.334 45 -206.001 135h-2c-6.66699 -17.333 -10 -38.666 -10 -63.999v-31c52 -118.667 136.667 -178 254 -178
c124.667 0 235 59.333 331 178c18.667 34 28 61 28 81v31c0 60.667 -55 136.334 -165 227.001c-102.667 41.333 -154 88 -154 140c0 39.333 33 77 99 113c24 11.333 52.667 17 86 17c35.333 0 81.666 -11.667 138.999 -35c0 2.66699 1 4 3 4
c-9.33301 48 -25.333 83.667 -48 107c-41.333 36 -94 54 -158 54c-107.333 0 -200.666 -29 -279.999 -87c-56.667 -53.333 -85 -119 -85 -197zM473.002 963.996c104 0 168 -43.332 192 -129.999c0 -4 0.666992 -10.333 2 -19l-4 -2c-48 23.333 -96.333 35 -145 35
c-37.333 -4.66699 -68 -14 -92 -28c-55.333 -34 -83 -71.333 -83 -112v-9c0 -36 37 -74 111 -114c32.667 -5.33301 78.667 -40.666 138 -105.999c47.333 -52 71 -100.333 71 -145v-14c0 -56.667 -41 -116 -123 -178c-74 -55.333 -152.333 -83 -235 -83
c-91.333 0 -165.333 42 -222 126c-16 28.667 -24 46.667 -24 54v12c0 39.333 3.33301 59 10 59c56 -82 119 -123 189 -123h21c86.667 8.66699 130 19 130 31c30 19.333 45 44.666 45 75.999v5c0 39.333 -28.333 85.666 -85 138.999c-12 6 -33.333 11.667 -64 17
c0 2.66699 -16.333 9 -49 19c-32.667 14 -54 33.667 -64 59c-18 0 -41 27 -69 81c-7.33301 0 -12 25 -14 75c0 86 35.333 155 106 207c69.333 45.333 155.333 68 258 68z" />
    <glyph glyph-name="t" unicode="t" horiz-adv-x="829" 
d="M644 1435c18 -6.66699 27.001 -17.333 27.001 -32c0 -4 -6.66699 -20.667 -20 -50c-70.667 -204 -106 -335.333 -106 -394c0 -8.66699 23.333 -19.667 70 -33c5.33301 -1.33301 12.666 -2 21.999 -2c34 0 80.333 20.667 139 62c8.66699 4.66699 16 7 22 7
c22.667 -4 34 -14.667 34 -32v-10c0 -52.667 -52.333 -132.667 -157 -240c-50 -42.667 -94 -64 -132 -64c-12 -86.667 -33 -181.667 -63 -285c-29.333 -90 -67.333 -170 -114 -240c-52.667 -68.667 -104 -109.334 -154 -122.001h-9c-24 10.667 -36 24 -36 40v7
c0 4.66699 12 40.667 36 108c35.333 128.667 53 241.667 53 339c-3.33301 116.667 -9.33301 175 -18 175c-150.667 0 -226 8.33301 -226 25c-5.33301 0 -9 9 -11 27v10c0 48 73.333 120.667 220 218c30 16 59 27.333 87 34c40 104.667 84.667 198 134 280
c60 80.667 105.667 127.334 137 140.001c40 21.333 61.667 32 65 32zM59.001 734.001c2.66699 -2 5.66504 -3.00098 8.99805 -3.00098c74 -3.33301 123.333 -5 148 -5h16c18.667 0 34.334 -10 47.001 -30c18 0 27 -56.333 27 -169v-48c0 -118.667 -25.667 -255 -77 -409h3
c62.667 30.667 122.334 114.667 179.001 252c27.333 63.333 54.333 173.333 81 330c0 36 10.333 54 31 54h20c63.333 0 135.666 66 216.999 198v5h-2c-45.333 -28.667 -85.666 -43 -120.999 -43c-40 0 -83.333 16 -130 48c-8.66699 16.667 -13 33.334 -13 50.001
c0 52.667 32 178 96 376v3h-2c-37.333 -24.667 -79.333 -73.667 -126 -147c-44.667 -82 -81 -163.667 -109 -245c0 -12 -24 -23.667 -72 -35c-30.667 -14.667 -71 -39.667 -121 -75c-66 -56 -100.333 -91.667 -103 -107h2zM576.999 1328
c2.66699 -0.666992 4.00293 -2.33301 4.00293 -5c-61.333 -181.333 -92 -302 -92 -362c0 -35.333 14.333 -58.666 43 -69.999c39.333 -20 73 -30 101 -30h6c27.333 0 61.666 10 102.999 30l3 -5c-58.667 -90.667 -116.334 -147.334 -173.001 -170.001
c-2.66699 -1.33301 -10 -3 -22 -5l-32 3c-20.667 0 -33.334 -36.667 -38.001 -110c-20.667 -110.667 -46.667 -208.667 -78 -294c-32 -78 -72.333 -144 -121 -198c-22.667 -20 -36 -30 -40 -30c0 2 -1 3 -3 3c48 140.667 72 270.334 72 389.001v25c0 2 0.666992 3 2 3l-2 5
v10c0 1.33301 0.666992 2 2 2l-2 5c0 2 0.666992 3 2 3c-1.33301 3.33301 -2 5.66602 -2 6.99902c0 104 -10.333 163 -31 177c-11.333 13.333 -21 20 -29 20h-72c-1.33301 0 -2 1 -2 3c-2 0 -3 -1 -3 -3l-8 3c-46 1.33301 -76 2 -90 2v3l-5 -3c-2.66699 0 -4 1.66699 -4 5
c42.667 50.667 85.334 90 128.001 118c53.333 38.667 101.666 61 144.999 67c11.333 5.33301 27 39.333 47 102c36 86 78 163.667 126 233c34 40 55.667 62.333 65 67z" />
    <glyph glyph-name="u" unicode="u" horiz-adv-x="905" 
d="M414 1021h7.00098c16.667 -3.33301 25 -10.666 25 -21.999c0 -3.33301 -8.33301 -17.333 -25 -42c-66.667 -168 -100 -306 -100 -414c1.33301 -2.66699 2 -4.66699 2 -6h-2c0 -30.667 11.333 -62 34 -94c39.333 -23.333 86 -35 140 -35c123.333 0 185 76.667 185 230
c0 53.333 -11.333 128.333 -34 225v11c4 7.33301 9.66699 12.666 17 15.999h12c18 -0.666992 59 -38 123 -112c71.333 -98 107 -197.333 107 -298v-35c0 -110.667 -49.667 -233.334 -149 -368.001c-60 -31.333 -143 -54.666 -249 -69.999
c-16.667 -4.66699 -42.667 -7 -78 -7h-23c-198.667 0 -326.334 98.667 -383.001 296c-13.333 46 -20 95.667 -20 149c0 232 128.667 421 386 567c0 4 8.33301 7 25 9zM59.001 456v-16c0 -96.667 27.667 -188.667 83 -276c64 -77.333 156.333 -116 277 -116
c84 0 182.667 22 296 66c34.667 36.667 69.667 98.667 105 186c21.333 60 32 116.333 32 169c0 112 -42.667 215.667 -128 311h-2c10 -64 15 -111.333 15 -142c0 -145.333 -54 -235.333 -162 -270c-26.667 -6 -48.667 -9 -66 -9h-22c-80.667 0 -141.667 19.667 -183 59
c-26 43.333 -39 88 -39 134c0 89.333 27.667 212.666 83 369.999h-5c-189.333 -129.333 -284 -284.666 -284 -465.999zM331.001 909l1.99805 -0.000976562c3.33301 0 5 -1.33301 5 -4c-35.333 -94 -60.666 -189 -75.999 -285c0 -1.33301 1 -2 3 -2
c-2 -10 -3.66699 -31.333 -5 -64c0 -68 19.333 -119.667 58 -155c16 -14.667 51.333 -28 106 -40c35.333 -4 62 -6 80 -6h3c42 0 86.667 13.667 134 41c67.333 48 101 128.333 101 241c0 32 -3.33301 72.333 -10 121l5 2c71.333 -89.333 107 -180.666 107 -273.999v-37
c0 -96 -43 -205.667 -129 -329c-118.667 -43.333 -216.667 -65 -294 -65l-12 2h-20c-90 0 -167.333 33.667 -232 101c-21.333 24.667 -42.666 63.334 -63.999 116.001c-19.333 58.667 -29 114 -29 166v2c0 187.333 89 343.666 267 468.999z" />
    <glyph glyph-name="v" unicode="v" horiz-adv-x="903" 
d="M229 1023c15.333 0 25 -8 29 -24v-2c-11.333 -78 -17 -142 -17 -192c2.66699 -202 67.667 -333 195 -393h6c126 100 189 211 189 333c0 34 -6.66699 74.333 -20 121v8c8 10 19.333 15 34 15c81.333 -23.333 151.333 -72.666 210 -147.999c32 -54 48 -100 48 -138v-34
c0 -156.667 -129.333 -346.334 -388 -569.001c-14 -4 -33.667 -7.33301 -59 -10c-17.333 0 -70.333 32 -159 96c-198 162 -297 324.333 -297 487v32c0 129.333 69.667 267.333 209 414zM62 592c0 -178.667 109.667 -347.333 329 -506c44.667 -31.333 72 -47 82 -47
c245.333 210.667 368 390.667 368 540c0 94.667 -49 171.667 -147 231h-3v-2c3.33301 -22.667 5 -42 5 -58v-7c0 -136 -71.667 -259.333 -215 -370c-14 -10 -27 -15 -39 -15h-6c-47.333 10 -96.333 41.333 -147 94c-75.333 87.333 -113 208.666 -113 363.999
c0 7.33301 0.666992 30.333 2 69h-2c-21.333 -20 -47 -62.333 -77 -127c-24.667 -63.333 -37 -118.666 -37 -165.999zM167 861.001l2.99902 -4v-47c0 -233.333 85 -385.666 255 -456.999c3.33301 -1.33301 7 -2 11 -2h8c34.667 4 91.334 51.333 170.001 142
c54.667 84 82 148 82 192c2 0 4 5 6 15c0 1.33301 -1 2 -3 2l3 11v47c0 8 -1 20.333 -3 37l6 2c59.333 -44.667 94.333 -83.334 105 -116.001c16.667 -38 25 -71 25 -99l-3 -11v-17c0 -83.333 -59.333 -195.333 -178 -336c-42.667 -48.667 -104 -107.667 -184 -177h-3
c-101.333 64 -176 122.333 -224 175c-116.667 124 -175 246 -175 366c2 2.66699 3 4.66699 3 6s-1 2 -3 2c0 85.333 32 175 96 269h3z" />
    <glyph glyph-name="w" unicode="w" horiz-adv-x="1400" 
d="M247 1023c18 -4.66699 27 -12.6699 27 -24.0029c-12 -111.333 -18 -187.333 -18 -228c0 -140 33 -225 99 -255c52.667 -17.333 93 -26 121 -26h15c76 0 127 60.333 153 181c12.667 25.333 26.667 38 42 38h6c16 0 50.333 -27 103 -81
c94.667 -78 150.667 -119.333 168 -124c11.333 0 38.666 26.333 81.999 79c79.333 112.667 138.333 218 177 316c12.667 9.33301 24.667 14.333 36 15c66 -21.333 111.333 -101.666 136 -240.999c2 -4 4 -24.667 6 -62c0 -202 -120.333 -386.667 -361 -554l-18 -5
c-32 0 -122.333 56.333 -271 169c-2.66699 0 -13.667 -25.333 -33 -76c-51.333 -86.667 -101.666 -135 -150.999 -145h-6c-70 0 -186.333 60.333 -349 181c-140.667 122.667 -211 258.334 -211 407.001c-0 130 58.333 269.333 175 418c0 6.66699 24 12.334 72 17.001z
M69 575.997c0 -192.667 138.666 -358.334 415.999 -497.001l63 -27c52 26 92 77 120 153c17.333 62.667 29.333 97.334 36 104.001c7.33301 4.66699 17.666 7 30.999 7c7.33301 0 33.333 -23 78 -69c24 -16 56 -39 96 -69l103 -66c86.667 62.667 146.667 115.667 180 159
c92.667 114 139 224.333 139 331v12c0 82 -21.333 152.667 -64 212c-4 -2.66699 -29 -48.667 -75 -138l-108 -157c-46 -54 -81.333 -81 -106 -81h-18c-35.333 0 -120.666 58.667 -255.999 176c-36.667 -127.333 -110.667 -191 -222 -191c-60 0 -125.333 17.667 -196 53
c-64 50 -96 138.667 -96 266v57c0 26 2 62.667 6 110c-9.33301 0 -31.666 -35 -66.999 -105c-40 -77.333 -60 -157.333 -60 -240zM183.999 894.997c0 -2 0.999023 -2.99805 2.99902 -2.99805l-6 -119c2 -2.66699 3 -5 3 -7c0 -1.33301 -1 -2 -3 -2l3 -17v-9
c4 -136 42 -223.333 114 -262c64 -30 125.333 -45 184 -45c110.667 0 184.667 58.667 222 176c0 4.66699 2.33301 7 7 7c127.333 -114 212.333 -171 255 -171h6c64.667 0 160 119.667 286 359c4 7.33301 8 11.333 12 12c36.667 -64.667 55 -131.334 55 -200.001
c0 -177.333 -103.333 -342.333 -310 -495h-3c-59.333 35.333 -128.666 83.666 -207.999 144.999c-38 40 -60 60 -66 60h-21c-22.667 -10 -34 -26.667 -34 -50c-20 -84 -52 -146.667 -96 -188l-36 -27c-50.667 11.333 -136 57.333 -256 138
c-106 91.333 -169.333 170 -190 236c-20 55.333 -30 104.333 -30 147l3 5c0 2 -1 3 -3 3c0 90 34.333 191.333 103 304z" />
    <glyph glyph-name="x" unicode="x" horiz-adv-x="903" 
d="M667 1023l3.00195 0.000976562c58.667 0 98.334 -86 119.001 -258v-60c0 -36.667 -9.33301 -88.334 -28 -155.001c94.667 -130.667 142 -244.667 142 -342c0 -56 -25.667 -103.333 -77 -142c-1.33301 0 -7 -1 -17 -3c-24.667 0 -40.667 21.667 -48 65
c-8 53.333 -43 104.333 -105 153c-44.667 30.667 -84.334 50.667 -119.001 60c-52.667 -27.333 -133.334 -77 -242.001 -149c-114.667 -78 -173.334 -128.333 -176.001 -151c0 -25.333 -10.333 -38 -31 -38h-6c-18 0 -29.333 11.333 -34 34v26c0 152 51.333 291.333 154 418
v7c-134.667 88 -202 199.667 -202 335c6.66699 108 21.667 162 45 162h15c16.667 0 47.667 -33.333 93 -100c122.667 -130 232.667 -195 330 -195h17c44 0 75 31.667 93 95c8 22 15.667 85 23 189c8.66699 32.667 25.667 49 51 49zM679.002 939.001
c-10 -124 -24.333 -196.002 -43 -216.002c-29.333 -56 -76.666 -84 -141.999 -84h-3c-136 0 -275 83 -417 249h-3c-4 -14.667 -6 -36.334 -6 -65.001c0 -128.667 64.333 -229.334 193 -302.001c13.333 0 22 -7.33301 26 -22v-9c0 -3.33301 -20 -29.333 -60 -78
c-72 -117.333 -108 -209.666 -108 -276.999h3c150.667 110 287 198 409 264h12c62 -19.333 123.333 -52.666 184 -99.999c51.333 -45.333 83.666 -92.666 96.999 -141.999h5c8 18.667 12 39.334 12 62.001c0 74 -41.667 173.333 -125 298c-13.333 7.33301 -20 15.333 -20 24
v7c22.667 71.333 34 132 34 182c0 75.333 -15 145 -45 209h-3zM682.002 909.999l1.99902 0.000976562c10 0 21.333 -44.333 34 -133v-63c0 -50.667 -11.333 -107.667 -34 -171v-6c0 -9.33301 11.333 -21.333 34 -36c72 -119.333 108 -201.333 108 -246c2 0 4 -7.66699 6 -23
h-3l3 -4v-2c0 -2 -1 -3 -3 -3l3 -4v-4c0 -24 -3 -36 -9 -36c-4.66699 2 -14 19 -28 51c-51.333 70.667 -126 124.667 -224 162c-4 6.66699 -14.333 12 -31 16c-11.333 0 -77.666 -38 -198.999 -114c-112 -74 -183 -122.667 -213 -146l-3 4c0 50 31.333 130.667 94 242
c26.667 36 52 68 76 96c-2.66699 26.667 -17.667 40 -45 40c-66 45.333 -105.667 81.666 -119 108.999c-30 42.667 -47 79 -51 109l-9 51c0 1.33301 1 2 3 2l-3 11v11c0 34 3 51 9 51c138.667 -161.333 277.667 -242 417 -242c24.667 0 56 9.66699 94 29
c54.667 43.333 82 102.666 82 177.999c3.33301 8.66699 6.33301 32.334 9 71.001z" />
    <glyph glyph-name="y" unicode="y" horiz-adv-x="868" 
d="M309 1023h11.0029c14.667 -10.667 22 -22.667 22 -36c-3.33301 -48 -5 -93.667 -5 -137c0 -165.333 25.667 -270 77 -314c11.333 -3.33301 19.333 -5 24 -5c50 0 92 24.667 126 74c7.33301 24 12 48.667 14 74c-4 46.667 -6 99 -6 157c3.33301 32.667 18 49 44 49h3
c50 0 110.333 -76 181 -228c45.333 -114 68 -226.667 68 -338c0 -232.667 -94 -442.667 -282 -630c-80 -71.333 -164 -107 -252 -107c-66.667 0 -134.334 24.667 -203.001 74c-78.667 63.333 -122.334 114 -131.001 152c4 23.333 16 35 36 35
c75.333 -18 134.666 -27 177.999 -27c165.333 0 268.333 90.667 309 272c7.33301 36.667 11 57.667 11 63c-3.33301 2 -6 3 -8 3c-62.667 -18 -117.667 -27 -165 -27c-116 0 -195.333 46.667 -238 140c-16 0 -32.333 49.333 -49 148l-6 66c0 164.667 67.667 338 203 520
c20 14.667 32.667 22 38 22zM268.003 891c-89.333 -148 -133.998 -276.335 -133.998 -385.002v-11c0 -2 -1 -3 -3 -3c0 -1.33301 1 -2 3 -2c0 -2 -1 -5 -3 -9c0 -84 16.667 -145.333 50 -184c27.333 -71.333 84.666 -107 171.999 -107h3c54 0 124.333 13.667 211 41h5
c16.667 0 26 -11 28 -33c0 -131.333 -43 -247.666 -129 -348.999c-68.667 -64 -153.667 -96 -255 -96c-16.667 0 -51.334 2.66699 -104.001 8v-3c70 -75.333 146.667 -113 230 -113c136 0 266.667 117.333 392 352c47.333 103.333 71 214.333 71 333c0 164 -52 319 -156 465
l-11 8h-3v-3l3 -93c0 -2 1 -3 3 -3l-3 -14v-24c0 -103.333 -57.333 -168.666 -172 -195.999c-10 -1.33301 -21 -2 -33 -2c-84 0 -135.333 92.333 -154 277l-5 113h3l-3 5v28h-6zM266.005 868.998l1.99902 -6c0 -206.667 35.667 -334.667 107 -384
c22.667 -11.333 39 -17 49 -17h25c50.667 0 102.667 26.667 156 80c27.333 40.667 41 86.334 41 137.001c0 17.333 -1.66699 52.333 -5 105l5 3c35.333 -40.667 68.333 -100.334 99 -179.001c36.667 -98 55 -193.333 55 -286c0 -214 -86 -407.333 -258 -580
c-66 -60.667 -137 -91 -213 -91c-63.333 0 -129.333 32 -198 96l3 6c26 -4 55.333 -6 88 -6c169.333 0 286 87 350 261c14.667 44 27.667 110 39 198c0 18.667 -14.667 30.667 -44 36c-75.333 -31.333 -148.333 -47 -219 -47c-78 0 -132 34 -162 102
c0 7.33301 -8 20.333 -24 39c-11.333 26 -19.666 70.667 -24.999 134l3 14v19c0 106 41 228 123 366h3z" />
    <glyph glyph-name="z" unicode="z" horiz-adv-x="901" 
d="M443 1024c76 0 162.334 -22.333 259.001 -67c32 0 50.333 -28 55 -84v-10c0 -86.667 -78.333 -248.667 -235 -486c-2.66699 0 -4 -3.33301 -4 -10c37.333 -28.667 76 -43 116 -43h8c59.333 0 123.666 20.667 192.999 62c16 8 27.333 12 34 12
c22 -3.33301 33 -13.666 33 -30.999v-7c0 -44 -71.333 -117.667 -214 -221c-140.667 -92.667 -273.667 -139 -399 -139h-6c-50.667 0 -111 12 -181 36c-54.667 0 -88 28 -100 84c-1.33301 8.66699 -2 15 -2 19c-0 108 134.333 290.333 403 547c1.33301 8.66699 2 15 2 19
c-13.333 22.667 -46.333 34 -99 34h-36c-42.667 0 -107.667 -7.33301 -195 -22c-4 -11.333 -11 -17 -21 -17h-4c-10.667 0 -17 8 -19 24c0 23.333 27.667 69.666 83 138.999c96 107.333 205.667 161 329 161zM116.001 779l2.00098 0.000976562c62.667 10 119.667 15 171 15
h10c76 0 125.333 -19.333 148 -58c4 -14 6 -23.667 6 -29v-7c0 -34 -19.333 -65 -58 -93c-231.333 -228.667 -347 -385.334 -347 -470.001c0 -22.667 13.667 -38 41 -46c8 2 13.667 3 17 3c63.333 -26 123 -39 179 -39h6c159.333 0 328.333 79.333 507 238l15 19h-5
c-56 -28.667 -109.333 -43 -160 -43c-84.667 0 -146.334 28.667 -185.001 86l-2 12c0 8.66699 28.667 55 86 139c108 174.667 162 297 162 367v14c-10.667 14 -53.667 34 -129 60c-50 14.667 -97 22 -141 22c-122.667 0 -229.667 -60.667 -321 -182
c-1.33301 -3.33301 -2 -6 -2 -8zM443.002 964.001c2.66699 -1.33301 4.66602 -2.00098 5.99902 -2.00098s2 0.666992 2 2l10 -2h7c62 0 140 -24 234 -72l3 -5v-10c0 -78 -66 -218.667 -198 -422c-34.667 -48 -52 -79 -52 -93v-5c0 -11.333 21.667 -31.333 65 -60
c38 -20.667 76 -31 114 -31h29c30.667 0 71.667 10.333 123 31l2 -5c-175.333 -153.333 -341 -230 -497 -230c-61.333 0 -121.666 12.667 -180.999 38c-29.333 0 -47.333 6.66699 -54 20c-2.66699 9.33301 -4 17 -4 23c10.667 98.667 142.334 268.334 395.001 509.001
c4 7.33301 8 23.333 12 48c0 68.667 -58.667 103 -176 103c-56 -3.33301 -107.333 -8 -154 -14c0 1.33301 -0.666992 2 -2 2c87.333 115.333 187.666 173 300.999 173h6c3.33301 0 6.33301 0.666992 9 2z" />
    <glyph glyph-name="braceleft" unicode="{" horiz-adv-x="844" 
d="M100 698c114.667 3.33301 188.999 26.999 222.999 70.999s51 88.333 51 133v468c0 49.333 25.667 96.5 77 141.5s113 67.5 185 67.5h108v-50h-90c-40.667 0 -76.334 -11.167 -107.001 -33.5s-46.334 -52.833 -47.001 -91.5v-500
c0 -55.333 -20.167 -108.166 -60.5 -158.499s-87.833 -75.833 -142.5 -76.5v-2c54.667 -0.666992 102.334 -26 143.001 -76s61 -102.667 61 -158l-1 -500c0.666992 -38.667 16.334 -69.167 47.001 -91.5s66.334 -33.5 107.001 -33.5h90v-50h-108
c-72 0 -133.5 22.5 -184.5 67.5s-76.833 92.167 -77.5 141.5v468c0 44 -17 88 -51 132s-108.333 67.667 -223 71v60z" />
    <glyph glyph-name="bar" unicode="|" horiz-adv-x="360" 
d="M100 1577h160v-1995h-160v1995z" />
    <glyph glyph-name="braceright" unicode="}" horiz-adv-x="844" 
d="M744 638c-114.667 -3.33301 -189.001 -26.999 -223.001 -70.999s-51 -88 -51 -132v-468c-0.666992 -49.333 -26.5 -96.5 -77.5 -141.5s-112.5 -67.5 -184.5 -67.5h-108v50h90c40.667 0 76.334 11.167 107.001 33.5s46.334 52.833 47.001 91.5l-1 500
c0 55.333 20.333 108 61 158s88.667 75.333 144 76v2c-55.333 0.666992 -103.166 26.167 -143.499 76.5s-60.5 103.166 -60.5 158.499v500c-0.666992 38.667 -16.334 69.167 -47.001 91.5s-66.334 33.5 -107.001 33.5h-90v50h108c72 0 133.667 -22.5 185 -67.5
s77 -92.167 77 -141.5v-468c0 -44.667 17 -89 51 -133s108.333 -67.667 223 -71v-60z" />
    <glyph glyph-name="asciitilde" unicode="~" horiz-adv-x="1029" 
d="M929 878l-0.00195312 -156c-42 -48 -82.667 -80.5 -122 -97.5s-78 -25.5 -116 -25.5c-40 0 -99.167 16.167 -177.5 48.5s-137.166 48.5 -176.499 48.5c-34 0 -69.833 -9.33301 -107.5 -28s-80.834 -56 -129.501 -112v156c42.667 48.667 83.667 81.667 123 99
s77.333 26 114 26c42.667 0 103.167 -16.5 181.5 -49.5s135.833 -49.5 172.5 -49.5c34.667 0 70.834 9.33301 108.501 28s80.834 56 129.501 112z" />
    <glyph glyph-name="sterling" unicode="&#xa3;" horiz-adv-x="1060" 
d="M772 1347c-48 20.667 -101.333 30.999 -160 30.999h-2c-66.667 0 -130 -33.667 -190 -101c-56 -62 -84 -142.333 -84 -241c0 -10 0.333008 -20 1 -30c0 -90 17.667 -181 53 -273h360v-60h-334c9.33301 -20 19.666 -40 30.999 -60c23.333 -42 35 -88 35 -138
c0 -107.333 -54 -232.333 -162 -375h402c86.667 0 149.667 44 189 132l49 -1l-103 -231h-719l1 50c124.667 158.667 187 298 187 418c0 51.333 -11.333 99 -34 143c-11.333 21.333 -21.666 42 -30.999 62h-161v60h135c-38.667 95.333 -58 179.666 -58 252.999
c0 150.667 41.167 266.334 123.5 347.001s184.5 121 306.5 121h4c50 0 111.833 -4.66699 185.5 -14s110.5 -20.666 110.5 -33.999v-161h-58c-3.33301 40.667 -29 74.667 -77 102z" />
    <glyph glyph-name="currency" unicode="&#xa4;" horiz-adv-x="969" 
d="M328 560c27.333 -26.667 60.333 -45.6641 99 -56.9971c19.333 -5.33301 38.666 -8 57.999 -8s38.666 2.66699 57.999 8c38.667 11.333 71.667 30.333 99 57c26.667 27.333 45.667 60.333 57 99c6 19.333 9 38.666 9 57.999s-3 38.666 -9 57.999
c-11.333 38.667 -30.333 71.667 -57 99c-27.333 26.667 -60.666 45.667 -99.999 57c-19.333 5.33301 -38.666 8 -57.999 8s-38.666 -3 -57.999 -9c-38.667 -11.333 -71.334 -30 -98.001 -56c-26 -26.667 -44.667 -59.334 -56 -98.001c-6.66699 -20 -10 -40 -10 -60
c0 -18.667 3 -37.334 9 -56.001c10.667 -39.333 29.667 -72.666 57 -99.999zM218 903.003l-118.001 118l80 81l118 -118c29.333 20 62.333 35.333 99 46c29.333 9.33301 59 14 89 14c27.333 0 55 -4 83 -12c38 -11.333 72 -27.333 102 -48l118 118l80 -81l-117 -117
c20.667 -30.667 36.667 -64.667 48 -102c8 -28 12 -56.333 12 -85c0 -28 -4 -56.333 -12 -85c-11.333 -37.333 -27.333 -71.333 -48 -102l117 -117l-80 -81l-118 118c-30 -21.333 -63.667 -37.333 -101 -48c-28 -8 -56.333 -12 -85 -12c-28 0 -56.333 4 -85 12
c-38 10.667 -72 26.667 -102 48l-118 -118l-80 81l118 117c-21.333 30.667 -37.333 65 -48 103c-8 28 -12 56 -12 84c0 29.333 4.33301 58.333 13 87c10.667 36.667 26.334 69.667 47.001 99z" />
    <glyph glyph-name="yen" unicode="&#xa5;" horiz-adv-x="1466" 
d="M639 225l-1.99707 241.993c0 12.667 -0.5 24.334 -1.5 35.001s-2.5 21.334 -4.5 32.001l-484 1c-9.33301 0 -16.333 2.16699 -21 6.5s-7 10.833 -7 19.5s2.16699 15 6.5 19s11.5 6 21.5 6h467l-121 172h-344c-11.333 0 -19.166 1.83301 -23.499 5.5
s-6.5 9.83398 -6.5 18.501c0 9.33301 2 15.833 6 19.5s11.333 5.5 22 5.5h307c-28.667 38 -64.667 89.667 -108 155c-87.333 131.333 -163 197 -227 197c-4.66699 0 -9 1.83301 -13 5.5s-6 7.5 -6 11.5c0 12.667 3.5 21.834 10.5 27.501s17.833 8.5 32.5 8.5
c18 0 59 -2.66699 123 -8s118.667 -8 164 -8h88c22 0 35.667 -2.16699 41 -6.5s8 -13.166 8 -26.499c0 -5.33301 -5 -10 -15 -14s-22.667 -6 -38 -6c-4 0 -10.167 0.666992 -18.5 2s-14.5 2 -18.5 2c-16 0 -28.5 -3.16699 -37.5 -9.5s-13.5 -14.833 -13.5 -25.5
c0 -12 5.5 -29.333 16.5 -52s26.5 -48.334 46.5 -77.001l158 -221c8.66699 -12.667 19.667 -30.334 33 -53.001c27.333 -46.667 51 -70 71 -70c6 0 11.5 1.66699 16.5 5s9.83301 8.33301 14.5 15l277 396c5.33301 8 9.66602 16.833 12.999 26.5s5 17.834 5 24.501
c0 12 -3.33301 21 -10 27s-19 10.667 -37 14c-10 1.33301 -23.667 2.66602 -41 3.99902c-31.333 2 -47 10.333 -47 25c0 10 2.66699 17.5 8 22.5s13.666 7.5 24.999 7.5c2 0 7 -0.333008 15 -1c37.333 -4.66699 73.333 -7 108 -7h139c20 0 41.667 0.333008 65 1
s35.666 1 36.999 1c7.33301 0 13.5 -1.5 18.5 -4.5s7.83301 -6.83301 8.5 -11.5c0 -18.667 -12.667 -30 -38 -34c-12 -2 -21 -3.66699 -27 -5c-42 -10 -91 -49 -147 -117l-12 -15l-169 -206h323c10 0 18 -2 24 -6s9 -9.66699 9 -17c0 -10 -2 -16.833 -6 -20.5
s-11.667 -5.5 -23 -5.5h-366c-30.667 -38 -62.834 -75.5 -96.501 -112.5s-51.167 -56.833 -52.5 -59.5h511c12 0 20.5 -1.83301 25.5 -5.5s7.5 -9.5 7.5 -17.5c0 -9.33301 -2.33301 -16.333 -7 -21s-12 -7 -22 -7h-530c0 -7.33301 -0.333008 -17.5 -1 -30.5
s-1 -22.833 -1 -29.5l2 -215c0 -76 1.83301 -126 5.5 -150s10.5 -38.667 20.5 -44c20 -11.333 55.833 -17.666 107.5 -18.999s77.5 -11.666 77.5 -30.999c0 -8 -3.33301 -14.667 -10 -20s-15 -8 -25 -8c-1.33301 0 -13.166 1.33301 -35.499 4s-43.833 4 -64.5 4
c-60.667 0 -130.167 -1.33301 -208.5 -4s-125.833 -4 -142.5 -4c-20.667 0 -34 1.33301 -40 4s-9 8 -9 16s2.66699 14.167 8 18.5s17.666 8.5 36.999 12.5c6 1.33301 14.333 3 25 5c49.333 10.667 80 21.334 92 32.001c11.333 8.66699 19.333 24.334 24 47.001
s7 56.667 7 102z" />
    <glyph glyph-name="brokenbar" unicode="&#xa6;" horiz-adv-x="360" 
d="M100 371h160v-789h-160v789zM100 1578h160v-789h-160v789z" />
    <glyph glyph-name="section" unicode="&#xa7;" horiz-adv-x="874" 
d="M475 321c37.333 10.667 69.668 28.3359 97.001 53.0029c48.667 43.333 73 98.666 73 165.999c0 3.33301 -0.333008 6.66602 -1 9.99902h-2c-0.666992 9.33301 -2 18.333 -4 27c-14.667 40.667 -52.334 83 -113.001 127c-39.333 19.333 -81.333 29 -126 29
c-52 0 -93.667 -14.833 -125 -44.5s-47 -68.834 -47 -117.501c0 -82 82.667 -165.333 248 -250zM396.002 -345.998c75.333 4 137.001 26.9971 185.001 68.9971c48 42.667 72 97.667 72 165c0 83.333 -105.333 175.333 -316 276c-82 42.667 -140.5 88.334 -175.5 137.001
s-52.5 107.667 -52.5 177c0 98.667 29.667 177.667 89 237c44.667 43.333 101.334 70.666 170.001 81.999l-40 19c-82 42.667 -140.5 88.334 -175.5 137.001s-52.5 107.667 -52.5 177c0 98.667 29.667 177.667 89 237c54.667 52.667 126.667 81.334 216 86.001
c5.33301 0.666992 11 1 17 1h3c44 0 98.333 -5.5 163 -16.5s97 -24.833 97 -41.5v-194h-51c-3.33301 54 -30 98 -80 132c-46.667 31.333 -96.334 48.333 -149.001 51h-15c-52 0 -93.667 -14.833 -125 -44.5s-47 -68.834 -47 -117.501c0 -88 95.667 -177.667 287 -269
c99.333 -44.667 167.5 -92.5 204.5 -143.5s55.5 -113.5 55.5 -187.5c0 -114 -33.667 -208 -101 -282c-31.333 -26 -64.333 -47.333 -99 -64c72 -37.333 123.333 -76.666 154 -117.999c36.667 -51.333 55 -113.666 55 -186.999c0 -114 -33.667 -208.333 -101 -283
c-82.667 -68 -175 -103 -277 -105v1c-4 -0.666992 -8.33301 -1 -13 -1h-3c-44 0 -98.333 5.5 -163 16.5s-97 24.833 -97 41.5v194h51c3.33301 -54 30 -98 80 -132c45.333 -30 93.666 -46.667 144.999 -50z" />
    <glyph glyph-name="dieresis" unicode="&#xa8;" horiz-adv-x="781" 
d="M114 1289l70.998 71.998c8.66699 8 17 12 25 12c7.33301 0 16.333 -4.66699 27 -14l69 -73c6.66699 -9.33301 10 -17.666 10 -24.999c0 -8.66699 -4 -17.667 -12 -27l-69 -75c-11.333 -11.333 -19.666 -17 -24.999 -17c-9.33301 0 -17.666 4 -24.999 12l-76 86
c-6 8 -9 15.667 -9 23c0 8.66699 4.66699 17.334 14 26.001zM478.998 1289l70.998 72c8.66699 8 17 12 25 12c7.33301 0 16.333 -4.33301 27 -13l69 -74c6.66699 -9.33301 10 -17.666 10 -24.999c0 -8.66699 -4 -17.334 -12 -26.001l-69 -76
c-11.333 -11.333 -19.666 -17 -24.999 -17c-9.33301 0 -17.666 4 -24.999 12l-76 87c-6 7.33301 -9 14.666 -9 21.999c0 8.66699 4.66699 17.334 14 26.001z" />
    <glyph glyph-name="copyright" unicode="&#xa9;" horiz-adv-x="1674" 
d="M840 1456c96.667 0 190 -18.835 280 -56.502s169.667 -91.167 239 -160.5c68 -67.333 120.833 -146.666 158.5 -237.999s56.5 -185.666 56.5 -282.999c0 -98 -18.833 -192 -56.5 -282s-91.834 -170 -162.501 -240c-70 -70 -149.667 -123.167 -239 -159.5
s-183.666 -54.5 -282.999 -54.5c-97.333 0 -190 18.5 -278 55.5s-167.333 90.5 -238 160.5c-70.667 69.333 -124.5 148.5 -161.5 237.5s-55.5 183.167 -55.5 282.5c0 98.667 18.5 193 55.5 283s90.167 169.333 159.5 238c68 69.333 147.5 122.833 238.5 160.5
s186.5 56.5 286.5 56.5zM357 1197c-63.333 -64 -112.004 -137.168 -146.004 -219.501s-51 -168.833 -51 -259.5c0 -91.333 17 -177.666 51 -258.999s83.333 -154.333 148 -219c65.333 -64 138.333 -113 219 -147s166 -51 256 -51c91.333 0 177.833 16.833 259.5 50.5
s154.834 82.167 219.501 145.5c64.667 65.333 114.334 139.166 149.001 221.499s52 168.5 52 258.5c0 89.333 -17.333 175.833 -52 259.5s-83 156.834 -145 219.501c-64 64 -137.333 113.167 -220 147.5s-168.667 51.5 -258 51.5c-91.333 0 -178.666 -17.167 -261.999 -51.5
s-156.666 -83.5 -219.999 -147.5zM864.996 222.997c-94.667 0 -182.669 22.6689 -264.002 68.002s-143.333 107 -186 185s-64 159 -64 243s21.833 165.333 65.5 244s106.167 140.167 187.5 184.5s166 66.5 254 66.5c25.333 0 50.333 -2.16699 75 -6.5s50 -11.166 76 -20.499
c3.33301 -0.666992 6.33301 -1 9 -1c12.667 0 21.334 10 26.001 30h42l72 -198h-44c-34.667 62.667 -78.334 104 -131.001 124c-48 17.333 -97 26 -147 26h-15c-57.333 -5.33301 -112.833 -29 -166.5 -71s-94.167 -101 -121.5 -177c-22 -60 -33 -121.333 -33 -184
c0 -16.667 0.666992 -33.334 2 -50.001c7.33301 -80.667 30.5 -155.334 69.5 -224.001s88.833 -119.334 149.5 -152.001c48 -26.667 103.333 -40.667 166 -42c82.667 0 147.334 18.667 194.001 56s70 79.333 70 126h53v-100c0 -30.667 -32.167 -59.5 -96.5 -86.5
s-145.166 -40.5 -242.499 -40.5z" />
    <glyph glyph-name="guillemotleft" unicode="&#xab;" horiz-adv-x="869" 
d="M100 479l342 303h14v-37l-205 -266l205 -266v-37h-14zM413 479l342 303h14v-37l-205 -266l205 -266v-37h-14z" />
    <glyph glyph-name="logicalnot" unicode="&#xac;" 
d="M100 767h840v-491l-1 -1h-98v392h-741v100z" />
    <glyph glyph-name="registered" unicode="&#xae;" horiz-adv-x="1674" 
d="M751 1099l0.000976562 -373.998l3 -8c15.333 -37.333 34 -64.333 56 -81c19.333 -14.667 38 -22 56 -22h6c20.667 2.66699 41.167 15.5 61.5 38.5s35.833 55.5 46.5 97.5c8.66699 33.333 13 67.666 13 102.999c0 8.66699 -0.333008 17.667 -1 27
c-2.66699 44.667 -12 86.167 -28 124.5s-34.833 63.666 -56.5 75.999s-42.834 18.5 -63.501 18.5h-93zM984.001 576.002l81.999 -116c66.667 -94 116.667 -141 150 -141h34v-50h-346v50h45c20 0 30 7.33301 30 22c0 19.333 -23 57.333 -69 114l-75 102c-28 0 -56 14 -84 42
v-159c0 -80.667 12 -121 36 -121h53v-50h-316v50h43c24.667 0 37 40.333 37 121v538c0 80.667 -12.333 121 -37 121h-43v70h356c42.667 -0.666992 84.334 -14.667 125.001 -42c40 -27.333 70.833 -65.333 92.5 -114s32.5 -99.334 32.5 -152.001
c0 -52 -10.667 -102.167 -32 -150.5s-59.333 -93.166 -114 -134.499zM840 1456c96.667 0 190 -18.835 280 -56.502s169.667 -91.167 239 -160.5c68 -67.333 120.833 -146.666 158.5 -237.999s56.5 -185.666 56.5 -282.999c0 -98 -18.833 -192 -56.5 -282
s-91.834 -170 -162.501 -240c-70 -70 -149.667 -123.167 -239 -159.5s-183.666 -54.5 -282.999 -54.5c-97.333 0 -190 18.5 -278 55.5s-167.333 90.5 -238 160.5c-70.667 69.333 -124.5 148.5 -161.5 237.5s-55.5 183.167 -55.5 282.5c0 98.667 18.5 193 55.5 283
s90.167 169.333 159.5 238c68 69.333 147.5 122.833 238.5 160.5s186.5 56.5 286.5 56.5zM357 1197c-63.333 -64 -112.004 -137.168 -146.004 -219.501s-51 -168.833 -51 -259.5c0 -91.333 17 -177.666 51 -258.999s83.333 -154.333 148 -219
c65.333 -64 138.333 -113 219 -147s166 -51 256 -51c91.333 0 177.833 16.833 259.5 50.5s154.834 82.167 219.501 145.5c64.667 65.333 114.334 139.166 149.001 221.499s52 168.5 52 258.5c0 89.333 -17.333 175.833 -52 259.5s-83 156.834 -145 219.501
c-64 64 -137.333 113.167 -220 147.5s-168.667 51.5 -258 51.5c-91.333 0 -178.666 -17.167 -261.999 -51.5s-156.666 -83.5 -219.999 -147.5z" />
    <glyph glyph-name="degree" unicode="&#xb0;" horiz-adv-x="756" 
d="M379 1372c-57.333 0 -106.501 -20.333 -147.501 -61s-61.5 -90 -61.5 -148s20.333 -107 61 -147s90 -60 148 -60s107 20 147 60s60 89 60 147s-20.167 107.333 -60.5 148s-89.166 61 -146.499 61zM378.999 1442c76.667 0 142.002 -27.167 196.002 -81.5
s81 -119.833 81 -196.5c0 -76 -27.333 -141.333 -82 -196s-120.334 -82 -197.001 -82c-78 0 -143.667 27 -197 81s-80 119.667 -80 197s27.167 143 81.5 197s120.166 81 197.499 81z" />
    <glyph glyph-name="acute" unicode="&#xb4;" horiz-adv-x="661" 
d="M391 1375c23.333 23.333 41.833 38.999 55.5 46.999s27.167 12 40.5 12c22 0 39.833 -6.66699 53.5 -20s20.5 -30.333 20.5 -51c0 -14.667 -5.16699 -28.667 -15.5 -42s-25.833 -26.666 -46.5 -39.999l-330 -203h-69z" />
    <glyph glyph-name="paragraph" unicode="&#xb6;" horiz-adv-x="1036" 
d="M936 1435l-0.000976562 -70h-127v-1365h-82v1365h-166v-1365h-84v738c-116 5.33301 -207.833 39.5 -275.5 102.5s-101.5 144.833 -101.5 245.5c0 104.667 35.833 189 107.5 253s166.834 96 285.501 96h443z" />
    <glyph glyph-name="periodcentered" unicode="&#xb7;" horiz-adv-x="450" 
d="M116 740l82.001 84c10 9.33301 19.667 14 29 14c8.66699 0 19 -5.33301 31 -16l80 -86c8 -10.667 12 -20.334 12 -29.001c0 -10 -4.66699 -20.333 -14 -31l-80 -88c-13.333 -13.333 -23 -20 -29 -20c-10.667 0 -20.334 4.66699 -29.001 14l-88 101
c-6.66699 8.66699 -10 17.334 -10 26.001c0 10 5.33301 20.333 16 31z" />
    <glyph glyph-name="periodcentered" unicode="&#x2219;" horiz-adv-x="450" 
d="M116 740l82.001 84c10 9.33301 19.667 14 29 14c8.66699 0 19 -5.33301 31 -16l80 -86c8 -10.667 12 -20.334 12 -29.001c0 -10 -4.66699 -20.333 -14 -31l-80 -88c-13.333 -13.333 -23 -20 -29 -20c-10.667 0 -20.334 4.66699 -29.001 14l-88 101
c-6.66699 8.66699 -10 17.334 -10 26.001c0 10 5.33301 20.333 16 31z" />
    <glyph glyph-name="cedilla" unicode="&#xb8;" horiz-adv-x="608" 
d="M100 -290c56.667 -34.667 107.333 -52 152 -52c44 0 75.5 7.16699 94.5 21.5s28.5 36.5 28.5 66.5s-16.333 51.333 -49 64c-26.667 10.667 -60.667 16 -102 16c-10.667 0 -22 -0.666992 -34 -2l48 176h63l-37 -104c21.333 2.66699 42 4.33398 62 5.00098
c57.333 0 102 -13.5 134 -40.5s48 -64.833 48 -113.5c0 -50.667 -19.5 -90.834 -58.5 -120.501s-92.5 -44.5 -160.5 -44.5c-72.667 0 -135.667 10.667 -189 32v96z" />
    <glyph glyph-name="guillemotright" unicode="&#xbb;" horiz-adv-x="869" 
d="M114 176h-14v37l205 266l-205 266v37h14l342 -303zM427 176h-14v37l205 266l-205 266v37h14l342 -303z" />
    <glyph glyph-name="multiply" unicode="&#xd7;" horiz-adv-x="892" 
d="M446 618l-247 -247l-99 99l247 247l-247 248l99 98l247 -247l248 247l98 -99l-247 -247l247 -247l-99 -99z" />
    <glyph glyph-name="divide" unicode="&#xf7;" 
d="M100 647v140h839l1 -1v-139h-840zM411 408l82.001 84c10 9.33301 19.667 14 29 14c8.66699 0 19 -5.33301 31 -16l80 -86c8 -10.667 12 -20.334 12 -29.001c0 -10 -4.66699 -20.333 -14 -31l-80 -88c-13.333 -13.333 -23 -20 -29 -20
c-10.667 0 -20.334 4.66699 -29.001 14l-88 101c-6.66699 8.66699 -10 17.334 -10 26.001c0 10 5.33301 20.333 16 31zM411.001 1101l82.001 84c10 9.33301 19.667 14 29 14c8.66699 0 19 -5.33301 31 -16l80 -86c8 -10.667 12 -20.334 12 -29.001
c0 -10 -4.66699 -20.333 -14 -31l-80 -88c-13.333 -13.333 -23 -20 -29 -20c-10.667 0 -20.334 4.66699 -29.001 14l-88 101c-6.66699 8.66699 -10 17.334 -10 26.001c0 10 5.33301 20.333 16 31z" />
    <glyph glyph-name="dotlessi" unicode="&#x131;" horiz-adv-x="655" 
d="M409 223c0 -115.333 33.333 -173 100 -173h46v-50h-442v50h46c66.667 0 100 57.667 100 173v432c0 51.333 -37 77 -111 77h-48v44c148 46 235 106.667 261 182h48v-735z" />
    <glyph glyph-name="circumflex" unicode="&#x2c6;" horiz-adv-x="782" 
d="M100 1079l232 355h118l232 -355h-58l-233 216l-233 -216h-58z" />
    <glyph glyph-name="caron" unicode="&#x2c7;" horiz-adv-x="782" 
d="M100 1434h58l233 -214l233 214h58l-232 -356h-118z" />
    <glyph glyph-name="uni02C9" unicode="&#x2c9;" horiz-adv-x="716" 
d="M100 1195v125h516v-125h-516z" />
    <glyph glyph-name="breve" unicode="&#x2d8;" horiz-adv-x="784" 
d="M100 1349l50.998 0.00292969c11.333 -48.667 36.333 -84.334 75 -107.001s94.334 -34 167.001 -34s128 11.167 166 33.5s62.667 58.166 74 107.499h51c-13.333 -88.667 -44.666 -155.834 -93.999 -201.501s-115 -68.5 -197 -68.5c-81.333 0 -147 23 -197 69
s-82 113 -96 201z" />
    <glyph glyph-name="dotaccent" unicode="&#x2d9;" horiz-adv-x="415" 
d="M114 1289l69 71.999c4 4 8.33301 7 13 9s9.33398 3 14.001 3c4 0 8.16699 -1 12.5 -3s8.5 -5 12.5 -9l71 -76c3.33301 -2.66699 5.66602 -6 6.99902 -10s2 -8.66699 2 -14c-0.666992 -6 -1.66699 -11 -3 -15s-4 -8 -8 -12l-71 -76c-8 -7.33301 -13.333 -11.833 -16 -13.5
s-5 -2.5 -7 -2.5c-6.66699 0 -12.167 0.833008 -16.5 2.5s-7.83301 4.5 -10.5 8.5l-75 87c-2.66699 2.66699 -4.66699 5.83398 -6 9.50098s-2 8.16699 -2 13.5c0 4 1 8.16699 3 12.5s5.66699 8.83301 11 13.5z" />
    <glyph glyph-name="ring" unicode="&#x2da;" horiz-adv-x="555" 
d="M176 1257c0 -28 9.66699 -51.667 29 -71s43 -29 71 -29s51.667 9.66699 71 29s29 43 29 71c0 26.667 -9.83301 49.834 -29.5 69.501s-43.167 29.5 -70.5 29.5s-50.833 -9.83301 -70.5 -29.5s-29.5 -42.834 -29.5 -69.501zM100 1257c0 50 17 91.999 51 125.999
s75.667 51 125 51c50.667 0 93.167 -17.167 127.5 -51.5s51.5 -76.166 51.5 -125.499c0 -50 -17.167 -92.167 -51.5 -126.5s-76.833 -51.5 -127.5 -51.5c-49.333 0 -91 17.167 -125 51.5s-51 76.5 -51 126.5z" />
    <glyph glyph-name="ogonek" unicode="&#x2db;" horiz-adv-x="568" 
d="M371 0c-47.333 -41.333 -84.168 -81.1699 -110.501 -119.503s-39.5 -75.833 -39.5 -112.5c0 -31.333 9 -56.333 27 -75s42.333 -28 73 -28c26.667 0 49.834 5.16699 69.501 15.5s36.167 26.5 49.5 48.5l28 -16c-24 -42 -54.167 -74.333 -90.5 -97
s-76.166 -34 -119.499 -34c-46.667 0 -84.667 11.833 -114 35.5s-44 53.834 -44 90.501c0 50.667 20.167 102.834 60.5 156.501s94.166 98.834 161.499 135.501h49z" />
    <glyph glyph-name="tilde" unicode="&#x2dc;" horiz-adv-x="774" 
d="M674 1382c-13.333 -68.667 -36.1689 -120 -68.502 -154s-74.5 -51 -126.5 -51h-4c-33.333 0 -71 7.66699 -113 23c-44 16 -82 24 -114 24c-26 0 -46.167 -6.83301 -60.5 -20.5s-25.5 -37.5 -33.5 -71.5h-54c12.667 70.667 35.334 123.5 68.001 158.5
s75.667 52.5 129 52.5c30.667 -0.666992 68.334 -8.66699 113.001 -24c42.667 -15.333 80 -23 112 -23h4c24 0 43.333 6.66699 58 20s26.667 35.333 36 66h54z" />
    <glyph glyph-name="hungarumlaut" unicode="&#x2dd;" horiz-adv-x="789" 
d="M100 1079l144 273.002c16 29.333 31.167 50.333 45.5 63s29.833 19 46.5 19c18.667 0 34.667 -6.66699 48 -20s20 -29 20 -47c0 -10.667 -3.5 -22.334 -10.5 -35.001s-17.167 -26.334 -30.5 -41.001l-205 -212h-58zM385 1079l144 273.002
c16 29.333 31.167 50.333 45.5 63s29.833 19 46.5 19c18.667 0 34.667 -6.66699 48 -20s20 -29 20 -47c0 -10.667 -3.5 -22.334 -10.5 -35.001s-17.167 -26.334 -30.5 -41.001l-205 -212h-58z" />
    <glyph glyph-name="endash" unicode="&#x2013;" horiz-adv-x="1196" 
d="M100 419v120h996v-120h-996z" />
    <glyph glyph-name="emdash" unicode="&#x2014;" horiz-adv-x="2248" 
d="M100 419v120h2048v-120h-2048z" />
    <glyph glyph-name="quoteleft" unicode="&#x2018;" horiz-adv-x="452" 
d="M233 1016c-29.333 0 -58.832 21.833 -88.499 65.5s-44.5 94.167 -44.5 151.5c0 72.667 23.667 148.167 71 226.5s93.666 117.5 138.999 117.5v-43c-48.667 -28.667 -77.667 -92 -87 -190c0 -79.333 43 -133 129 -161v-42z" />
    <glyph glyph-name="quoteright" unicode="&#x2019;" horiz-adv-x="452" 
d="M219 1577c29.333 0 58.832 -21.833 88.499 -65.5s44.5 -94.167 44.5 -151.5c0 -72.667 -23.667 -148.167 -71 -226.5s-93.666 -117.5 -138.999 -117.5v43c48.667 28.667 77.667 92 87 190c0 79.333 -43 133 -129 161v42z" />
    <glyph glyph-name="quotesinglbase" unicode="&#x201a;" horiz-adv-x="452" 
d="M219 281c29.333 0 58.832 -21.833 88.499 -65.5s44.5 -94.167 44.5 -151.5c0 -72.667 -23.667 -148.167 -71 -226.5s-93.666 -117.5 -138.999 -117.5v43c48.667 28.667 77.667 92 87 190c0 79.333 -43 133 -129 161v42z" />
    <glyph glyph-name="quotedblleft" unicode="&#x201c;" horiz-adv-x="805" 
d="M233 1016c-29.333 0 -58.832 21.833 -88.499 65.5s-44.5 94.167 -44.5 151.5c0 72.667 23.667 148.167 71 226.5s93.666 117.5 138.999 117.5v-43c-48.667 -28.667 -77.667 -92 -87 -190c0 -79.333 43 -133 129 -161v-42zM586.001 1016
c-29.333 0 -58.832 21.833 -88.499 65.5s-44.5 94.167 -44.5 151.5c0 72.667 23.667 148.167 71 226.5s93.666 117.5 138.999 117.5v-43c-48.667 -28.667 -77.667 -92 -87 -190c0 -79.333 43 -133 129 -161v-42z" />
    <glyph glyph-name="quotedblright" unicode="&#x201d;" horiz-adv-x="805" 
d="M219 1577c29.333 0 58.832 -21.833 88.499 -65.5s44.5 -94.167 44.5 -151.5c0 -72.667 -23.667 -148.167 -71 -226.5s-93.666 -117.5 -138.999 -117.5v43c48.667 28.667 77.667 92 87 190c0 79.333 -43 133 -129 161v42zM571.999 1577
c29.333 0 58.832 -21.833 88.499 -65.5s44.5 -94.167 44.5 -151.5c0 -72.667 -23.667 -148.167 -71 -226.5s-93.666 -117.5 -138.999 -117.5v43c48.667 28.667 77.667 92 87 190c0 79.333 -43 133 -129 161v42z" />
    <glyph glyph-name="quotedblbase" unicode="&#x201e;" horiz-adv-x="805" 
d="M219 281c29.333 0 58.832 -21.833 88.499 -65.5s44.5 -94.167 44.5 -151.5c0 -72.667 -23.667 -148.167 -71 -226.5s-93.666 -117.5 -138.999 -117.5v43c48.667 28.667 77.667 92 87 190c0 79.333 -43 133 -129 161v42zM571.999 281
c29.333 0 58.832 -21.833 88.499 -65.5s44.5 -94.167 44.5 -151.5c0 -72.667 -23.667 -148.167 -71 -226.5s-93.666 -117.5 -138.999 -117.5v43c48.667 28.667 77.667 92 87 190c0 79.333 -43 133 -129 161v42z" />
    <glyph glyph-name="dagger" unicode="&#x2020;" horiz-adv-x="1073" 
d="M515 1022c-5.33301 64.667 -23.332 123.999 -53.999 177.999c-38 67.333 -57 110.333 -57 129c0 32.667 12 58.834 36 78.501s56 29.5 96 29.5c38 0 69.5 -9.16699 94.5 -27.5s37.5 -42.166 37.5 -71.499c0 -21.333 -18.333 -67 -55 -137
c-30.667 -56.667 -49 -116.334 -55 -179.001c64 5.33301 123 23.333 177 54c67.333 38 110.333 57 129 57c32.667 0 59 -12 79 -36s30 -56 30 -96c0 -38 -9.16699 -69.5 -27.5 -94.5s-42.5 -37.5 -72.5 -37.5c-21.333 0 -66.666 18.333 -135.999 55
c-56.667 30.667 -116.334 49.667 -179.001 57c5.33301 -117.333 42 -209.666 110 -276.999c-70.667 -306.667 -108 -631.334 -112 -974.001h-38c-4 342.667 -42 667.334 -114 974.001c68 67.333 105 159.666 111 276.999c-64 -6.66699 -123.333 -25 -178 -55
c-67.333 -38 -110.333 -57 -129 -57c-32.667 0 -58.834 12 -78.501 36s-29.5 56 -29.5 96c0 38 9.16699 69.5 27.5 94.5s42.166 37.5 71.499 37.5c21.333 0 67 -18.667 137 -56c56.667 -30.667 116.334 -49 179.001 -55z" />
    <glyph glyph-name="daggerdbl" unicode="&#x2021;" horiz-adv-x="1073" 
d="M558 186c62.667 7.33301 122.334 26.3311 179.001 56.998c69.333 36.667 114.666 55 135.999 55c30 0 54.167 -12.5 72.5 -37.5s27.5 -56.5 27.5 -94.5c0 -40 -10 -72 -30 -96s-46.333 -36 -79 -36c-18.667 0 -61.667 19 -129 57c-54 30.667 -113 48.667 -177 54
c6 -62.667 24.333 -122.334 55 -179.001c36.667 -70 55 -115.667 55 -137c0 -29.333 -12.5 -53.166 -37.5 -71.499s-56.5 -27.5 -94.5 -27.5c-40 0 -72 9.83301 -96 29.5s-36 45.834 -36 78.501c0 18.667 19 61.667 57 129c30.667 54 48.667 113.333 54 178
c-62.667 -6 -122.334 -24.333 -179.001 -55c-70 -37.333 -115.667 -56 -137 -56c-29.333 0 -53.166 12.5 -71.499 37.5s-27.5 56.5 -27.5 94.5c0 40 9.83301 72 29.5 96s45.834 36 78.501 36c18.667 0 61.667 -19 129 -57c54.667 -30 114 -48.333 178 -55
c-6 150.667 -43 283.334 -111 398.001c68 114 105 246.333 111 397c-64 -6.66699 -123.333 -25 -178 -55c-67.333 -38 -110.333 -57 -129 -57c-32.667 0 -58.834 12 -78.501 36s-29.5 56 -29.5 96c0 38 9.16699 69.5 27.5 94.5s42.166 37.5 71.499 37.5
c21.333 0 67 -18.667 137 -56c56.667 -30.667 116.334 -49 179.001 -55c-5.33301 64.667 -23.333 124 -54 178c-38 67.333 -57 110.333 -57 129c0 32.667 12 58.834 36 78.501s56 29.5 96 29.5c38 0 69.5 -9.16699 94.5 -27.5s37.5 -42.166 37.5 -71.499
c0 -21.333 -18.333 -67 -55 -137c-30.667 -56.667 -49 -116.334 -55 -179.001c64 5.33301 123 23.333 177 54c67.333 38 110.333 57 129 57c32.667 0 59 -12 79 -36s30 -56 30 -96c0 -38 -9.16699 -69.5 -27.5 -94.5s-42.5 -37.5 -72.5 -37.5
c-21.333 0 -66.666 18.333 -135.999 55c-56.667 30.667 -116.334 49.667 -179.001 57c5.33301 -150.667 42 -283 110 -397c-68 -114.667 -104.667 -247.334 -110 -398.001z" />
    <glyph glyph-name="bullet" unicode="&#x2022;" horiz-adv-x="792" 
d="M100 718c0 82 28.999 151.666 86.999 208.999s128 86 210 86c81.333 0 150.833 -28.833 208.5 -86.5s86.5 -127.167 86.5 -208.5s-29.167 -151.166 -87.5 -209.499s-128.166 -87.5 -209.499 -87.5c-82 0 -151.667 29 -209 87s-86 128 -86 210z" />
    <glyph glyph-name="ellipsis" unicode="&#x2026;" horiz-adv-x="1816" 
d="M116 167l82.001 84c10 9.33301 19.667 14 29 14c8.66699 0 19 -5.33301 31 -16l80 -86c8 -10.667 12 -20.334 12 -29.001c0 -10 -4.66699 -20.333 -14 -31l-80 -88c-13.333 -13.333 -23 -20 -29 -20c-10.667 0 -20.334 4.66699 -29.001 14l-88 101
c-6.66699 8.66699 -10 17.334 -10 26.001c0 10 5.33301 20.333 16 31zM799.001 167l82.001 84c10 9.33301 19.667 14 29 14c8.66699 0 19 -5.33301 31 -16l80 -86c8 -10.667 12 -20.334 12 -29.001c0 -10 -4.66699 -20.333 -14 -31l-80 -88c-13.333 -13.333 -23 -20 -29 -20
c-10.667 0 -20.334 4.66699 -29.001 14l-88 101c-6.66699 8.66699 -10 17.334 -10 26.001c0 10 5.33301 20.333 16 31zM1482 167l82.001 84c10 9.33301 19.667 14 29 14c8.66699 0 19 -5.33301 31 -16l80 -86c8 -10.667 12 -20.334 12 -29.001
c0 -10 -4.66699 -20.333 -14 -31l-80 -88c-13.333 -13.333 -23 -20 -29 -20c-10.667 0 -20.334 4.66699 -29.001 14l-88 101c-6.66699 8.66699 -10 17.334 -10 26.001c0 10 5.33301 20.333 16 31z" />
    <glyph glyph-name="guilsinglleft" unicode="&#x2039;" horiz-adv-x="556" 
d="M100 479l342 303h14v-37l-205 -266l205 -266v-37h-14z" />
    <glyph glyph-name="guilsinglright" unicode="&#x203a;" horiz-adv-x="556" 
d="M114 176h-14v37l205 266l-205 266v37h14l342 -303z" />
    <glyph glyph-name="fraction" unicode="&#x2044;" horiz-adv-x="1224" 
d="M100 -29l940 1461h84l-938 -1461h-86z" />
    <glyph glyph-name="fraction" unicode="&#x2215;" horiz-adv-x="1224" 
d="M100 -29l940 1461h84l-938 -1461h-86z" />
    <glyph glyph-name="franc" unicode="&#x20a3;" horiz-adv-x="1218" 
d="M299 357h-194.001v60h194v732c0 156.667 -34.333 235 -103 235h-96v50h915l103 -231h-49c-39.333 121.333 -102.666 182 -189.999 182l-316 -1c-68 0 -102 -78.333 -102 -235v-352h361c66.667 0 100 21 100 63v58h50v-342h-50v60c0 41.333 -33.333 62 -100 62h-361v-281
h194v-60h-194v-72c0 -156.667 34 -235 102 -235h97v-50h-560v50h96c68.667 0 103 78.333 103 235v72z" />
    <glyph glyph-name="lira" unicode="&#x20a4;" horiz-adv-x="1060" 
d="M772 1347c-48 20.667 -101.333 30.999 -160 30.999h-2c-66.667 0 -130 -33.667 -190 -101c-56 -62 -84 -142.333 -84 -241c0 -10 0.333008 -20 1 -30c0 -70.667 11 -141.667 33 -213h380v-60h-360c8 -20 16.667 -40 26 -60h352v-60h-321c23.333 -42 35 -88 35 -138
c0 -107.333 -54 -232.333 -162 -375h402c86.667 0 149.667 44 189 132l49 -1l-103 -231h-719l1 50c124.667 158.667 187 298 187 418c0 51.333 -11.333 99 -34 143l-2 2h-172v60h143l-26 60h-135v60h113c-24 71.333 -36 135.666 -36 192.999
c0 150.667 41.167 266.334 123.5 347.001s185.833 121 310.5 121c50 0 111.833 -4.66699 185.5 -14s110.5 -20.666 110.5 -33.999v-161h-58c-3.33301 40.667 -29 74.667 -77 102z" />
    <glyph glyph-name="peseta" unicode="&#x20a7;" horiz-adv-x="2119" 
d="M461 1384v-661.999c2 -6 4.33301 -11.667 7 -17c27.333 -68 63.333 -119 108 -153c38 -29.333 76.667 -44 116 -44c6.66699 0 13 0.333008 19 1c45.333 5.33301 87.666 30.333 126.999 75s68.333 103.667 87 177c14.667 58 22 117.667 22 179
c0 16 -0.333008 31.667 -1 47c-4.66699 77.333 -21.167 150.166 -49.5 218.499s-64.5 116.5 -108.5 144.5c-37.333 23.333 -74.666 35 -111.999 35c-6.66699 0 -13.667 -0.333008 -21 -1h-194zM1548 908.001h-178.999v-685c0 -54 11.333 -93.667 34 -119
c18.667 -20.667 45.667 -33 81 -37l-71 192l49 1c36.667 -86.667 74.667 -144.667 114 -174c38 -29.333 80.333 -44 127 -44h7c61.333 0 111.666 17.333 150.999 52c39.333 35.333 59 80.666 59 135.999c0 68 -86.333 143.333 -259 226c-67.333 34.667 -115.333 72 -144 112
s-43 88.333 -43 145c0 80.667 24.333 145.334 73 194.001zM1091 910.001c-4.66699 -67.333 -20.6621 -131.999 -47.9951 -193.999c-33.333 -76 -80.333 -135.167 -141 -177.5s-124 -63.5 -190 -63.5c-66.667 0 -130.334 21.333 -191.001 64c-22 14.667 -42 31.667 -60 51
v-305c0 -156.667 34 -235 102 -235h97v-50h-560v50h96c68.667 0 103 78.333 103 235v864c0 156.667 -34.333 235 -103 235h-96v50h618c61.333 -1.33301 121.666 -22 180.999 -62c60.667 -41.333 108.334 -100.333 143.001 -177c33.333 -75.333 50.333 -154.333 51 -237h10
c144 0 216 118.333 216 355h50v-355h259c28 12.667 64.667 19.334 110 20.001h2c36 0 80.5 -4.5 133.5 -13.5s79.5 -20.167 79.5 -33.5v-159h-42c-2.66699 44 -24.5 80 -65.5 108s-85.5 42 -133.5 42c-42.667 0 -76.834 -12.167 -102.501 -36.5s-38.5 -56.5 -38.5 -96.5
c0 -72 78.333 -145.333 235 -220c81.333 -36.667 137.166 -75.834 167.499 -117.501s45.5 -92.834 45.5 -153.501c0 -93.333 -27.667 -170.333 -83 -231c-68 -56 -144 -84.667 -228 -86c-38.667 0 -73.667 3.66699 -105 11c-18.667 4 -37.334 6 -56.001 6
c-12 0 -24 -1 -36 -3c-18.667 -3.33301 -38.334 -5 -59.001 -5c-82.667 0 -140.5 19 -173.5 57s-52.167 96.667 -57.5 176h-1v687h-129z" />
    <glyph glyph-name="Euro" unicode="&#x20ac;" horiz-adv-x="1311" 
d="M284 372c-41.333 90 -66.6641 183.667 -75.9971 281h-108l17 60h87v29c0 10.667 0.333008 21 1 31h-71l17 60h58c9.33301 96.667 34.666 190.334 75.999 281.001c54 118.667 129.333 210 226 274s196 96 298 96c28.667 0 57.667 -2.66699 87 -8
c26.667 -6.66699 54 -16.334 82 -29.001c5.33301 -4 10.666 -6 15.999 -6c13.333 0 24.666 15 33.999 45h41l84 -281l-40 -1c-32.667 89.333 -78.667 148.666 -138 177.999c-28.667 14.667 -55.667 25.334 -81 32.001v3c-33.333 10.667 -67 16 -101 16
c-11.333 0 -22.666 -0.666992 -33.999 -2c-80 -8 -155.333 -45.833 -226 -113.5s-123 -158.834 -157 -273.501c-21.333 -69.333 -34.333 -139.666 -39 -210.999h706l-17 -60h-692c0 -20 0.666992 -40 2 -60h674l-17 -60h-652c11.333 -105.333 39 -204.666 83 -297.999
c49.333 -104.667 113.666 -183.334 192.999 -236.001c68 -45.333 140 -68.333 216 -69c124 2 209.333 32.333 256 91c49.333 60.667 74 122.334 74 185.001h48v-143c0 -46.667 -37 -89 -111 -127c-70 -36 -159 -54.667 -267 -56c-120.667 0 -229.167 32.667 -325.5 98
s-170.833 156.666 -223.5 273.999z" />
    <glyph glyph-name="partialdiff" unicode="&#x2202;" horiz-adv-x="1060" 
d="M255 537c0 -27.333 1.66504 -53.668 4.99805 -79.001c9.33301 -81.333 29.833 -158 61.5 -230s71.167 -127 118.5 -165c42.667 -35.333 85.334 -53 128.001 -53c4 0 8.33301 0.333008 13 1c46.667 3.33301 89.167 26.833 127.5 70.5s65.166 103.5 80.499 179.5
c10.667 48.667 16 98.334 16 149.001c0 28 -1.66699 56.333 -5 85c-9.33301 81.333 -30.166 158.5 -62.499 231.5s-72.166 128.167 -119.499 165.5c-43.333 33.333 -86 50 -128 50h-11c-45.333 -3.33301 -87.333 -26.5 -126 -69.5s-66 -102.5 -82 -178.5
c-10.667 -56 -16 -108.333 -16 -157zM959.998 476.998c0 -88 -18.835 -171.669 -56.502 -251.002s-90.667 -141 -159 -185s-139.833 -66 -214.5 -66s-146.167 22 -214.5 66s-121.333 105.667 -159 185s-56.5 163 -56.5 251c0 87.333 19.333 171 58 251
s92.334 141.667 161.001 185s139 65 211 65c72.667 0 143.334 -21.667 212.001 -65c19.333 -12 37.333 -25.667 54 -41c-56 156.667 -133.833 282.334 -233.5 377.001s-208.5 146.334 -326.5 155.001v55c204 0 375.667 -95 515 -285s209 -422.333 209 -697z" />
    <glyph glyph-name="Delta" unicode="&#x2206;" horiz-adv-x="1267" 
d="M608 1195l-406 -1072h801zM641 1434l526 -1434h-1067z" />
    <glyph glyph-name="product" unicode="&#x220f;" horiz-adv-x="1619" 
d="M563 1384c-68 0 -102 -78.333 -102 -235v-1281c0 -156.667 34 -235 102 -235h97v-51h-560v51h96c68.667 0 103 78.333 103 235v1281c0 156.667 -34.333 235 -103 235h-96v50h1419v-50h-97c-68 0 -102 -78.333 -102 -235v-1281c0 -156.667 34 -235 102 -235h97v-50h-560
v50h96c68.667 0 103 78.333 103 235v1281c0 156.667 -34.333 235 -103 235h-492z" />
    <glyph glyph-name="summation" unicode="&#x2211;" horiz-adv-x="1224" 
d="M1039 548l-788 -914h635c86.667 0 149.667 60.667 189 182h49l-103 -232h-921v50c41.333 0 76.666 17.667 105.999 53l663 781l-663 859c-29.333 38 -64.666 57 -105.999 57v50h921l103 -232h-49c-39.333 121.333 -102.333 182 -189 182h-485z" />
    <glyph glyph-name="minus" unicode="&#x2212;" 
d="M100 647v140h839l1 -1v-139h-840z" />
    <glyph glyph-name="radical" unicode="&#x221a;" horiz-adv-x="1237" 
d="M264 0l-164 359l74 35l85 -185l728 1470h150v-60h-72z" />
    <glyph glyph-name="infinity" unicode="&#x221e;" horiz-adv-x="1085" 
d="M473 755c-10 68.667 -34.666 113 -73.999 133c-30.667 14.667 -58.667 22 -84 22c-8 0 -15.667 -0.666992 -23 -2c-32.667 -6.66699 -63.5 -21.5 -92.5 -44.5s-50.833 -51.167 -65.5 -84.5c-13.333 -30.667 -20 -60.667 -20 -90v-8c1.33301 -32 10.5 -61.667 27.5 -89
s40.833 -46.666 71.5 -57.999c19.333 -7.33301 39.666 -11 60.999 -11c10.667 0 21.667 1 33 3c31.333 6.66699 61.5 21.167 90.5 43.5s54.167 84.166 75.5 185.499zM500.001 687c8 -64 39.333 -115 94 -153c46 -32 87 -48 123 -48c7.33301 0 14.333 0.666992 21 2
c41.333 8 80.5 25.333 117.5 52s65.167 60.334 84.5 101.001c17.333 36 26 72 26 108v11c-1.33301 40 -13.166 76.167 -35.499 108.5s-52.833 55.166 -91.5 68.499c-24.667 8.66699 -50 13 -76 13c-14.667 0 -29.334 -1.33301 -44.001 -4c-44.667 -6 -87 -26.667 -127 -62
s-70.667 -101 -92 -197zM484.001 827c6 23.333 13 46.335 21 69.002c22.667 58.667 54.334 104.334 95.001 137.001s83.334 49 128.001 49s87.334 -16 128.001 -48s72.334 -77 95.001 -135s34 -118.667 34 -182s-11.333 -124 -34 -182s-54.334 -103 -95.001 -135
s-83.334 -48 -128.001 -48s-87.334 16.333 -128.001 49s-72.334 78 -95.001 136c-8 23.333 -15 46.666 -21 69.999c-3.33301 -14 -7.33301 -27.667 -12 -41c-18 -48.667 -42.667 -86.334 -74 -113.001s-64.333 -40 -99 -40s-68 13.667 -100 41s-56.5 65.166 -73.5 113.499
s-25.5 98.166 -25.5 149.499c0 50.667 8.5 100.334 25.5 149.001s41.5 86.667 73.5 114s65.333 41 100 41s67.667 -13.333 99 -40s56 -64 74 -112c4.66699 -14 8.66699 -28 12 -42z" />
    <glyph glyph-name="integral" unicode="&#x222b;" horiz-adv-x="997" 
d="M160 -281c-40 0 -59.9971 9.66699 -59.9971 29v159h36c0.666992 -28.667 12.167 -50.167 34.5 -64.5s43.5 -21.5 63.5 -21.5h1c54.667 0 93 54 115 162c21.333 108 34.666 213.333 39.999 316l70 734l8 62c18 158.667 63 301.834 135 429.501s150 191.5 234 191.5
c40 0 60 -9.66699 60 -29v-159h-36c-0.666992 28.667 -12.334 50.167 -35.001 64.5s-43.667 21.5 -63 21.5c-47.333 0 -86 -51.833 -116 -155.5s-46.333 -224.834 -49 -363.501l-73 -767c-13.333 -154 -56.833 -294 -130.5 -420s-151.834 -189 -234.501 -189z" />
    <glyph glyph-name="approxequal" unicode="&#x2248;" horiz-adv-x="1029" 
d="M929 1053l-0.00195312 -156c-42 -48 -82.667 -80.5 -122 -97.5s-78 -25.5 -116 -25.5c-40 0 -99.167 16.167 -177.5 48.5s-137.166 48.5 -176.499 48.5c-34 0 -69.833 -9.33301 -107.5 -28s-80.834 -56 -129.501 -112v156c42.667 48.667 83.667 81.667 123 99
s77.333 26 114 26c42.667 0 103.167 -16.5 181.5 -49.5s135.833 -49.5 172.5 -49.5c34.667 0 70.834 9.33301 108.501 28s80.834 56 129.501 112zM928.998 705l-0.00195312 -156c-42 -48 -82.667 -80.5 -122 -97.5s-78 -25.5 -116 -25.5c-40 0 -99.167 16.167 -177.5 48.5
s-137.166 48.5 -176.499 48.5c-34 0 -69.833 -9.33301 -107.5 -28s-80.834 -56 -129.501 -112v156c42.667 48.667 83.667 81.667 123 99s77.333 26 114 26c42.667 0 103.167 -16.5 181.5 -49.5s135.833 -49.5 172.5 -49.5c34.667 0 70.834 9.33301 108.501 28
s80.834 56 129.501 112z" />
    <glyph glyph-name="lessequal" unicode="&#x2264;" 
d="M940 1074l-625 -359l625 -355v-167l-840 481v83l840 484v-167zM100 1v140h839l1 -1v-139h-840z" />
    <glyph glyph-name="greaterequal" unicode="&#x2265;" 
d="M100 1241l840 -484v-83l-840 -481v167l625 355l-625 359v167zM100 2v140h839l1 -1v-139h-840z" />
    <glyph glyph-name="uniF001" unicode="&#xf001;" horiz-adv-x="1073" 
 />
    <glyph glyph-name="uniF001" unicode="&#xfb01;" horiz-adv-x="1073" 
 />
    <glyph glyph-name="uniF002" unicode="&#xf002;" horiz-adv-x="1081" 
 />
    <glyph glyph-name="uniF002" unicode="&#xfb02;" horiz-adv-x="1081" 
 />
    <glyph glyph-name=".null" horiz-adv-x="0" 
 />
    <glyph glyph-name="nonmarkingreturn" horiz-adv-x="508" 
 />
  </font>
</defs>
</svg>
